<svg width="303" height="303" viewBox="0 0 303 303" fill="none" xmlns="http://www.w3.org/2000/svg">
<path d="M131.603 219.12C131.603 219.12 104.181 219.12 95.1924 219.12C86.2034 219.12 84.4864 221.241 88.2739 222.806C92.0614 224.372 73.9319 223.614 70.8514 226.392C67.7204 229.169 75.6994 230.23 84.3349 230.23C92.9704 230.23 146.803 230.23 153.722 230.23C160.64 230.23 158.923 225.18 154.782 224.523C150.641 223.867 161.499 224.776 165.64 223.311C169.781 221.847 166.801 219.12 131.603 219.12Z" fill="#99ADF9"/>
<path d="M184.729 228.361C183.668 229.825 180.133 230.179 174.124 230.027C169.579 229.876 164.832 229.522 164.832 227.401C164.832 225.28 176.396 225.533 180.436 225.987C183.921 226.391 185.335 227.502 184.729 228.361Z" fill="#C5D3FF"/>
<path d="M80.093 221.291C79.386 222.352 76.962 222.655 72.72 222.655C69.5385 222.655 66.2055 222.503 66.1045 221.039C66.0035 219.524 74.134 219.473 77.0125 219.726C79.4365 219.928 80.497 220.635 80.093 221.291Z" fill="#C5D3FF"/>
<path d="M257.903 217.857H239.875C238.461 217.857 237.299 216.696 237.299 215.282V196.647C237.299 195.233 238.461 194.072 239.875 194.072H257.903C259.317 194.072 260.479 195.233 260.479 196.647V215.282C260.479 216.696 259.317 217.857 257.903 217.857Z" fill="#C5DFFF"/>
<path d="M257.045 216.999H239.724C238.36 216.999 237.249 215.888 237.249 214.524V196.546C237.249 195.183 238.36 194.072 239.724 194.072H257.045C258.409 194.072 259.52 195.183 259.52 196.546V214.524C259.52 215.888 258.409 216.999 257.045 216.999Z" fill="#E1ECFF"/>
<path d="M248.561 213.009C252.577 213.009 255.833 209.754 255.833 205.737C255.833 201.721 252.577 198.465 248.561 198.465C244.545 198.465 241.289 201.721 241.289 205.737C241.289 209.754 244.545 213.009 248.561 213.009Z" fill="#C5DFFF"/>
<path d="M245.683 209.02C245.43 209.02 245.228 208.818 245.228 208.565V202.96C245.228 202.707 245.43 202.505 245.683 202.505C245.935 202.505 246.137 202.707 246.137 202.96V208.565C246.137 208.818 245.935 209.02 245.683 209.02Z" fill="#1C3177"/>
<path d="M250.935 209.02C250.682 209.02 250.48 208.818 250.48 208.565V202.96C250.48 202.707 250.682 202.505 250.935 202.505C251.187 202.505 251.389 202.707 251.389 202.96V208.565C251.389 208.818 251.187 209.02 250.935 209.02Z" fill="#1C3177"/>
<path d="M204.525 186.345C204.171 186.345 203.818 186.345 203.464 186.295C195.637 185.739 190.284 183.063 181.295 169.377C178.164 164.63 176.043 159.782 173.972 155.086C170.437 147.056 167.407 140.087 160.539 136.855C149.985 131.906 139.632 140.087 139.531 140.188C139.077 140.542 138.42 140.491 138.067 140.037C137.713 139.582 137.764 138.926 138.218 138.572C138.673 138.219 149.682 129.482 161.398 134.987C168.973 138.522 172.306 146.147 175.841 154.227C177.861 158.873 179.982 163.671 183.012 168.216C191.546 181.144 196.445 183.669 203.616 184.224C208.969 184.628 211.847 181.396 214.625 178.215C215.635 177.104 216.544 176.043 217.604 175.134C221.695 171.65 225.987 170.993 226.189 170.993C226.745 170.892 227.3 171.296 227.351 171.852C227.452 172.407 227.048 172.963 226.492 173.013C226.442 173.013 222.604 173.619 218.968 176.7C218.008 177.508 217.15 178.518 216.19 179.578C213.362 182.81 210.231 186.345 204.525 186.345Z" fill="#1C3177"/>
<path d="M233.916 167.508L238.158 163.923C238.613 163.569 239.219 163.62 239.572 164.074C239.875 164.478 239.825 165.034 239.421 165.387L235.128 169.175L233.916 167.508Z" fill="#1C3177"/>
<path d="M231.29 164.479L235.532 160.893C235.987 160.54 236.593 160.59 236.946 161.045C237.249 161.449 237.199 162.004 236.795 162.358L232.502 166.145L231.29 164.479Z" fill="#1C3177"/>
<path d="M236.896 169.377C236.896 169.377 235.229 171.346 232.654 173.619C230.078 175.841 226.745 175.437 225.23 173.72C225.129 173.619 225.079 173.518 224.978 173.417C223.665 171.599 223.614 169.124 225.584 167.357C227.654 165.438 231.088 162.711 231.088 162.711L235.229 167.508L236.896 169.377Z" fill="#E1ECFF"/>
<path d="M236.896 169.377C236.896 169.377 235.229 171.346 232.654 173.619C230.078 175.841 226.745 175.437 225.23 173.72C225.129 173.619 225.079 173.518 224.978 173.417C226.19 173.417 228.26 173.164 230.129 171.902C231.694 170.841 233.714 168.973 235.179 167.508L236.896 169.377Z" fill="#C5DFFF"/>
<path d="M159.63 208.06C159.58 208.06 159.479 208.06 159.428 208.06C155.994 208.01 147.056 201.293 144.783 198.162C142.46 195.031 140.39 191.042 143.218 188.466C143.773 187.961 144.581 187.608 145.49 187.456C146.854 187.204 148.52 187.507 149.934 188.416C152.358 189.981 159.176 197.91 161.095 201.293C162.963 204.626 162.913 208.01 159.63 208.06Z" fill="#1C3177"/>
<path d="M159.631 208.06C160.136 207.757 160.489 207.252 160.792 206.242C161.297 204.475 159.53 200.94 153.722 194.173C150.238 190.082 147.258 188.264 145.491 187.456C146.854 187.204 148.521 187.507 149.935 188.416C152.359 189.981 159.176 197.91 161.095 201.293C162.964 204.626 162.913 208.01 159.631 208.06Z" fill="#384D89"/>
<path d="M142.561 190.638C143.066 189.224 145.995 189.476 148.52 191.951C151.045 194.425 154.883 199.324 153.924 201.445C152.964 203.566 149.328 201.849 146.349 198.92C143.369 195.991 141.753 192.91 142.561 190.638Z" fill="#142966"/>
<path d="M148.925 196.95C148.824 198.566 148.218 199.576 148.218 199.576C148.218 199.576 134.633 206.04 117.615 194.173C100.293 182.103 100.243 167.054 100.243 166.903C109.131 158.217 119.13 167.761 119.13 167.761C119.13 167.761 119.736 173.165 122.463 178.619C124.028 181.75 126.301 184.931 129.533 187.052C137.613 192.355 145.996 190.739 145.996 190.739C145.996 190.739 147.612 191.244 148.571 194.324C148.925 195.233 149.026 196.193 148.925 196.95Z" fill="#E1ECFF"/>
<path d="M148.925 196.95C148.824 198.566 148.218 199.576 148.218 199.576C148.218 199.576 134.633 206.04 117.615 194.173C100.293 182.103 100.243 167.054 100.243 166.903C109.131 158.217 119.13 167.761 119.13 167.761C119.13 167.761 119.736 173.165 122.463 178.619C121.099 179.629 119.382 180.689 118.069 181.093C115.292 181.901 112.312 181.901 112.312 181.901C112.312 181.901 120.847 194.678 133.472 197.001C140.289 198.162 145.541 197.657 148.925 196.95Z" fill="#C5DFFF"/>
<path d="M129.886 199.526C129.633 199.526 129.381 199.374 129.28 199.071C129.128 198.718 129.33 198.364 129.684 198.213C129.734 198.213 132.461 197.152 133.269 194.93C134.128 192.658 133.421 190.84 133.421 190.84C133.269 190.486 133.471 190.133 133.774 189.981C134.128 189.83 134.481 190.032 134.633 190.335C134.683 190.436 135.491 192.658 134.481 195.385C133.421 198.213 130.239 199.374 130.088 199.425C130.037 199.526 129.936 199.526 129.886 199.526Z" fill="#C5DFFF"/>
<path d="M118.17 194.324C117.816 194.324 117.513 194.072 117.513 193.718C117.513 193.365 117.766 193.062 118.119 193.011C118.17 193.011 121.705 192.759 123.472 190.436C125.24 188.113 125.139 185.739 125.139 185.689C125.088 185.335 125.391 184.982 125.745 184.982C126.098 184.931 126.452 185.234 126.452 185.588C126.452 185.689 126.654 188.466 124.533 191.244C122.361 194.021 118.372 194.274 118.17 194.324Z" fill="#C5DFFF"/>
<path d="M94.233 184.78C94.031 185.234 93.7785 185.689 93.425 186.143C92.7685 187.002 92.011 187.507 91.304 187.86C90.294 188.365 89.486 188.466 89.486 188.466C89.486 188.466 82.3655 181.548 76.154 169.226C69.9425 156.954 69.488 142.814 69.488 142.814C70.0435 142.511 70.599 142.259 71.104 142.057C73.023 141.299 74.7905 141.249 76.255 141.451C78.477 141.754 79.891 142.713 79.891 142.713C79.891 142.713 80.295 154.429 84.436 164.984C88.577 175.589 94.637 181.851 94.637 181.851C94.637 181.851 94.8895 183.214 94.233 184.78Z" fill="#E1ECFF"/>
<path d="M94.2329 184.78C92.0109 182.81 87.7689 178.316 83.6784 169.63C78.7799 159.227 76.8104 145.844 76.3054 141.451C78.5274 141.754 79.9414 142.713 79.9414 142.713C79.9414 142.713 80.3454 154.429 84.4864 164.984C88.6274 175.589 94.6874 181.851 94.6874 181.851C94.6874 181.851 94.8894 183.214 94.2329 184.78Z" fill="#F8FBFF"/>
<path d="M91.3039 187.86C90.2939 188.365 89.4859 188.466 89.4859 188.466C89.4859 188.466 82.3654 181.548 76.1539 169.226C69.9424 156.954 69.4879 142.814 69.4879 142.814C70.0434 142.511 70.5989 142.259 71.1039 142.057C71.4574 146.602 73.1239 161.55 80.1939 173.266C85.0419 181.245 88.9304 185.588 91.3039 187.86Z" fill="#C5DFFF"/>
<path d="M105.394 195.133C105.394 195.133 102.768 196.698 99.687 195.991C96.6065 195.284 95.445 194.274 95.445 194.274C95.445 194.274 94.435 192.759 95.1925 191.901C95.243 191.85 95.243 191.85 95.2935 191.8C96.253 190.941 97.566 190.79 97.566 190.79C97.566 190.79 99.384 192.204 100.697 192.658C102.01 193.113 104.333 192.658 105.192 193.214C105.596 193.466 105.646 193.921 105.596 194.325C105.596 194.779 105.394 195.133 105.394 195.133Z" fill="#E1ECFF"/>
<path d="M105.394 195.132C105.394 195.132 102.768 196.698 99.6871 195.991C96.6066 195.284 95.4451 194.274 95.4451 194.274C95.4451 194.274 94.4351 192.759 95.1926 191.9C96.1016 192.759 98.2731 194.627 100.798 194.93C102.869 195.183 104.586 194.728 105.596 194.324C105.596 194.779 105.394 195.132 105.394 195.132Z" fill="#C5DFFF"/>
<path d="M104.434 193.718C101.808 194.122 99.9396 193.415 98.5256 192.658C97.1116 191.9 96.556 190.941 96.556 190.941C96.556 190.941 96.556 189.779 97.3135 189.173C97.7175 188.82 98.374 188.668 99.384 188.971C99.384 188.971 101.354 190.688 104.636 189.527C107.919 188.365 107.717 187.658 108.424 187.456C108.929 187.305 109.585 188.062 109.737 188.921C109.838 189.325 109.787 189.729 109.636 190.082C109.08 191.193 107.06 193.264 104.434 193.718Z" fill="#E1ECFF"/>
<path d="M104.434 193.718C101.808 194.122 99.9396 193.415 98.5256 192.658C97.1116 191.9 96.5561 190.941 96.5561 190.941C96.5561 190.941 96.5561 189.779 97.3136 189.173C98.5256 190.385 101.152 192.557 104.03 192.001C106.858 191.446 108.878 189.779 109.787 188.921C109.888 189.325 109.838 189.729 109.686 190.082C109.08 191.193 107.06 193.264 104.434 193.718Z" fill="#C5DFFF"/>
<path d="M103.878 190.385C101.353 190.789 99.586 190.082 98.273 189.375C96.9095 188.668 96.4045 187.759 96.4045 187.759C96.4045 187.759 96.4045 186.648 97.1115 186.042C97.5155 185.689 98.1215 185.537 99.081 185.84C99.081 185.84 100.95 187.456 104.081 186.345C107.212 185.234 107.009 184.578 107.666 184.376C108.12 184.224 108.777 184.982 108.928 185.79C109.029 186.143 108.979 186.547 108.827 186.901C108.272 188.012 106.353 189.981 103.878 190.385Z" fill="#E1ECFF"/>
<path d="M103.878 190.386C101.353 190.79 99.586 190.083 98.273 189.376C96.9095 188.669 96.4044 187.76 96.4044 187.76C96.4044 187.76 96.4045 186.649 97.1115 186.043C98.2225 187.204 100.747 189.275 103.474 188.719C106.151 188.164 108.07 186.598 108.928 185.79C109.029 186.144 108.979 186.548 108.827 186.901C108.272 188.012 106.353 189.982 103.878 190.386Z" fill="#C5DFFF"/>
<path d="M103.525 187.861C101.354 188.568 99.6366 188.214 98.3741 187.76C97.0611 187.305 96.5056 186.598 96.5056 186.598C96.5056 186.598 96.3541 185.588 96.9601 184.982C97.2631 184.629 97.8186 184.427 98.7276 184.528C98.7276 184.528 100.596 185.689 103.273 184.326C105.949 182.912 105.697 182.356 106.252 182.053C106.656 181.851 107.313 182.407 107.565 183.114C107.666 183.417 107.717 183.77 107.616 184.124C107.212 185.134 105.697 187.154 103.525 187.861Z" fill="#E1ECFF"/>
<path d="M103.525 187.861C101.354 188.568 99.6365 188.214 98.374 187.76C97.061 187.305 96.5055 186.598 96.5055 186.598C96.5055 186.598 96.354 185.588 96.96 184.982C98.1215 185.841 100.596 187.356 102.97 186.497C105.343 185.639 106.858 183.972 107.515 183.114C107.616 183.417 107.666 183.77 107.565 184.124C107.212 185.134 105.697 187.154 103.525 187.861Z" fill="#C5DFFF"/>
<path d="M101.757 185.437C101.757 185.437 101.606 186.295 101.252 187.457C100.848 188.77 100.242 190.386 99.3335 191.648C98.9295 192.153 98.5255 192.608 98.1215 192.961C96.758 194.224 95.4955 194.476 95.4955 194.476C95.4955 194.476 91.607 190.739 90.496 189.477C89.385 188.265 88.476 186.952 88.476 186.952C88.476 186.952 88.173 185.538 88.476 184.023C88.6275 183.215 88.9305 182.356 89.5365 181.7C89.8395 181.397 90.193 181.144 90.496 180.942C92.1625 180.084 94.0815 180.74 94.0815 180.74C94.0815 180.74 97.8185 183.063 99.485 183.972C101.151 184.881 101.757 185.437 101.757 185.437Z" fill="#E1ECFF"/>
<path d="M101.758 185.437C101.758 185.437 101.606 186.295 101.253 187.457C100.495 187.053 99.1315 186.194 97.3135 184.881C94.94 183.215 91.5565 181.498 90.496 180.942C92.1625 180.084 94.0815 180.74 94.0815 180.74C94.0815 180.74 97.8185 183.063 99.485 183.972C101.152 184.881 101.758 185.437 101.758 185.437Z" fill="#F8FBFF"/>
<path d="M98.1215 192.911C96.758 194.123 95.4955 194.426 95.4955 194.426C95.4955 194.426 91.607 190.638 90.496 189.426C89.385 188.214 88.476 186.901 88.476 186.901C88.476 186.901 88.173 185.487 88.476 183.972C90.0415 185.74 94.233 190.285 97.162 192.204C97.5155 192.507 97.869 192.709 98.1215 192.911Z" fill="#C5DFFF"/>
<path d="M83.6785 179.982C82.921 179.932 82.4665 179.679 82.416 179.679C82.113 179.528 82.012 179.124 82.1635 178.821C82.315 178.518 82.6685 178.366 82.9715 178.518C83.022 178.568 84.436 179.225 86.3045 178.013C88.173 176.801 88.476 175.286 88.476 175.235C88.5265 174.882 88.8295 174.629 89.183 174.73C89.486 174.781 89.7385 175.134 89.688 175.488C89.688 175.589 89.3345 177.609 86.961 179.174C85.5975 179.932 84.4865 180.033 83.6785 179.982Z" fill="#C5DFFF"/>
<path d="M78.275 169.832C77.2145 169.731 76.5075 169.378 76.457 169.378C76.154 169.226 76.053 168.822 76.2045 168.519C76.356 168.216 76.7095 168.065 76.962 168.216C77.0125 168.267 78.78 169.125 81.103 168.065C83.3755 167.055 83.7795 165.59 83.7795 165.489C83.8805 165.136 84.1835 164.934 84.4865 165.035C84.7895 165.136 84.9915 165.489 84.8905 165.843C84.8905 165.944 84.335 167.964 81.507 169.277C80.2445 169.832 79.1335 169.933 78.275 169.832Z" fill="#C5DFFF"/>
<path d="M74.437 158.469C72.9725 158.368 72.215 157.762 72.1645 157.712C71.912 157.51 71.8615 157.106 72.0635 156.803C72.2655 156.5 72.619 156.449 72.922 156.702C72.9725 156.702 74.0835 157.56 76.558 157.055C79.689 156.399 80.5475 155.187 80.598 155.136C80.8 154.833 81.1535 154.783 81.4565 154.985C81.709 155.187 81.7595 155.591 81.5575 155.894C81.4565 156.045 80.3455 157.51 76.8105 158.318C75.851 158.52 75.0935 158.52 74.437 158.469Z" fill="#C5DFFF"/>
<path d="M81.9109 150.036C81.9109 150.036 78.8809 151.601 74.5884 151.551C72.4674 151.5 71.0029 151.096 70.0434 150.642C69.0334 150.187 68.5789 149.733 68.5789 149.733C68.5789 149.733 68.6294 148.824 68.4779 145.844C67.9729 136.451 72.2149 135.239 74.9924 135.138C75.6489 135.138 76.3559 135.239 76.9619 135.441C78.9819 136.148 80.6989 137.966 81.3554 140.188C82.2139 143.269 81.9109 150.036 81.9109 150.036Z" fill="#1C3177"/>
<path d="M75.6995 140.946C72.518 142.663 71.205 141.552 71.205 141.552C71.205 141.552 70.4475 144.127 70.094 149.228C70.0435 149.733 70.0435 150.238 69.993 150.642C68.983 150.187 68.5285 149.733 68.5285 149.733C68.5285 149.733 68.579 148.824 68.4275 145.844C67.9225 136.451 72.1645 135.239 74.942 135.138C75.5985 135.138 76.3055 135.239 76.9115 135.441C77.7195 136.805 78.6285 139.38 75.6995 140.946Z" fill="#384D89"/>
<path d="M140.188 156.702C140.037 157.51 139.885 158.267 139.683 159.025C138.471 163.721 136.35 167.509 133.371 169.983C124.836 177.104 113.12 180.891 98.071 171.145C86.052 163.368 74.9925 145.743 71.003 138.926C69.993 137.209 69.4375 136.148 69.4375 136.148C69.4375 136.148 76.356 135.795 87.264 130.795C91.7585 128.725 96.96 125.846 102.667 121.907C112.514 115.039 118.221 108.626 121.503 103.626C125.392 97.7682 125.947 93.9302 125.947 93.9302C125.947 93.9302 126.907 95.6977 128.573 99.5862C130.593 104.384 133.623 112.363 137.057 124.18C140.744 136.906 141.754 148.167 140.188 156.702Z" fill="#E1ECFF"/>
<path d="M128.573 99.5859C127.412 101.909 125.796 104.636 123.675 107.615C119.534 113.271 113.373 119.786 104.283 125.644C98.6771 129.28 93.6776 131.906 89.2841 133.825C80.2951 137.814 74.0836 138.723 70.9526 138.875C69.9426 137.158 69.3871 136.097 69.3871 136.097C69.3871 136.097 76.3056 135.744 87.2136 130.744C91.7081 128.674 96.9096 125.795 102.616 121.856C112.464 114.988 118.17 108.575 121.453 103.575C125.341 97.7174 125.897 93.8794 125.897 93.8794C125.897 93.8794 126.957 95.7479 128.573 99.5859Z" fill="#1C3177"/>
<path d="M139.683 159.024C138.471 163.721 136.35 167.508 133.371 169.983C124.836 177.103 113.12 180.891 98.0711 171.144C86.0521 163.367 74.9926 145.743 71.0031 138.925C69.9931 137.208 69.4376 136.148 69.4376 136.148C69.4376 136.148 76.3561 135.794 87.2641 130.795C91.5566 137.461 101.051 151.247 110.393 159.378C121.251 168.872 133.623 163.266 139.683 159.024Z" fill="#C5DFFF"/>
<path d="M89.2841 133.875C80.2951 137.865 74.0836 138.774 70.9526 138.925C69.9426 137.208 69.3871 136.148 69.3871 136.148C69.3871 136.148 76.3056 135.794 87.2136 130.795C87.8196 131.704 88.5266 132.764 89.2841 133.875Z" fill="#142966"/>
<path d="M138.774 151.803C137.512 146.602 135.795 140.037 133.623 133.068C130.139 121.756 126.2 113.019 124.028 109.232C127.058 104.636 127.614 102.768 127.614 102.768C127.614 102.768 128.371 104.182 129.684 107.212C131.25 110.949 133.623 117.211 136.3 126.452C139.229 136.35 140.037 145.137 138.774 151.803Z" fill="#F8FBFF"/>
<path d="M128.573 99.5859C127.412 101.909 125.796 104.636 123.675 107.615C122.867 106.05 122.16 104.686 121.503 103.575C125.392 97.7174 125.947 93.8794 125.947 93.8794C125.947 93.8794 126.957 95.7479 128.573 99.5859Z" fill="#384D89"/>
<path d="M112.767 156.045C112.767 156.045 108.222 159.479 98.9801 163.317C96.4046 164.377 93.8796 165.286 91.6071 166.044C91.4051 165.842 91.2031 165.64 91.0011 165.438C84.5371 159.226 78.7296 151.197 74.7906 145.137C74.5381 144.783 74.3361 144.43 74.1341 144.127C74.5381 144.026 81.3051 142.309 89.5366 138.622C98.0711 134.835 100.243 133.118 100.243 133.118L112.767 156.045Z" fill="#E1ECFF"/>
<path d="M111.353 155.994C111.353 155.994 107.262 159.277 98.5761 162.711C95.8996 163.771 93.2231 164.68 90.9506 165.438C84.4866 159.226 78.6791 151.197 74.7401 145.137L75.5481 144.935C75.5481 144.935 81.9111 143.319 89.7891 139.834C97.6671 136.299 99.8891 135.138 99.8891 135.138L111.353 155.994Z" fill="#1C3177"/>
<path d="M88.8296 157.964C88.6781 157.964 88.4761 157.913 88.3751 157.812L82.8201 152.863L82.4666 153.924C82.3151 154.277 81.9616 154.479 81.6081 154.328C81.2546 154.176 81.0526 153.823 81.2041 153.469L81.9111 151.449C82.0121 151.247 82.1636 151.045 82.3656 150.995C82.5676 150.944 82.8201 150.995 83.0221 151.146L87.9206 155.489L87.6681 153.52C87.6176 153.217 87.7691 152.914 88.0721 152.813L104.788 145.591C105.141 145.44 105.545 145.591 105.697 145.945C105.848 146.298 105.697 146.702 105.343 146.854L89.0821 153.873L89.5366 157.156C89.5871 157.459 89.4356 157.711 89.1831 157.863C89.0316 157.913 88.9306 157.964 88.8296 157.964Z" fill="#FFCE94"/>
<path d="M125.947 93.9298C125.947 93.9298 125.189 99.3333 119.382 106.858C116.049 111.201 110.999 116.251 103.424 121.402C91.001 129.886 81.204 133.471 75.346 135.037C71.508 136.047 69.387 136.148 69.387 136.148C69.387 136.148 56.7115 114.534 58.782 94.9398C59.3375 89.8393 60.903 85.5973 63.2765 82.1128C64.9935 79.5373 67.1145 77.4163 69.5385 75.6488C76.558 70.5988 86.0015 68.8313 95.1925 69.9423C111.959 72.0128 125.947 93.9298 125.947 93.9298Z" fill="#FEC272"/>
<path d="M125.947 93.9297C125.947 93.9297 125.594 96.3537 123.675 100.192C122.715 102.111 121.352 104.383 119.382 106.908C116.049 111.251 110.999 116.301 103.424 121.452C90.0416 130.542 79.6891 134.027 74.0836 135.39C71.0536 136.097 69.3871 136.198 69.3871 136.198C69.3871 136.047 69.4376 124.432 88.3246 109.686C107.313 94.7882 125.947 93.9297 125.947 93.9297Z" fill="#FCAD4F"/>
<path d="M123.675 100.192C122.715 102.111 121.352 104.383 119.382 106.908C116.049 111.251 110.999 116.301 103.424 121.452C90.0416 130.542 79.6891 134.027 74.0836 135.39C76.2046 130.542 80.8506 123.371 91.3041 115.19C104.131 105.141 116.807 101.505 123.675 100.192Z" fill="#F99D3A"/>
<path d="M125.947 93.9298C125.947 93.9298 125.19 99.3333 119.382 106.858C116.15 101.303 113.272 97.8183 113.272 97.8183C113.272 97.8183 105.848 104.535 99.7881 99.7373C93.7281 94.8893 98.2731 86.0013 98.2731 86.0013C98.2731 86.0013 92.1626 79.4363 82.2141 77.3153C77.2651 76.2548 72.7706 75.8003 69.4881 75.6488C76.5076 70.5988 85.951 68.8313 95.142 69.9423C111.959 72.0128 125.947 93.9298 125.947 93.9298Z" fill="#FFDBB3"/>
<path d="M75.3966 135.037C71.5586 136.047 69.4376 136.148 69.4376 136.148C69.4376 136.148 56.7621 114.534 58.8326 94.9398C59.3881 89.8393 60.9536 85.5973 63.3271 82.1128C62.7716 87.9203 62.3171 101.353 66.9631 115.847C69.2861 123.22 72.4171 129.785 75.3966 135.037Z" fill="#FFDBB3"/>
<path d="M133.067 223.008C133.067 223.311 133.067 223.614 133.017 223.967C132.815 226.947 123.674 227.502 117.311 227.805C111.049 228.108 104.434 226.341 106.706 224.27C106.757 224.22 106.757 224.22 106.807 224.169C108.423 222.806 111.554 221.24 115.039 219.978C117.059 219.22 119.129 218.614 121.2 218.109C123.927 217.453 129.482 216.14 131.3 217.503C131.653 217.756 131.956 218.16 132.209 218.614C132.764 219.675 133.067 221.24 133.067 223.008Z" fill="#1C3177"/>
<path d="M133.067 223.008C133.067 223.311 133.067 223.614 133.017 223.967C132.815 226.947 123.674 227.502 117.311 227.805C111.049 228.108 104.434 226.341 106.706 224.27C108.07 225.078 111.049 226.038 117.261 225.785C125.745 225.432 130.896 224.018 133.067 223.008Z" fill="#384D89"/>
<path d="M132.158 218.614C131.754 219.018 131.098 219.422 130.34 219.826C127.916 221.038 120.543 222.351 116.049 221.594C114.079 221.24 114.231 220.634 114.988 219.978C117.008 219.22 119.079 218.614 121.149 218.109C123.876 217.453 129.431 216.14 131.249 217.503C131.603 217.756 131.906 218.16 132.158 218.614Z" fill="#142966"/>
<path d="M120.796 194.375C122.816 207.303 130.189 217.201 130.189 217.201C130.189 217.201 129.482 218.211 128.068 219.12C127.462 219.524 126.755 219.827 125.896 220.13C124.583 220.534 123.169 220.534 121.957 220.433C120.493 220.281 119.432 219.978 119.432 219.978C119.432 219.978 106.858 203.768 105.292 185.285C103.727 166.802 113.675 157.51 113.675 157.51C113.675 157.51 113.776 157.459 113.877 157.358C114.887 156.702 119.331 154.278 124.684 157.308C125.088 157.51 125.442 157.762 125.745 157.964C129.835 160.641 130.441 163.368 130.441 163.368C130.441 163.368 127.664 165.792 125.593 169.428C123.523 172.963 118.776 181.447 120.796 194.375Z" fill="#E1ECFF"/>
<path d="M120.796 194.374C122.816 207.302 130.189 217.2 130.189 217.2C130.189 217.2 129.482 218.21 128.068 219.119C124.381 214.019 115.544 198.566 115.847 183.87C116.099 170.437 123.068 161.095 125.795 157.964C129.886 160.64 130.492 163.367 130.492 163.367C130.492 163.367 127.714 165.791 125.644 169.427C123.523 172.962 118.776 181.446 120.796 194.374Z" fill="#C5DFFF"/>
<path d="M121.907 220.382C120.442 220.231 119.382 219.928 119.382 219.928C119.382 219.928 106.807 203.717 105.242 185.234C103.676 166.751 113.625 157.459 113.625 157.459C113.625 157.459 113.726 157.409 113.827 157.308C111.908 161.247 107.615 171.448 108.019 182.962C108.524 197.758 114.938 209.171 119.432 216.443C120.291 217.908 121.149 219.221 121.907 220.382Z" fill="#F8FBFF"/>
<path d="M112.312 207.252C112.16 207.252 111.958 207.202 111.857 207.05C111.605 206.798 111.554 206.343 111.807 206.091C111.857 206.04 113.322 204.525 116.251 203.616C119.23 202.707 122.513 203.717 122.664 203.768C123.018 203.869 123.22 204.273 123.119 204.626C123.018 204.98 122.614 205.182 122.261 205.081C122.21 205.081 119.23 204.172 116.655 204.929C114.079 205.737 112.817 207 112.817 207.05C112.716 207.202 112.514 207.252 112.312 207.252Z" fill="#C5DFFF"/>
<path d="M107.11 191.092C106.858 191.092 106.656 190.991 106.504 190.739C106.302 190.385 106.403 189.981 106.757 189.779C106.858 189.729 109.837 188.012 113.221 187.86C116.655 187.658 119.533 189.628 119.634 189.729C119.937 189.931 120.038 190.385 119.786 190.688C119.584 190.991 119.129 191.092 118.826 190.84C118.776 190.84 116.251 189.072 113.271 189.224C110.191 189.375 107.464 190.941 107.413 190.991C107.363 191.092 107.211 191.092 107.11 191.092Z" fill="#C5DFFF"/>
<path d="M120.947 177.76C120.796 177.76 120.594 177.71 120.493 177.558C120.442 177.508 116.705 174.124 112.968 173.67C109.332 173.215 107.11 174.781 107.11 174.831C106.807 175.033 106.353 174.983 106.151 174.68C105.949 174.377 105.999 173.922 106.302 173.72C106.403 173.619 108.979 171.751 113.17 172.306C117.311 172.862 121.25 176.397 121.452 176.548C121.755 176.801 121.755 177.255 121.503 177.508C121.301 177.659 121.099 177.76 120.947 177.76Z" fill="#C5DFFF"/>
<path d="M165.034 163.417C165.034 163.417 164.075 166.7 161.045 168.669C158.015 170.639 156.298 170.841 156.298 170.841C156.298 170.841 154.328 170.538 154.328 169.275C154.328 169.225 154.328 169.174 154.328 169.124C154.429 167.76 155.389 166.548 155.389 166.548C155.389 166.548 157.964 166.094 159.378 165.387C160.792 164.68 162.307 162.407 163.418 162.155C163.974 162.054 164.327 162.306 164.63 162.66C164.933 163.013 165.034 163.417 165.034 163.417Z" fill="#E1ECFF"/>
<path d="M165.034 163.417C165.034 163.417 164.075 166.7 161.045 168.669C158.015 170.639 156.298 170.841 156.298 170.841C156.298 170.841 154.328 170.538 154.328 169.275C155.692 169.174 158.924 168.77 161.196 166.952C163.065 165.488 164.125 163.72 164.63 162.609C164.933 163.013 165.034 163.417 165.034 163.417Z" fill="#C5DFFF"/>
<path d="M163.166 163.165C161.348 165.639 159.277 166.599 157.56 167.205C155.843 167.811 154.682 167.558 154.682 167.558C154.682 167.558 153.773 166.7 153.924 165.639C153.975 165.033 154.379 164.377 155.439 163.771C155.439 163.771 158.318 163.417 160.136 159.882C161.954 156.347 161.196 155.994 161.651 155.287C161.954 154.782 163.065 154.832 163.822 155.287C164.176 155.489 164.479 155.842 164.58 156.246C165.034 157.509 164.984 160.69 163.166 163.165Z" fill="#E1ECFF"/>
<path d="M163.166 163.165C161.348 165.639 159.277 166.599 157.56 167.205C155.843 167.811 154.682 167.558 154.682 167.558C154.682 167.558 153.773 166.7 153.924 165.639C155.793 165.538 159.631 165.033 161.499 162.256C163.368 159.529 163.772 156.65 163.822 155.287C164.176 155.489 164.479 155.842 164.58 156.246C165.034 157.509 164.984 160.69 163.166 163.165Z" fill="#C5DFFF"/>
<path d="M159.782 161.599C158.065 163.922 156.096 164.882 154.429 165.437C152.813 165.993 151.702 165.74 151.702 165.74C151.702 165.74 150.844 164.932 150.995 163.922C151.046 163.367 151.45 162.71 152.46 162.155C152.46 162.155 155.187 161.852 156.904 158.468C158.621 155.135 157.914 154.782 158.318 154.075C158.621 153.62 159.631 153.62 160.388 154.075C160.742 154.277 160.994 154.58 161.146 154.984C161.55 156.246 161.499 159.276 159.782 161.599Z" fill="#E1ECFF"/>
<path d="M159.782 161.599C158.065 163.922 156.096 164.881 154.429 165.437C152.813 165.992 151.702 165.74 151.702 165.74C151.702 165.74 150.844 164.932 150.995 163.922C152.763 163.821 156.399 163.366 158.217 160.74C159.984 158.165 160.338 155.438 160.439 154.125C160.792 154.327 161.045 154.63 161.196 155.034C161.55 156.246 161.499 159.276 159.782 161.599Z" fill="#C5DFFF"/>
<path d="M158.419 166.094C158.469 167.558 158.116 168.77 157.712 169.679C157.156 170.841 156.55 171.447 156.55 171.447C156.55 171.447 143.774 175.941 130.341 164.73C123.422 158.973 117.867 151.449 114.13 145.54C110.595 139.935 108.626 135.743 108.626 135.743C108.626 135.743 107.565 132.461 109.535 129.633C110.141 128.724 111.05 127.865 112.464 127.158C114.837 125.946 116.807 125.845 118.372 126.249C120.998 126.906 122.463 128.875 122.463 128.875C122.463 128.875 124.432 133.218 127.361 138.571C130.795 144.783 135.542 152.358 140.087 155.893C148.521 162.458 155.54 159.933 155.54 159.933C155.54 159.933 156.298 160.69 157.055 161.852C157.611 162.912 158.368 164.427 158.419 166.094Z" fill="#E1ECFF"/>
<path d="M127.21 138.471C126.149 140.137 124.079 142.612 120.241 144.026C117.766 144.985 115.595 145.339 114.029 145.49C110.494 139.885 108.525 135.693 108.525 135.693C108.525 135.693 106.707 129.987 112.312 127.058C118.625 123.775 122.311 128.775 122.311 128.775C122.311 128.775 124.281 133.168 127.21 138.471Z" fill="#C5DFFF"/>
<path d="M157.661 169.629C157.106 170.791 156.5 171.397 156.5 171.397C156.5 171.397 143.723 175.891 130.29 164.68C123.372 158.923 117.817 151.399 114.08 145.49C110.545 139.885 108.575 135.693 108.575 135.693C108.575 135.693 107.515 132.411 109.484 129.583C111.151 133.37 118.271 148.823 127.311 157.711C137.663 167.862 143.269 169.124 153.217 169.528C154.833 169.579 156.348 169.629 157.661 169.629Z" fill="#C5DFFF"/>
<path d="M156.904 161.801C154.328 162.559 150.743 163.114 147.006 161.953C140.037 159.781 134.33 155.388 128.725 146.954C124.129 139.985 119.685 129.683 118.271 126.199C120.897 126.855 122.362 128.825 122.362 128.825C122.362 128.825 124.331 133.168 127.26 138.521C130.694 144.732 135.441 152.307 139.986 155.842C148.42 162.407 155.439 159.882 155.439 159.882C155.439 159.882 156.146 160.589 156.904 161.801Z" fill="#F8FBFF"/>
<path d="M121.907 153.873C120.645 153.873 119.837 153.57 119.786 153.57C119.433 153.419 119.231 153.015 119.382 152.661C119.534 152.308 119.938 152.106 120.291 152.257C120.392 152.308 122.766 153.116 125.947 151.399C129.129 149.631 129.886 146.5 129.886 146.5C129.987 146.147 130.341 145.894 130.694 145.995C131.048 146.096 131.3 146.45 131.199 146.803C131.149 146.955 130.341 150.54 126.553 152.611C124.786 153.621 123.119 153.873 121.907 153.873Z" fill="#C5DFFF"/>
<path d="M131.553 165.185C131.149 165.185 130.846 164.882 130.846 164.478C130.846 164.074 131.149 163.771 131.553 163.771C131.603 163.771 134.734 163.72 136.502 161.549C138.32 159.327 137.966 156.196 137.966 156.145C137.916 155.741 138.219 155.438 138.572 155.388C138.926 155.337 139.279 155.64 139.33 155.994C139.33 156.145 139.734 159.731 137.562 162.407C135.391 165.185 131.704 165.185 131.553 165.185Z" fill="#C5DFFF"/>
<path d="M142.663 171.093C142.41 171.093 142.107 170.942 142.006 170.639C141.855 170.285 142.057 169.881 142.41 169.73C142.461 169.73 145.289 168.568 146.046 165.488C146.804 162.357 145.743 160.539 145.693 160.488C145.491 160.185 145.592 159.731 145.895 159.529C146.198 159.327 146.652 159.428 146.854 159.731C146.905 159.832 148.319 162.104 147.359 165.791C146.4 169.578 143.016 170.942 142.865 170.992C142.814 171.093 142.764 171.093 142.663 171.093Z" fill="#C5DFFF"/>
<path d="M127.613 132.411C127.613 132.411 127.512 133.017 127.159 133.926C126.452 135.643 124.785 138.471 120.998 140.945C115.14 144.733 109.938 143.117 109.938 143.117C109.938 143.117 106.201 138.218 105.444 131.451C104.989 127.563 107.565 124.533 110.898 123.068C113.372 122.008 116.251 121.806 118.574 122.816C124.078 125.29 127.613 132.411 127.613 132.411Z" fill="#1C3177"/>
<path d="M127.614 132.411C127.614 132.411 127.513 133.017 127.159 133.926C127.159 133.875 127.109 133.875 127.109 133.825C122.412 127.613 118.726 126.351 118.726 126.351C118.726 126.351 117.362 129.583 112.868 127.714C109.737 126.452 110.292 124.23 110.949 123.068C113.423 122.008 116.302 121.806 118.625 122.816C124.079 125.29 127.614 132.411 127.614 132.411Z" fill="#384D89"/>
<path d="M66.256 105.697C65.2965 105.545 64.3875 106.151 64.1855 107.06C63.731 108.979 63.024 112.262 62.721 114.787C62.4685 116.908 62.3675 118.675 62.317 119.887C62.2665 120.746 62.923 121.554 63.7815 121.705C64.7915 121.857 65.7005 121.15 65.8015 120.14C65.9025 118.574 66.155 116.201 66.7105 113.474C67.2155 110.898 67.569 109.08 67.8215 107.868C67.973 106.858 67.266 105.899 66.256 105.697Z" fill="#1C3177"/>
<path d="M57.5195 111.1C57.772 110.09 58.8325 109.535 59.792 109.989C61.307 110.646 63.529 111.605 65.65 112.363C67.8215 113.12 69.8415 113.878 71.104 114.383C71.9625 114.686 72.417 115.595 72.215 116.504C71.9625 117.463 70.9525 118.069 69.993 117.766C68.3265 117.312 65.7005 116.453 62.923 115.292C60.4485 114.231 59.0345 113.423 58.176 112.918C57.6205 112.514 57.368 111.807 57.5195 111.1Z" fill="#1C3177"/>
<path d="M87.9711 93.3742C86.7591 93.1722 85.5975 93.9802 85.2945 95.1922C84.739 97.7172 83.9311 101.959 83.5776 105.292C83.3251 108.07 83.1736 110.342 83.1736 111.908C83.1231 113.069 83.9816 114.029 85.0926 114.18C86.4056 114.382 87.5671 113.423 87.6681 112.11C87.7691 110.09 88.0721 107.009 88.6276 103.474C89.1831 100.091 89.6376 97.7172 89.8901 96.1517C90.1931 94.8387 89.2841 93.5762 87.9711 93.3742Z" fill="#1C3177"/>
<path d="M76.76 100.646C77.063 99.3331 78.477 98.6261 79.689 99.1311C81.6585 99.9391 84.537 101.101 87.3145 102.06C90.1425 103.02 92.7685 103.929 94.435 104.535C95.546 104.939 96.2025 106.1 95.8995 107.262C95.5965 108.524 94.2835 109.332 93.021 108.979C90.8495 108.423 87.466 107.413 83.83 105.949C80.598 104.636 78.7295 103.626 77.669 102.969C76.962 102.414 76.558 101.505 76.76 100.646Z" fill="#1C3177"/>
<path d="M258.913 189.88C258.913 189.88 261.489 190.638 263.357 192.809C265.226 195.031 265.478 198.617 265.478 198.617L275.679 193.87C275.679 193.87 270.528 195.839 268.811 192.405C267.094 188.971 272.801 183.517 272.801 183.517C272.801 183.517 266.488 188.668 264.014 187.911C261.539 187.153 261.135 184.073 261.135 184.073L258.913 189.88Z" fill="#FEC272"/>
<path d="M249.268 188.719L251.086 188.769L253.914 168.064L247.5 166.852L249.268 188.719Z" fill="#D2E9FF"/>
<path d="M253.712 188.819L257.954 169.427L264.065 172.407L254.823 189.324L253.712 188.819Z" fill="#D2E9FF"/>
<path d="M51.6111 90.9502L50.5506 93.2732L28.3811 86.4557L31.3606 77.7192L51.6111 90.9502Z" fill="#FEC272"/>
<path d="M54.944 83.2745L52.9745 86.1025L27.9265 67.0135L34.845 59.792L54.944 83.2745Z" fill="#FEC272"/>
</svg>