<svg width="376" height="376" viewBox="0 0 376 376" fill="none" xmlns="http://www.w3.org/2000/svg">
<path d="M62.2701 267.475C62.2701 272.675 64.8701 275.34 75.5301 276.12C86.1901 276.9 90.4151 279.24 87.4251 280.215C84.4351 281.19 72.2801 280.345 69.5501 285.09C66.8201 289.77 77.7401 292.305 91.6501 292.305C105.56 292.305 164.19 292.305 183.56 292.305C202.93 292.305 218.465 288.535 218.465 282.555C218.465 276.575 207.285 275.665 202.67 273.455C198.055 271.245 200.785 265.59 209.755 265.59C218.725 265.59 231.595 265.59 240.045 265.59C248.495 265.59 250.38 270.01 244.66 270.92C238.94 271.83 237.835 279.11 251.485 279.11C265.135 279.11 299.195 279.11 312.325 279.11C325.455 279.11 332.54 271.57 326.235 266.24C319.93 260.91 324.35 257.79 333.58 256.49C342.875 255.255 352.105 254.28 352.105 246.155C352.105 238.03 337.675 235.17 327.015 235.17C316.355 235.17 311.74 232.635 311.74 229.19C311.74 225.745 306.54 223.21 290.225 223.21C273.91 223.21 193.96 223.21 154.635 223.21C115.31 223.21 118.105 223.21 110.24 223.21C102.375 223.21 98.0851 230.1 103.675 232.83C109.33 235.56 115.7 232.635 117.13 237.64C118.56 242.645 115.31 243.49 103.87 243.49C92.4301 243.49 81.9001 243.49 73.7101 243.49C49.3351 243.49 49.1401 256.49 64.8051 256.49C74.2951 256.49 62.2701 262.34 62.2701 267.475Z" fill="#FEC272"/>
<path d="M53.235 287.95C59.4814 287.95 64.545 286.32 64.545 284.31C64.545 282.3 59.4814 280.67 53.235 280.67C46.9887 280.67 41.925 282.3 41.925 284.31C41.925 286.32 46.9887 287.95 53.235 287.95Z" fill="#FEC272"/>
<path d="M229.19 278.395C233.642 278.395 237.25 277.231 237.25 275.795C237.25 274.359 233.642 273.195 229.19 273.195C224.739 273.195 221.13 274.359 221.13 275.795C221.13 277.231 224.739 278.395 229.19 278.395Z" fill="#FEC272"/>
<path d="M340.73 263.965C345.181 263.965 348.79 262.801 348.79 261.365C348.79 259.929 345.181 258.765 340.73 258.765C336.279 258.765 332.67 259.929 332.67 261.365C332.67 262.801 336.279 263.965 340.73 263.965Z" fill="#FEC272"/>
<path d="M187.33 173.095C187.33 173.095 182.585 164.645 186.095 162.63C189.605 160.615 193.505 164.515 193.505 164.515C193.505 164.515 189.54 155.35 194.09 152.62C198.64 149.89 205.92 159.77 205.92 159.77L187.33 173.095Z" fill="#99ADF9"/>
<path d="M205.92 161.59C205.92 161.59 199.615 151.58 205.27 149.11C208.975 147.485 214.825 153.79 214.825 153.79C214.825 153.79 212.355 147.94 217.23 145.925C222.105 143.91 226.33 152.035 226.33 152.035L205.92 161.59Z" fill="#7791E5"/>
<path d="M78.3249 222.365C78.3249 222.365 75.3349 215.605 78.1299 214.37C80.9249 213.135 83.6549 216.32 83.6549 216.32C83.6549 216.32 81.3149 209.105 84.9549 207.35C88.5949 205.595 93.4049 213.59 93.4049 213.59L78.3249 222.365Z" fill="#99ADF9"/>
<path d="M93.2099 215.15C93.2099 215.15 90.2849 205.79 93.2749 204.945C96.2649 204.1 99.3199 209.95 99.3199 209.95C99.3199 209.95 98.3449 203.255 102.18 202.085C106.015 200.915 109.33 208.715 109.33 208.715L93.2099 215.15Z" fill="#7791E5"/>
<path d="M283.92 170.43C283.92 170.43 288.275 164.775 290.68 166.595C293.02 168.415 291.525 172.185 291.525 172.185C291.525 172.185 296.595 166.855 299.78 169.13C302.965 171.405 298.35 179.205 298.35 179.205L283.92 170.43Z" fill="#99ADF9"/>
<path d="M297.05 179.205C297.05 179.205 303.68 172.445 305.76 174.59C307.84 176.735 304.33 182.065 304.33 182.065C304.33 182.065 309.595 178.165 312.39 180.895C315.185 183.625 310.05 190.06 310.05 190.06L297.05 179.205Z" fill="#7791E5"/>
<path d="M333.84 250.12C332.865 250.445 332.02 250.575 331.305 250.575C331.175 250.575 331.045 250.575 330.915 250.575C328.77 250.25 327.73 248.04 325.52 243.425C322.465 237.12 315.575 232.765 298.155 231.595C280.735 230.425 252.33 250.9 221 250.835C220.22 250.835 219.505 250.835 218.725 250.835C218.14 250.835 217.62 250.835 217.035 250.835C216.125 250.835 215.215 250.835 214.24 250.77C213.525 250.77 212.745 250.705 212.03 250.705C211.315 250.705 210.6 250.64 209.885 250.64H209.95C208.52 250.575 207.09 250.51 205.725 250.51C204.295 250.445 202.93 250.38 201.5 250.315C200.135 250.25 198.77 250.185 197.405 250.055C196.755 249.99 196.105 249.99 195.455 249.925C193.115 249.795 190.775 249.6 188.565 249.405C188.045 249.34 187.46 249.34 186.94 249.275C186.225 249.21 185.445 249.145 184.73 249.08C184.015 249.015 183.3 248.95 182.585 248.885C180.115 248.625 177.645 248.365 175.305 248.105C174.98 248.04 174.655 248.04 174.33 247.975C171.665 247.65 169.195 247.325 166.79 247C166.27 246.935 165.75 246.87 165.23 246.805C163.41 246.545 161.59 246.285 159.9 246.025C159.64 245.96 159.38 245.96 159.12 245.895C158.08 245.7 157.04 245.57 156.065 245.375C155.675 245.31 155.285 245.245 154.895 245.18C154.57 245.115 154.245 245.05 153.855 244.985C143.065 243.1 136.76 241.475 136.76 241.475C136.76 241.475 114.985 238.55 101.27 239.33C91.585 239.915 81.77 241.735 76.31 239.59C75.725 239.33 75.14 239.005 74.62 238.68C74.555 238.615 74.425 238.55 74.36 238.485C72.605 237.055 71.695 234.715 72.15 231.075C72.475 228.345 73.71 225.94 75.595 223.795C81.445 217.035 93.275 212.745 101.985 209.95C113.49 206.245 129.675 202.02 129.675 202.02C129.675 202.02 173.16 184.73 190.45 169.455C210.665 151.58 241.085 137.54 265.33 153.335C287.56 167.83 311.87 187.46 327.86 209.885C334.75 219.57 337.675 228.085 338.325 234.845C339.3 243.685 336.44 249.34 333.84 250.12Z" fill="#FF97C9"/>
<path d="M331.305 250.64C331.175 250.64 331.045 250.64 330.915 250.64C328.77 250.315 327.73 248.105 325.52 243.49C322.465 237.185 315.575 232.83 298.155 231.66C280.735 230.49 252.33 250.965 221 250.9C220.22 250.9 219.505 250.9 218.725 250.9C218.14 250.9 217.62 250.9 217.035 250.9C216.125 250.9 215.215 250.9 214.24 250.835C213.525 250.835 212.745 250.835 212.03 250.77C211.315 250.77 210.6 250.705 209.885 250.705H209.95C208.52 250.64 207.09 250.575 205.725 250.575C204.295 250.51 202.93 250.445 201.5 250.38C200.135 250.315 198.77 250.25 197.405 250.12C196.755 250.055 196.105 250.055 195.455 249.99C193.115 249.86 190.775 249.665 188.565 249.47C188.045 249.405 187.46 249.405 186.94 249.34C186.225 249.275 185.445 249.21 184.73 249.145C184.015 249.08 183.3 249.015 182.585 248.95C180.115 248.69 177.645 248.43 175.37 248.17C175.045 248.105 174.72 248.105 174.395 248.04C171.73 247.715 169.26 247.39 166.855 247.065C166.335 247 165.815 246.935 165.295 246.87C163.475 246.61 161.655 246.35 159.965 246.09C159.705 246.025 159.445 246.025 159.185 245.96C158.145 245.765 157.105 245.635 156.065 245.44C155.675 245.375 155.285 245.31 154.895 245.245C154.57 245.18 154.18 245.115 153.855 245.05C143.065 243.165 136.76 241.54 136.76 241.54C136.76 241.54 114.985 238.615 101.27 239.395C90.4801 240.045 79.4951 242.255 74.685 238.745C74.62 238.68 74.49 238.615 74.425 238.55C74.62 237.9 74.8801 237.185 75.2701 236.535C79.6901 228.345 97.24 226.005 118.56 224.51C139.88 223.015 166.855 224.835 184.99 220.09C203.125 215.41 221.845 201.37 246.415 197.275C270.985 193.18 300.105 204.425 319.15 219.635C336.18 233.22 332.28 247.845 331.305 250.64Z" fill="#F982C6"/>
<path d="M330.915 250.575C328.77 250.25 327.73 248.04 325.52 243.425C323.7 239.72 320.58 236.665 314.73 234.52C314.015 234.26 313.235 234 312.39 233.74C308.685 232.635 304.005 231.92 298.155 231.53C297.375 231.465 296.66 231.465 295.88 231.465C295.165 231.465 294.385 231.53 293.67 231.66C280.085 233.155 261.235 243.815 240.11 248.56C239.265 248.755 238.42 248.95 237.575 249.08C232.245 250.12 226.785 250.77 221.195 250.77H221C220.22 250.77 219.505 250.77 218.725 250.77C218.14 250.77 217.62 250.77 217.035 250.77C216.125 250.77 215.215 250.77 214.24 250.705C213.525 250.705 212.745 250.705 212.03 250.64C211.315 250.64 210.6 250.575 209.885 250.575H209.95C208.52 250.51 207.09 250.445 205.725 250.445C204.945 250.38 204.165 250.38 203.32 250.315C202.735 250.315 202.085 250.25 201.5 250.25C201.305 250.25 201.175 250.25 200.98 250.25C199.81 250.185 198.575 250.12 197.405 250.055C196.755 249.99 196.105 249.99 195.455 249.925C193.115 249.795 190.775 249.6 188.565 249.405C188.045 249.34 187.46 249.34 186.94 249.275C186.225 249.21 185.445 249.145 184.73 249.08C184.015 249.015 183.3 248.95 182.585 248.885C180.115 248.625 177.645 248.365 175.37 248.105C175.045 248.04 174.72 248.04 174.395 247.975C171.73 247.65 169.26 247.325 166.855 247C166.335 246.935 165.815 246.87 165.295 246.805C163.475 246.545 161.655 246.285 159.965 246.025C159.705 245.96 159.445 245.96 159.185 245.895C158.145 245.7 157.105 245.57 156.065 245.375C155.675 245.31 155.285 245.245 154.895 245.18C154.635 245.115 154.31 245.05 154.05 245.05C153.985 245.05 153.92 245.05 153.855 245.05C153.14 244.92 152.425 244.79 151.71 244.66C142.22 242.97 136.76 241.54 136.76 241.54C136.76 241.54 135.59 241.41 133.575 241.15C132.86 241.085 132.08 240.955 131.235 240.89C127.335 240.435 121.875 239.915 116.155 239.59C115.375 239.525 114.595 239.525 113.815 239.46C109.46 239.265 105.04 239.2 101.27 239.395C90.4801 240.045 79.4951 242.255 74.6851 238.745C75.2051 236.99 76.5051 235.105 79.2351 233.35C85.9301 229.06 93.0801 223.535 113.75 224.965C114.53 225.03 115.31 225.095 116.155 225.16C120.51 225.55 125.45 226.265 131.04 227.305C131.82 227.435 132.665 227.63 133.51 227.76C133.77 227.825 134.03 227.89 134.355 227.955C138.84 228.865 144.95 229.84 152.1 230.75C152.88 230.815 153.66 230.945 154.44 231.01C167.505 232.505 183.885 233.675 200.785 233.545C201.565 233.545 202.345 233.545 203.125 233.545C205.595 233.545 208.065 233.48 210.47 233.35C213.33 233.22 216.06 233.09 218.66 232.895C219.44 232.83 220.22 232.765 221 232.7C227.175 232.115 232.83 231.27 238.03 230.295C238.81 230.165 239.59 229.97 240.37 229.84C261.755 225.485 275.925 218.855 294.385 218.595C295.165 218.595 295.945 218.595 296.79 218.595C297.245 218.595 297.765 218.595 298.22 218.66C305.175 218.92 310.765 220.22 315.25 222.17C316.03 222.495 316.81 222.885 317.525 223.275C327.795 228.865 331.11 238.095 331.63 244.075C331.825 246.61 331.5 248.82 330.915 250.575Z" fill="#FFCAE8"/>
<path d="M237.055 163.67C232.115 163.15 225.095 166.66 225.355 171.925C225.615 177.19 234 176.605 239.785 173.55C245.635 170.43 245.115 164.45 237.055 163.67Z" fill="#F982C6"/>
<path d="M238.03 179.595C236.34 180.31 234.52 182.715 235.365 184.145C236.21 185.575 240.11 183.82 241.085 181.61C241.67 180.31 240.89 178.36 238.03 179.595Z" fill="#F982C6"/>
<path d="M221.325 162.435C220.22 162.695 218.92 163.93 219.31 164.84C219.7 165.75 222.105 165.1 222.95 163.865C223.34 163.215 223.08 161.98 221.325 162.435Z" fill="#F982C6"/>
<path d="M217.36 169.975C215.8 170.365 213.85 172.185 214.435 173.55C214.955 174.915 218.595 173.94 219.765 172.185C220.35 171.145 219.96 169.325 217.36 169.975Z" fill="#F982C6"/>
<path d="M284.505 175.5C279.695 174.135 272.22 176.41 271.505 181.61C270.79 186.81 279.24 187.72 285.415 185.705C291.785 183.625 292.37 177.71 284.505 175.5Z" fill="#F982C6"/>
<path d="M290.745 189.995C288.405 190.32 286.715 192.465 287.365 194.415C288.015 196.365 292.175 195.65 293.995 193.31C294.97 192.01 294.58 189.41 290.745 189.995Z" fill="#F982C6"/>
<path d="M167.895 193.635C164.645 196.365 164.06 200.785 166.595 203.19C169.065 205.595 176.54 200.915 178.295 195.195C179.725 190.385 175.11 187.46 167.895 193.635Z" fill="#F982C6"/>
<path d="M183.69 203.515C182.585 204.425 182.39 205.92 183.235 206.765C184.08 207.61 186.615 205.985 187.2 204.035C187.72 202.475 186.16 201.435 183.69 203.515Z" fill="#F982C6"/>
<path d="M184.535 192.66C183.625 193.31 183.365 194.48 183.95 195.195C184.535 195.91 186.68 194.805 187.265 193.31C187.785 192.075 186.615 191.165 184.535 192.66Z" fill="#F982C6"/>
<path d="M169.065 207.675C166.985 209.17 166.465 211.77 167.83 213.33C169.195 214.89 173.875 212.485 175.175 209.17C176.28 206.375 173.68 204.36 169.065 207.675Z" fill="#F982C6"/>
<path d="M331.305 250.64C331.175 250.64 331.045 250.64 330.915 250.64C328.77 250.315 327.73 248.105 325.52 243.49C322.465 237.185 315.575 232.83 298.155 231.66C280.735 230.49 252.33 250.965 221 250.9C220.22 250.9 219.505 250.9 218.725 250.9C218.14 250.9 217.62 250.9 217.035 250.9C216.125 250.9 215.215 250.9 214.24 250.835C213.525 250.835 212.745 250.835 212.03 250.77C211.315 250.77 210.6 250.705 209.885 250.705H209.95C208.52 250.64 207.09 250.575 205.725 250.575C204.295 250.51 202.93 250.445 201.5 250.38C200.135 250.315 198.77 250.25 197.405 250.12C196.755 250.055 196.105 250.055 195.455 249.99C193.115 249.86 190.775 249.665 188.565 249.47C188.045 249.405 187.46 249.405 186.94 249.34C186.225 249.275 185.445 249.21 184.73 249.145C184.015 249.08 183.3 249.015 182.585 248.95C180.115 248.69 177.645 248.43 175.37 248.17C175.045 248.105 174.72 248.105 174.395 248.04C171.73 247.715 169.26 247.39 166.855 247.065C166.335 247 165.815 246.935 165.295 246.87C163.475 246.61 161.655 246.35 159.965 246.09C159.705 246.025 159.445 246.025 159.185 245.96C158.145 245.765 157.105 245.635 156.065 245.44C155.675 245.375 155.285 245.31 154.895 245.245C154.57 245.18 154.18 245.115 153.855 245.05C143.065 243.165 136.76 241.54 136.76 241.54C136.76 241.54 114.985 238.615 101.27 239.395C91.5848 239.98 81.7698 241.8 76.3098 239.655C80.9248 237.64 91.6498 235.235 106.535 234.91C124.28 234.52 154.505 241.93 182.78 244.27C211.055 246.61 235.04 247.585 264.095 237.055C293.15 226.525 305.24 226.72 318.11 232.765C330.98 238.745 331.305 250.64 331.305 250.64Z" fill="#FFBDE6"/>
<path d="M179.465 269.165C158.405 285.74 126.23 281.06 124.475 274.43C122.98 268.71 125.775 270.4 138.775 263.9C140.92 262.86 143.26 261.56 145.925 260C165.035 248.885 153.92 227.63 169.13 221C178.295 216.97 185.445 216.905 190.385 219.96C193.635 221.975 195.91 225.355 197.275 229.97C200.005 239.785 200.525 252.59 179.465 269.165Z" fill="#FF97C9"/>
<path d="M179.465 269.165C158.405 285.74 126.23 281.06 124.475 274.43C122.98 268.71 149.24 287.04 180.375 258.895C193.31 247.26 191.685 226.46 190.32 219.96C193.57 221.975 195.845 225.355 197.21 229.97C200.005 239.785 200.525 252.59 179.465 269.165Z" fill="#F982C6"/>
<path d="M144.3 281.58C130.65 281.58 124.085 275.535 123.76 275.21C123.695 275.145 123.695 275.145 123.63 275.08C123.435 274.82 121.94 272.74 122.525 270.66C122.72 269.88 123.37 268.84 124.995 268.255C125.45 268.06 126.23 267.865 127.27 267.605C132.21 266.37 143.845 263.51 150.54 254.67C155.87 247.585 156.91 242.45 157.95 237.445C158.47 234.845 158.99 232.44 160.03 229.905C163.15 222.365 168.025 219.96 168.22 219.83C168.74 219.57 169.325 219.765 169.585 220.285C169.845 220.805 169.65 221.39 169.13 221.65C169.065 221.65 164.775 223.925 161.915 230.685C160.94 233.025 160.485 235.365 159.965 237.835C158.925 242.775 157.82 248.43 152.165 255.905C145.015 265.395 132.925 268.32 127.79 269.62C126.815 269.88 126.1 270.01 125.71 270.205C124.67 270.595 124.54 271.115 124.475 271.31C124.215 272.155 124.865 273.39 125.19 273.845C126.165 274.69 138.58 284.83 163.995 275.925C195.715 264.745 197.535 240.565 197.6 237.835C197.925 228.865 192.465 221.325 187.2 219.96C186.68 219.83 186.355 219.245 186.485 218.725C186.615 218.205 187.2 217.88 187.72 218.01C193.7 219.57 200.005 227.695 199.615 237.965C199.485 240.825 197.665 266.305 164.645 277.875C156.65 280.54 149.89 281.58 144.3 281.58Z" fill="#F774B9"/>
<path d="M78.26 248.105C71.24 248.885 62.075 257.27 68.51 266.63C74.945 275.99 96.395 278.33 105.17 277.355C113.945 276.38 117.26 274.04 118.625 269.75C119.99 265.46 111.28 266.11 100.1 256.88C90.935 249.275 84.63 247.39 78.26 248.105Z" fill="#FF97C9"/>
<path d="M75.335 259.935C78.585 263.64 91.065 270.595 101.66 271.505C116.415 272.805 120.055 270.205 107.64 266.045C95.225 261.885 91.78 260.39 85.735 255.71C78 249.73 69.81 253.565 75.335 259.935Z" fill="#F982C6"/>
<path d="M99.7749 278.46C90.2199 278.46 77.4149 276.185 69.6149 269.035C66.4299 266.11 64.9349 262.99 65.1949 259.675C65.7149 253.5 72.2149 249.145 72.5399 248.95C72.9949 248.625 73.6449 248.755 73.9699 249.21C74.2949 249.665 74.1649 250.315 73.7099 250.64C73.6449 250.705 67.7299 254.605 67.2749 259.87C67.0799 262.535 68.3149 265.07 71.0449 267.54C81.2499 276.835 100.425 277.42 108.42 275.665C113.88 274.495 116.74 272.155 117.585 270.465C117.975 269.685 118.04 268.97 117.715 268.32C116.805 266.305 113.36 265.785 112.125 265.72C111.54 265.72 111.15 265.2 111.15 264.68C111.15 264.095 111.605 263.64 112.19 263.705C112.45 263.705 117.975 263.965 119.6 267.54C120.12 268.775 120.055 270.075 119.405 271.44C117.975 274.235 114.075 276.575 108.875 277.745C106.47 278.135 103.35 278.46 99.7749 278.46Z" fill="#F774B9"/>
<path d="M296.92 224.25C296.79 228.605 296.14 230.685 295.815 231.53C295.1 231.53 294.32 231.595 293.605 231.725C293.475 231.335 293.475 230.88 293.67 230.49C293.735 230.425 294.45 228.8 294.58 224.185C294.71 221.13 294.385 219.115 294.255 218.53C295.035 218.53 295.815 218.53 296.66 218.53C296.855 219.57 297.05 221.52 296.92 224.25Z" fill="#F982C6"/>
<path d="M317.46 223.21C317.46 224.185 317.33 226.005 316.875 228.41C316.095 232.05 315.185 233.805 314.73 234.52C314.015 234.26 313.235 234 312.39 233.74C312.39 233.61 312.52 233.415 312.65 233.22C312.715 233.155 313.82 231.335 314.6 227.565C315.25 224.51 315.12 222.625 315.12 222.56C315.12 222.365 315.12 222.17 315.185 221.975C315.965 222.43 316.745 222.82 317.46 223.21Z" fill="#F982C6"/>
<path d="M221.65 241.475C221.585 245.83 221.26 249.47 221.065 250.835H221C220.22 250.835 219.505 250.835 218.725 250.835C218.79 250.12 219.245 246.09 219.31 241.41C219.375 236.405 218.725 233.415 218.66 233.415C218.595 233.22 218.595 233.025 218.595 232.83C219.375 232.765 220.155 232.7 220.935 232.635C221.13 233.285 221.715 236.47 221.65 241.475Z" fill="#F982C6"/>
<path d="M240.695 239.07C240.63 244.01 240.305 246.935 239.98 248.625C239.135 248.82 238.29 249.015 237.445 249.145V249.08C237.445 249.015 238.225 246.48 238.355 239.07C238.42 234.325 238.095 231.27 237.965 230.23C238.745 230.1 239.525 229.905 240.305 229.775C240.435 231.01 240.76 234.195 240.695 239.07Z" fill="#F982C6"/>
<path d="M203.775 242.125C203.71 245.57 203.515 248.625 203.32 250.38C202.735 250.38 202.085 250.315 201.5 250.315C201.305 250.315 201.175 250.315 200.98 250.315C201.175 248.625 201.37 245.57 201.435 242.125C201.5 237.12 200.785 234.13 200.785 234.13C200.72 233.935 200.72 233.74 200.72 233.545C201.5 233.545 202.28 233.545 203.06 233.545C203.32 234.455 203.84 237.51 203.775 242.125Z" fill="#F982C6"/>
<path d="M133.835 234.65C133.835 237.12 133.705 239.33 133.575 241.085C132.86 241.02 132.08 240.89 131.235 240.825C131.365 239.135 131.495 236.99 131.495 234.65C131.56 231.01 131.17 228.475 130.975 227.305C131.755 227.435 132.6 227.63 133.445 227.76C133.705 229.32 133.9 231.66 133.835 234.65Z" fill="#F982C6"/>
<path d="M154.505 236.665C154.44 240.565 154.245 243.23 153.985 244.985C153.92 244.985 153.855 244.985 153.79 244.985C153.075 244.855 152.36 244.725 151.645 244.595C151.84 243.035 152.1 240.5 152.165 236.665C152.165 234.195 152.1 232.245 152.035 230.75C152.815 230.815 153.595 230.945 154.375 231.01C154.505 232.44 154.505 234.39 154.505 236.665Z" fill="#F982C6"/>
<path d="M116.545 231.985C116.48 234.975 116.35 237.64 116.155 239.46C115.375 239.395 114.595 239.395 113.815 239.33C113.945 237.575 114.14 234.91 114.205 231.92C114.27 228.605 113.945 226.135 113.75 224.835C114.53 224.9 115.31 224.965 116.155 225.03C116.35 226.655 116.545 228.995 116.545 231.985Z" fill="#FF97C9"/>
<path d="M310.115 257.595C309.985 261.43 297.96 265.2 283.335 261.235C268.71 257.27 251.875 249.21 239.005 223.795C232.895 211.705 234.325 203.06 238.81 197.405C243.75 191.165 252.525 188.695 258.895 189.54C269.555 191.035 275.6 194.805 279.11 201.695C282.62 208.585 280.15 219.375 287.04 230.945C292.825 240.695 305.305 250.185 309.075 255.19C309.79 256.23 310.18 257.01 310.115 257.595Z" fill="#FF97C9"/>
<path d="M310.115 257.595C309.985 261.43 297.96 265.2 283.335 261.235C268.71 257.27 251.875 249.21 239.005 223.795C232.895 211.705 234.325 203.06 238.81 197.405C239.85 205.27 244.855 228.085 267.8 243.425C290.55 258.57 304.46 258.505 309.075 255.255C309.79 256.23 310.18 257.01 310.115 257.595Z" fill="#F982C6"/>
<path d="M296.335 262.99C290.03 262.99 280.735 261.365 268.45 255.06C251.355 246.285 240.89 233.415 237.38 216.905C233.09 197.015 245.57 190.58 245.7 190.515C246.22 190.255 246.805 190.45 247.065 190.97C247.325 191.49 247.13 192.075 246.61 192.335C246.155 192.595 235.43 198.185 239.395 216.515C242.84 232.44 252.915 244.79 269.425 253.305C290.03 263.9 301.73 260.91 304.785 259.74C306.995 258.895 307.905 257.92 308.035 257.53C308.23 257.01 308.815 256.75 309.335 256.945C309.855 257.14 310.115 257.725 309.92 258.245C309.465 259.48 307.84 260.715 305.5 261.56C304.07 262.08 301.015 262.99 296.335 262.99Z" fill="#F774B9"/>
<path d="M147.745 264.42C145.99 266.045 143.715 267.475 140.855 268.58C125.06 274.56 101.335 269.165 88.0101 262.6C78.2601 257.79 72.9301 252.265 71.3701 244.335C70.7851 241.41 70.7201 238.225 71.1751 234.585C72.8001 221.065 81.5101 218.14 90.4801 217.88C98.9951 217.685 104.065 223.73 104.845 224.705C104.845 224.705 100.815 226.525 102.31 230.62C103.805 234.715 112.45 231.01 119.34 229.645C126.23 228.345 137.8 229.06 146.12 237.835C152.945 245.05 155.675 257.075 147.745 264.42Z" fill="#FF97C9"/>
<path d="M147.745 264.42C145.99 266.045 143.715 267.475 140.855 268.58C132.6 271.7 122.135 271.765 112.19 270.075C111.085 269.88 110.045 269.685 108.94 269.49C103.155 268.32 97.6951 266.63 92.9501 264.745C91.7151 264.29 90.6101 263.77 89.5051 263.25C88.9851 262.99 88.5301 262.795 88.0751 262.535C78.3251 257.725 72.9951 252.2 71.4351 244.27C74.4901 247 79.7551 250.77 88.7901 254.605C89.5051 254.93 90.2851 255.255 91.0651 255.515C94.4451 256.88 98.2801 258.245 102.635 259.545C104.13 260 105.625 260.39 107.055 260.78C107.835 260.975 108.615 261.17 109.395 261.365C124.8 265.135 138.19 265.2 147.745 264.42Z" fill="#FFCAE8"/>
<path d="M112.19 270.075C111.085 269.88 110.045 269.685 108.94 269.49C108.42 268.515 107.9 267.215 107.51 265.59C107.055 263.575 106.925 261.95 106.99 260.845C107.77 261.04 108.55 261.235 109.33 261.43C109.33 262.21 109.46 263.315 109.72 264.615C110.37 267.475 111.735 269.165 111.8 269.165C112.06 269.425 112.19 269.75 112.19 270.075Z" fill="#FF97C9"/>
<path d="M92.95 264.745C91.715 264.29 90.61 263.77 89.505 263.25C89.115 262.21 88.79 260.845 88.66 259.155C88.53 257.205 88.595 255.775 88.725 254.605C89.44 254.93 90.22 255.255 91 255.515C90.935 256.36 90.87 257.4 91 258.83C91.26 262.6 92.755 264.355 92.755 264.355C92.885 264.55 92.95 264.68 92.95 264.745Z" fill="#FF97C9"/>
<path d="M84.0451 227.045C81.6401 228.28 78.9101 231.92 78.6501 234.39C78.3251 236.795 78.9751 238.225 82.1601 237.965C85.4101 237.77 88.0101 232.57 88.0101 229.775C88.0101 226.98 86.4501 225.81 84.0451 227.045Z" fill="#F982C6"/>
<path d="M86.7101 239.33C85.4101 239.915 83.9151 241.735 83.7201 242.97C83.5901 244.14 83.8501 244.855 85.6701 244.725C87.4251 244.595 88.9201 242.06 88.9201 240.695C88.9201 239.33 88.0751 238.745 86.7101 239.33Z" fill="#F982C6"/>
<path d="M98.1502 241.345C97.2402 241.8 96.2002 243.165 96.0702 244.075C95.9402 244.985 96.2002 245.505 97.4352 245.44C98.6702 245.375 99.6452 243.425 99.6452 242.385C99.6452 241.345 99.0602 240.89 98.1502 241.345Z" fill="#F982C6"/>
<path d="M142.09 235.56C141.83 235.56 141.57 235.43 141.375 235.235C141.375 235.235 137.67 231.725 127.855 230.555C123.955 230.1 119.145 231.14 114.855 232.05C109.395 233.22 104.715 234.26 102.31 232.31C101.27 231.53 100.75 230.23 100.75 228.605C100.75 227.37 101.205 226.33 102.115 225.485C105.105 222.69 112.255 223.275 113.035 223.405C113.62 223.47 114.01 223.925 113.945 224.51C113.88 225.095 113.425 225.485 112.84 225.42C110.89 225.225 105.43 225.16 103.48 226.98C102.96 227.435 102.765 227.955 102.765 228.605C102.765 229.645 103.025 230.295 103.545 230.75C105.235 232.115 109.72 231.14 114.4 230.1C118.82 229.125 123.89 228.02 128.115 228.54C138.71 229.84 142.675 233.675 142.805 233.805C143.195 234.195 143.195 234.845 142.805 235.235C142.61 235.43 142.35 235.56 142.09 235.56Z" fill="#F774B9"/>
<path d="M138.71 258.765C131.95 258.765 126.815 256.62 126.555 256.49C125.97 256.23 125.71 255.58 125.97 255.06C126.23 254.475 126.88 254.215 127.4 254.475C127.465 254.475 134.42 257.335 142.35 256.295C148.85 255.45 150.215 253.37 150.28 253.305C150.54 252.785 151.255 252.59 151.775 252.85C152.295 253.11 152.49 253.825 152.23 254.345C152.035 254.67 150.345 257.4 142.675 258.44C141.31 258.7 139.945 258.765 138.71 258.765Z" fill="#1C3177"/>
<path d="M132.34 246.35C129.09 246.35 127.465 244.14 127.01 242.84C126.815 242.255 127.14 241.54 127.725 241.345C128.31 241.15 129.025 241.475 129.22 242.06C129.285 242.32 130.13 244.27 132.86 243.945C135.395 243.685 135.59 242.06 135.59 241.735C135.59 241.085 136.11 240.565 136.76 240.565C137.41 240.565 137.93 241.085 137.93 241.735C137.93 243.1 136.89 245.895 133.055 246.285C132.86 246.285 132.6 246.35 132.34 246.35Z" fill="#1C3177"/>
<path d="M146.315 246.09C146.12 246.09 145.86 246.09 145.665 246.025C142.415 245.57 141.765 242.645 141.7 242.515C141.57 241.865 141.96 241.28 142.61 241.15C143.26 241.02 143.845 241.41 143.975 242.06C144.04 242.19 144.365 243.555 145.99 243.75C146.315 243.815 146.77 243.815 147.03 243.62C147.29 243.425 147.355 243.035 147.355 242.97C147.42 242.32 148.005 241.865 148.655 241.93C149.305 241.995 149.76 242.58 149.695 243.165C149.695 243.295 149.565 244.53 148.525 245.375C148.005 245.7 147.355 246.09 146.315 246.09Z" fill="#1C3177"/>
<path d="M159.055 221.78C158.86 223.08 158.535 224.51 158.015 226.005C156.065 231.725 151.775 237.64 146.965 237.445C143.39 237.25 138.255 230.035 136.955 222.04V221.975C135.59 213.98 137.28 205.075 147.615 205.075C157.885 205.01 159.965 215.345 159.055 221.78Z" fill="#99ADF9"/>
<path d="M158.015 225.94C156.065 231.66 151.775 237.575 146.965 237.38C143.39 237.185 138.255 229.97 136.955 221.975V221.91C138.385 224.185 140.725 226.525 144.3 228.215C150.02 231.01 155.025 228.41 158.015 225.94Z" fill="#7C99F2"/>
<path d="M146.575 206.57C144.43 204.62 140.27 207.025 138.45 211.315C136.565 215.605 137.085 219.635 139.165 220.155C141.245 220.675 140.27 215.93 143.26 213.2C146.185 210.405 148.33 208.13 146.575 206.57Z" fill="#C7D4FF"/>
<path d="M110.89 194.74C112.613 194.74 114.01 193.343 114.01 191.62C114.01 189.897 112.613 188.5 110.89 188.5C109.167 188.5 107.77 189.897 107.77 191.62C107.77 193.343 109.167 194.74 110.89 194.74Z" fill="#D2E9FF"/>
<path d="M105.95 182.845C106.955 182.845 107.77 182.03 107.77 181.025C107.77 180.02 106.955 179.205 105.95 179.205C104.945 179.205 104.13 180.02 104.13 181.025C104.13 182.03 104.945 182.845 105.95 182.845Z" fill="#D2E9FF"/>
<path d="M59.345 170.43C57.59 171.73 59.605 173.68 59.475 174.135C59.345 174.59 54.99 174.265 52.715 175.24C50.375 176.215 51.48 178.88 55.12 179.205C58.76 179.53 68.64 180.245 71.045 178.555C73.45 176.865 71.89 175.37 70.59 174.785C69.29 174.2 66.69 174.265 66.95 173.42C67.21 172.575 70.46 172.64 69.42 170.885C68.77 169.715 62.01 168.545 59.345 170.43Z" fill="#D2E9FF"/>
<path d="M126.36 149.695C127.595 153.4 120.51 152.75 120.9 153.855C121.68 155.935 125.125 154.115 125.255 157.69C125.385 161.265 121.745 161.005 112.645 161.395C108.42 161.59 104.065 160.29 104.325 157.365C104.585 154.44 111.345 155.48 110.5 153.92C109.655 152.36 109.2 151.255 110.565 149.565C111.93 147.875 115.31 147.81 119.47 148.07C123.565 148.33 125.97 148.655 126.36 149.695Z" fill="#D2E9FF"/>
<path d="M112.385 117.78C101.075 118.3 103.415 117.65 100.49 119.145C97.5649 120.64 101.66 123.175 99.9049 123.955C98.1499 124.735 92.2999 125.84 92.5599 127.465C93.2749 132.405 117.455 132.275 118.495 127.985C119.145 125.255 114.79 125.58 115.245 124.475C115.7 123.37 123.5 124.085 124.54 120.835C125.58 117.585 117.845 117.52 112.385 117.78Z" fill="#D2E9FF"/>
<path d="M99.2549 189.735C96.6549 194.22 89.8299 200.005 87.1649 196.885C87.0999 196.755 86.9699 196.69 86.9049 196.56C84.9549 193.765 86.3849 188.37 86.8399 186.81C86.9049 186.615 86.9699 186.485 86.9699 186.42C86.7749 186.81 84.8899 190.645 83.8499 191.62C82.4199 192.92 79.6899 193.245 78.7799 191.1C78.6499 190.71 78.5199 190.32 78.5199 189.8C78.3899 187.2 80.2099 184.73 83.6549 181.415C87.0999 178.1 92.0399 175.305 93.7299 179.79C95.2899 184.21 91.9749 190.905 91.7799 191.295C91.9749 190.97 95.0949 186.03 96.7199 185.25C97.5649 184.86 98.7349 184.86 99.5149 185.445C100.36 185.965 100.685 187.33 99.2549 189.735Z" fill="#1C3177"/>
<path d="M86.905 186.81C86.97 186.55 87.035 186.355 87.035 186.355C87.035 186.355 85.02 190.58 83.915 191.555C82.485 192.855 79.755 193.18 78.845 191.035C79.69 191.23 80.86 191.165 82.03 190.125C84.175 188.305 88.4 182 88.4 182C88.4 182 87.75 184.405 86.905 186.81Z" fill="#0C215B"/>
<path d="M99.255 189.735C96.655 194.22 89.83 200.005 87.165 196.885C87.1 196.755 86.97 196.69 86.905 196.56C87.49 196.56 88.985 196.495 91.195 195.39C94.185 193.96 96.72 189.93 98.28 187.655C98.865 186.81 99.255 186.03 99.45 185.315C100.36 185.965 100.685 187.33 99.255 189.735Z" fill="#0C215B"/>
<path d="M96.135 167.115C93.34 169.65 86.97 171.015 83.655 170.755C80.99 170.495 78.715 169.065 79.17 166.595C79.3 166.01 79.495 165.36 79.95 164.71C82.16 161.135 87.685 157.495 87.685 157.495L87.23 157.69C85.93 158.145 82.225 159.38 79.755 158.795C77.87 158.34 76.635 156.78 76.83 155.025C76.96 154.05 77.545 153.01 78.845 152.165C83.85 148.915 91.26 147.875 94.315 148.265C97.37 148.655 98.605 150.67 97.825 154.05C97.045 157.3 90.935 162.11 90.545 162.435C90.87 162.37 95.615 160.94 96.85 161.915C97.305 162.305 97.76 162.825 97.89 163.41C98.15 164.385 97.825 165.555 96.135 167.115Z" fill="#1C3177"/>
<path d="M90.805 154.635L87.685 157.56L87.23 157.755C85.93 158.21 82.225 159.445 79.755 158.86C77.87 158.405 76.635 156.845 76.83 155.09C77.285 155.675 78.585 156.65 81.705 156.325C85.93 155.805 90.805 154.635 90.805 154.635Z" fill="#0C215B"/>
<path d="M96.1351 167.115C93.3401 169.65 86.9701 171.015 83.6551 170.755C80.9901 170.495 78.7151 169.065 79.1701 166.595C80.0151 167.31 81.9001 168.22 85.8001 167.895C91.8451 167.31 96.7851 164.385 97.9551 163.475C98.1501 164.385 97.8251 165.555 96.1351 167.115Z" fill="#0C215B"/>
<path d="M82.4201 137.02C78.1301 140.92 70.4601 145.925 67.6001 146.705C64.8051 147.42 61.4901 147.29 60.9701 142.87V142.805C60.4501 138.32 64.2201 130.78 64.2201 130.78C64.2201 130.78 64.2201 130.78 64.1551 130.845C63.5701 131.43 58.2401 136.37 55.2501 135.07C54.0151 134.55 53.1701 133.835 52.6501 133.055C50.8951 130.455 52.3901 126.75 55.5101 123.825C59.6701 119.99 67.9251 114.985 70.7201 113.945C73.5151 112.905 76.0501 112.97 76.3101 118.885C76.5701 124.215 72.6051 132.015 71.8901 133.38C72.2151 132.86 73.1901 131.43 75.0751 130.065C77.4801 128.44 82.0951 125.32 84.8251 127.595C85.6051 128.245 86.0601 129.09 86.1901 130.065C86.3851 132.015 85.2801 134.485 82.4201 137.02Z" fill="#1C3177"/>
<path d="M66.5601 125.775L64.1551 130.845C63.5701 131.43 58.2401 136.37 55.2501 135.07C54.0151 134.55 53.1701 133.835 52.6501 133.055C53.4951 133.055 54.7301 132.86 56.2901 132.405C59.9951 131.235 66.5601 125.775 66.5601 125.775Z" fill="#0C215B"/>
<path d="M82.4202 137.02C78.1302 140.92 70.4602 145.925 67.6002 146.705C64.8052 147.42 61.4902 147.29 60.9702 142.87C62.1402 143.78 64.2202 144.495 67.8602 143.065C73.6452 140.725 83.4602 133.185 86.1902 130.13C86.3852 132.015 85.2802 134.485 82.4202 137.02Z" fill="#0C215B"/>
</svg>
