<?xml version="1.0" encoding="UTF-8" standalone="no"?>
<svg width="100%" height="100%" viewBox="0 0 2262 1310" version="1.1" xmlns="http://www.w3.org/2000/svg" xmlns:xlink="http://www.w3.org/1999/xlink" xml:space="preserve" style="fill-rule:evenodd;clip-rule:evenodd;stroke-linejoin:round;stroke-miterlimit:2;">
    <defs>
        <radialGradient id="_Radial1" cx="0" cy="0" r="1" gradientUnits="userSpaceOnUse" gradientTransform="matrix(-58.6396,0,0,-58.6396,647.659,235.765)"><stop offset="0" style="stop-color:rgb(252,200,98);stop-opacity:1"/><stop offset="0.04" style="stop-color:rgb(252,200,98);stop-opacity:1"/><stop offset="0.51" style="stop-color:rgb(240,128,34);stop-opacity:1"/><stop offset="1" style="stop-color:rgb(241,128,34);stop-opacity:1"/></radialGradient>
            <radialGradient id="_Radial2" cx="0" cy="0" r="1" gradientUnits="userSpaceOnUse" gradientTransform="matrix(-107.188,0,0,-107.188,644.793,139.355)"><stop offset="0" style="stop-color:rgb(251,180,97);stop-opacity:1"/><stop offset="0.04" style="stop-color:rgb(251,180,97);stop-opacity:1"/><stop offset="0.51" style="stop-color:rgb(240,128,34);stop-opacity:1"/><stop offset="1" style="stop-color:rgb(241,128,34);stop-opacity:1"/></radialGradient>
            <radialGradient id="_Radial3" cx="0" cy="0" r="1" gradientUnits="userSpaceOnUse" gradientTransform="matrix(-107.186,0,0,-107.186,644.898,139.355)"><stop offset="0" style="stop-color:rgb(226,162,87);stop-opacity:1"/><stop offset="0.04" style="stop-color:rgb(226,162,87);stop-opacity:1"/><stop offset="0.51" style="stop-color:rgb(217,116,39);stop-opacity:1"/><stop offset="1" style="stop-color:rgb(218,117,39);stop-opacity:1"/></radialGradient>
            <radialGradient id="_Radial4" cx="0" cy="0" r="1" gradientUnits="userSpaceOnUse" gradientTransform="matrix(-58.6396,0,0,-58.6396,647.659,235.765)"><stop offset="0" style="stop-color:rgb(252,212,133);stop-opacity:1"/><stop offset="0.04" style="stop-color:rgb(252,212,133);stop-opacity:1"/><stop offset="0.51" style="stop-color:rgb(244,157,84);stop-opacity:1"/><stop offset="1" style="stop-color:rgb(245,157,84);stop-opacity:1"/></radialGradient>
            <radialGradient id="_Radial5" cx="0" cy="0" r="1" gradientUnits="userSpaceOnUse" gradientTransform="matrix(-58.6396,0,0,-58.6396,647.659,235.765)"><stop offset="0" style="stop-color:rgb(252,212,133);stop-opacity:1"/><stop offset="0.04" style="stop-color:rgb(252,212,133);stop-opacity:1"/><stop offset="0.51" style="stop-color:rgb(244,157,84);stop-opacity:1"/><stop offset="1" style="stop-color:rgb(245,157,84);stop-opacity:1"/></radialGradient>
            <radialGradient id="_Radial6" cx="0" cy="0" r="1" gradientUnits="userSpaceOnUse" gradientTransform="matrix(-58.6396,0,0,-58.6396,647.659,235.765)"><stop offset="0" style="stop-color:rgb(252,212,133);stop-opacity:1"/><stop offset="0.04" style="stop-color:rgb(252,212,133);stop-opacity:1"/><stop offset="0.51" style="stop-color:rgb(244,157,84);stop-opacity:1"/><stop offset="1" style="stop-color:rgb(245,157,84);stop-opacity:1"/></radialGradient>
            <radialGradient id="_Radial7" cx="0" cy="0" r="1" gradientUnits="userSpaceOnUse" gradientTransform="matrix(-58.6396,0,0,-58.6396,647.659,235.765)"><stop offset="0" style="stop-color:rgb(252,212,133);stop-opacity:1"/><stop offset="0.04" style="stop-color:rgb(252,212,133);stop-opacity:1"/><stop offset="0.51" style="stop-color:rgb(244,157,84);stop-opacity:1"/><stop offset="1" style="stop-color:rgb(245,157,84);stop-opacity:1"/></radialGradient>
            <radialGradient id="_Radial8" cx="0" cy="0" r="1" gradientUnits="userSpaceOnUse" gradientTransform="matrix(-58.6396,0,0,-58.6396,647.659,235.765)"><stop offset="0" style="stop-color:rgb(252,212,133);stop-opacity:1"/><stop offset="0.04" style="stop-color:rgb(252,212,133);stop-opacity:1"/><stop offset="0.51" style="stop-color:rgb(244,157,84);stop-opacity:1"/><stop offset="1" style="stop-color:rgb(245,157,84);stop-opacity:1"/></radialGradient>
            <radialGradient id="_Radial9" cx="0" cy="0" r="1" gradientUnits="userSpaceOnUse" gradientTransform="matrix(-58.6396,0,0,-58.6396,647.659,235.765)"><stop offset="0" style="stop-color:rgb(252,212,133);stop-opacity:1"/><stop offset="0.04" style="stop-color:rgb(252,212,133);stop-opacity:1"/><stop offset="0.51" style="stop-color:rgb(244,157,84);stop-opacity:1"/><stop offset="1" style="stop-color:rgb(245,157,84);stop-opacity:1"/></radialGradient>
    </defs>
    <g transform="matrix(1,0,0,1,-1545.83,-208.715)">
        <g transform="matrix(4.16667,0,0,4.16667,0,0)">
            <path d="M530.407,95.008C526.087,94.805 508.771,88.17 512.426,82.646C516.821,78.812 525.43,88.609 529.393,90.465C523.295,86.983 514.684,71.109 518.621,68.302C525.151,64.907 533.166,87.25 533.486,93.814C530.036,88.912 528.683,79.441 529.925,73.683C531.193,67.77 535.014,64.396 538.308,70.689C541.748,77.266 536.066,92.725 532.202,98.067C531.778,97.608 531.479,97.086 531.166,96.539L530.407,95.008Z" style="fill:rgb(240,128,34);fill-rule:nonzero;"/>
        </g>
        <g transform="matrix(4.16667,0,0,4.16667,0,0)">
            <path d="M752.129,94.017C764.397,92.725 775.429,86.167 773.313,81.483C769.226,74.537 757.168,84.986 752.443,87.024C760.552,80.65 769.35,67.332 764.009,63.651C757.72,61.129 747.599,83.447 747.253,91.089C751.35,85.485 752.912,74.478 751.398,67.724C749.844,60.787 747.749,56.417 743.851,63.651C739.778,71.21 742.3,93.113 748.816,96.089C749.321,95.571 749.675,94.976 750.045,94.341L752.129,94.017Z" style="fill:rgb(240,128,34);fill-rule:nonzero;"/>
        </g>
        <g transform="matrix(4.16667,0,0,4.16667,0,0)">
            <path d="M775.246,102.324C785.746,103.978 832.654,157.446 840.604,167.142C851.375,180.273 864.322,192.374 874.969,205.871C883.527,216.728 889.882,226.009 901.238,234.251C933.4,257.587 870.108,267.616 853.515,264.183C818.507,256.954 787.17,240.949 764.726,212.802C743.821,186.595 710.562,83.563 757.009,93.204L775.246,102.324Z" style="fill:rgb(240,128,34);"/>
        </g>
        <g transform="matrix(4.16667,0,0,4.16667,0,0)">
            <path d="M870.344,204.954C875.905,210.574 867.955,211.639 863.808,210.11C860.15,208.762 857,206.787 853.84,204.512C846.802,199.438 837.412,193.094 833.401,185.149C841.651,200.437 858.428,212.323 870.704,222.771C877.156,228.266 895.332,247.836 904.648,241.112C902.637,235.944 896.696,232.384 892.851,228.67C887.747,223.739 883.183,217.945 877.869,213.293L870.344,204.954Z" style="fill:rgb(220,118,39);"/>
        </g>
        <g transform="matrix(4.16667,0,0,4.16667,0,0)">
            <path d="M739.556,110.945C749.493,103.742 757.633,102.96 771.195,112.455L772.446,115.565C782.677,120.777 796.287,142.713 803.39,153.774C807.9,160.803 812.515,166.868 817.595,173.182C825.882,183.483 833.014,194.202 843.434,202.772C853.315,210.905 862.992,218.723 873.313,226.463C879.701,231.258 897.555,238.097 895.796,246.382C893.32,258.04 874.895,260.837 865.393,261.607C849.962,262.857 834.62,258.468 820.642,252.586C807.72,247.144 796.493,242.704 787.132,232.853C781.7,227.138 776.112,221.671 770.651,216.102C750.929,186.673 734.971,155.515 739.556,110.945Z" style="fill:rgb(247,183,211);"/>
        </g>
        <g transform="matrix(4.16667,0,0,4.16667,0,0)">
            <path d="M746.783,149.593C746.444,145.799 746.144,142.003 745.849,138.207C745.819,137.123 745.795,136.04 745.81,134.957C745.829,133.798 745.66,132.736 745.351,131.765C744.346,118.888 740.89,110.397 738.263,97.765C759.364,97.51 776.979,119.214 787.5,133.777C798.85,149.507 810.788,163.929 822.753,179.155C832.879,192.037 848.619,207.316 861.876,217.07C872.093,224.594 877.409,228.415 887.508,235.188C890.854,237.429 892.543,239.619 896.442,240.632L899.316,240.974C892.245,244.592 877.585,241.166 869.807,240.083C861.515,238.931 854.429,236.58 846.904,232.876C831.185,225.136 816.976,215.143 803.338,203.997C793.051,195.584 783.904,185.222 772.912,177.752C763.984,171.685 755.696,165.978 747.918,158.93C747.561,155.819 747.154,152.707 746.783,149.593Z" style="fill:rgb(245,163,199);"/>
        </g>
        <g transform="matrix(4.16667,0,0,4.16667,0,0)">
            <path d="M900.746,242.612C900.746,242.612 858.458,229.729 807.527,162.085C756.6,94.444 740.827,96.476 740.827,96.476C740.827,96.476 760.443,95.039 788.418,129.68C813.912,161.252 849.54,214.391 900.746,242.612Z" style="fill:rgb(210,114,40);"/>
        </g>
        <g transform="matrix(4.16667,0,0,4.16667,0,0)">
            <path d="M902.64,239.73C889.099,233.328 852.797,189.301 824.585,153.061C796.376,116.821 770.687,97.255 751.943,92.699C751.943,92.699 774.236,85.606 826.15,145.01C849.945,172.235 875.857,215.151 905.754,234.348C926.075,247.392 905.002,268.927 872.227,267.228C870.225,267.125 868.127,266.979 865.95,266.789C873.396,264.445 878.826,262.055 882.781,259.872C907.096,256.709 908.882,242.681 902.64,239.73Z" style="fill:rgb(210,114,40);fill-rule:nonzero;"/>
        </g>
        <g transform="matrix(4.16667,0,0,4.16667,0,0)">
            <path d="M741.404,111.648C741.169,118.449 738.899,224.239 824.666,252.944C845.13,258.507 860.865,260.568 872.781,260.502L860.284,266.203C812.743,260.523 735.537,232.006 741.404,111.648Z" style="fill:rgb(242,126,178);fill-rule:nonzero;"/>
        </g>
        <g transform="matrix(4.16667,0,0,4.16667,0,0)">
            <path d="M741.404,111.648C741.414,111.42 741.419,111.299 741.419,111.299C741.414,111.416 741.409,111.528 741.404,111.648Z" style="fill:rgb(79,51,103);fill-rule:nonzero;"/>
        </g>
        <g transform="matrix(4.16667,0,0,4.16667,0,0)">
            <path d="M882.781,259.872C878.826,262.055 873.396,264.445 865.95,266.789C864.117,266.629 862.225,266.434 860.284,266.203L872.781,260.502C876.468,260.482 879.796,260.26 882.781,259.872Z" style="fill:rgb(230,101,163);fill-rule:nonzero;"/>
        </g>
        <g transform="matrix(4.16667,0,0,4.16667,0,0)">
            <path d="M463.111,162.585C497.614,107.45 541.186,84.508 541.186,84.508L524.018,122.103C501.399,308.902 377.824,256.127 381.077,247.798C383.492,243.36 421.923,228.404 463.111,162.585Z" style="fill:rgb(240,128,34);"/>
        </g>
        <g transform="matrix(4.16667,0,0,4.16667,0,0)">
            <path d="M478.998,168.831C478.998,168.831 445.479,229.168 407.337,236.168C407.337,236.168 396.173,238.25 415.393,221.571L379.088,243.511L376.503,247.431C376.503,247.431 412.824,257.003 444.23,224.068C475.638,191.135 478.998,168.831 478.998,168.831Z" style="fill:rgb(220,118,39);"/>
        </g>
        <g transform="matrix(4.16667,0,0,4.16667,0,0)">
            <path d="M396.004,250.972C401.678,243.49 430.085,254.562 461.99,201.219C493.481,141.002 513.166,103.443 536.57,96.39C542.48,90.388 513.401,242.649 443.659,261.272C388.085,265.248 392.521,255.572 396.004,250.972Z" style="fill:rgb(247,183,211);"/>
        </g>
        <g transform="matrix(4.16667,0,0,4.16667,0,0)">
            <path d="M520.62,149.087C520.62,149.087 499.17,240.684 396.186,248.767C396.186,248.767 437.258,245.869 462.945,201.476C485.214,162.992 501.635,106.072 532.498,97.941L520.62,149.087Z" style="fill:rgb(245,163,199);"/>
        </g>
        <g transform="matrix(4.16667,0,0,4.16667,0,0)">
            <path d="M524.557,99.935C524.557,99.935 506.962,109.775 484.092,156.932C461.459,203.599 436.99,249.446 385.488,248.159C385.488,248.159 436.417,260.765 471.09,190.95C497.873,137.033 522.132,101.334 531.316,97.648L524.557,99.935Z" style="fill:rgb(201,110,40);"/>
        </g>
        <g transform="matrix(4.16667,0,0,4.16667,0,0)">
            <path d="M371.04,247.775C373.865,242.585 421.074,224.691 460.423,159.61C486.331,116.761 517.632,96.171 536.006,87.09C536.008,87.249 536.01,87.408 536.016,87.566C523.506,95.406 490.475,118.856 463.111,162.585C421.923,228.404 383.492,243.36 381.077,247.798C380.389,249.559 385.373,253.308 393.872,256.359C397.284,257.48 395.264,260.541 395.474,262.261C380.908,257.186 370.263,249.2 371.04,247.775Z" style="fill:rgb(201,110,40);fill-rule:nonzero;"/>
        </g>
        <g transform="matrix(4.16667,0,0,4.16667,0,0)">
            <path d="M524.018,122.103L536.544,94.675C537.105,98.553 538.224,102.314 540.395,105.933C507.878,270.715 433.636,274.869 395.14,262.055L394.909,256.721C427.293,267.753 506.374,267.823 524.018,122.103Z" style="fill:rgb(242,126,178);fill-rule:nonzero;"/>
        </g>
        <g transform="matrix(4.16667,0,0,4.16667,0,0)">
            <path d="M654.623,298C654.217,299.217 649.349,339.783 650.565,353.576C650.565,353.576 660.71,356.011 675.311,353.576C689.918,351.142 715.475,359.252 711.824,362.502C708.173,365.745 675.311,365.338 644.077,353.982C644.077,353.982 654.217,332.479 646.511,292.318C646.511,292.318 653.811,287.856 653.811,297.188L654.623,298Z" style="fill:rgb(239,62,103);fill-rule:nonzero;"/>
        </g>
        <g transform="matrix(4.16667,0,0,4.16667,0,0)">
            <path d="M628.271,293.214C628.677,294.431 633.543,335 632.327,348.793C632.327,348.793 622.187,351.224 607.583,348.793C592.977,346.357 567.419,354.471 571.072,357.717C574.721,360.961 607.583,360.555 638.818,349.197C638.818,349.197 628.677,327.695 636.383,287.535C636.383,287.535 629.082,283.072 629.082,292.402L628.271,293.214Z" style="fill:rgb(239,62,103);fill-rule:nonzero;"/>
        </g>
        <g transform="matrix(4.16667,0,0,4.16667,0,0)">
            <path d="M676.725,202.301C675.756,215.057 636.264,221.127 623.03,214.315C616.344,210.874 608.22,206.911 604.343,198.411C601.976,193.213 601.4,187.334 604.742,182.552C608.368,177.368 613.8,176.823 619.08,176.011C626.154,174.921 634.824,172.424 641.798,174.892C646.437,176.536 651.211,180.221 655.627,182.686L676.725,202.301Z" style="fill:rgb(225,164,55);fill-rule:nonzero;"/>
        </g>
        <g transform="matrix(4.16667,0,0,4.16667,0,0)">
            <path d="M673.773,195.103C673.773,195.103 736.937,213.207 740.336,283.694C740.337,283.694 733.877,293.574 730.651,280.502C730.651,280.502 727.821,227.279 676.245,201.226C676.245,201.226 669.638,197.175 673.773,195.103Z" style="fill:rgb(239,62,103);fill-rule:nonzero;"/>
        </g>
        <g transform="matrix(4.16667,0,0,4.16667,0,0)">
            <path d="M755.375,288.033C752.414,282.221 740.263,280.477 740.263,280.477C740.263,280.477 737.289,281.891 736.087,282.068C735.145,280.814 727.7,279.535 726.649,278.872C725.335,278.04 723.614,277.42 722.092,277.121C719.59,276.621 714.266,277.788 714.783,282.128C715.331,286.73 719.909,284.612 722.142,283.838C724.04,283.181 725.86,283.418 727.471,284.241C728.453,285.649 729.18,286.66 729.133,289.072C729.119,289.854 728.978,290.78 728.725,291.658C723.138,296.155 722.709,300.695 723.56,303.145C724.059,304.59 727.967,307.728 730.646,299.731C733.33,291.732 736.585,291.97 736.585,291.97C734.485,296.758 732.044,305.974 739.468,306.327C745.402,306.612 740.662,292.408 740.662,292.408C744.684,300.193 748.787,305.424 751.796,301.554C756.218,295.863 745.632,291.613 745.632,289.625C745.632,287.635 758.336,293.844 755.375,288.033Z" style="fill:rgb(239,62,103);fill-rule:nonzero;"/>
        </g>
        <g transform="matrix(4.16667,0,0,4.16667,0,0)">
            <path d="M641.568,275.276C641.442,275.276 641.318,275.259 641.194,275.223C640.093,274.891 639.523,273.189 639.929,271.418C640.287,269.847 641.287,268.744 642.28,268.744C642.411,268.744 642.541,268.763 642.669,268.802C643.776,269.121 644.345,270.824 643.937,272.599C643.576,274.172 642.568,275.276 641.568,275.276ZM673.114,275.932C670.611,275.932 668.419,273.096 668.12,269.314C667.795,265.288 669.72,261.709 672.421,261.323C672.582,261.3 672.741,261.289 672.899,261.289C675.411,261.289 677.602,264.124 677.905,267.914C678.232,271.938 676.301,275.51 673.597,275.897C673.435,275.92 673.274,275.932 673.114,275.932ZM650.836,263.338C649.153,263.338 647.67,261.294 647.448,258.581C647.217,255.701 648.493,253.16 650.293,252.906C650.394,252.891 650.495,252.883 650.595,252.883C652.276,252.883 653.756,254.929 653.978,257.644C654.207,260.52 652.934,263.057 651.134,263.317C651.035,263.331 650.935,263.338 650.836,263.338ZM633.914,257.6C632.231,257.6 630.748,255.557 630.526,252.842C630.291,249.966 631.571,247.419 633.371,247.166C633.471,247.151 633.571,247.144 633.67,247.144C635.35,247.144 636.833,249.189 637.055,251.903C637.286,254.783 636.012,257.32 634.211,257.579C634.112,257.593 634.012,257.6 633.914,257.6ZM654.873,251.606C653.729,251.606 652.785,250.793 652.685,249.665C652.587,248.421 653.562,247.262 654.859,247.074C654.978,247.057 655.096,247.048 655.211,247.048C656.359,247.048 657.305,247.858 657.396,248.993C657.496,250.239 656.527,251.393 655.226,251.581C655.107,251.598 654.989,251.606 654.873,251.606ZM664.991,249.717C662.771,249.717 660.84,247.296 660.582,244.062C660.296,240.614 662.026,237.534 664.425,237.192C664.574,237.17 664.72,237.16 664.867,237.16C667.087,237.16 669.02,239.576 669.277,242.812C669.557,246.267 667.835,249.345 665.432,249.685C665.284,249.707 665.136,249.717 664.991,249.717ZM608.851,201.463C608.431,202.176 608.02,202.885 607.615,203.594C599.959,216.997 594.952,229.608 591.85,241.164C589.776,248.888 588.556,256.139 587.965,262.842C585.269,293.502 595.776,312.632 598.319,312.632C602.377,312.632 613.402,303.622 613.402,303.622C613.402,303.622 622.66,311.821 628.336,315.066C629.121,315.514 630.041,315.707 631.045,315.707C637.314,315.707 646.836,308.182 646.836,308.182C646.837,308.182 659.168,312.632 663.227,315.066C663.572,315.272 663.953,315.367 664.362,315.367C668.777,315.367 676.473,304.38 676.473,304.38C679.661,307.887 682.553,308.905 684.838,308.905C688.002,308.905 690.002,306.953 690.002,306.953C692.941,293.814 694.011,281.771 693.82,270.864C693.587,257.51 691.446,245.881 688.475,236.037C684.545,223.027 679.159,213.155 674.783,206.642C674.228,205.816 673.689,205.043 673.171,204.326C651.838,204.263 629.545,203.163 608.851,201.463Z" style="fill:url(#_Radial1);"/>
        </g>
        <g transform="matrix(4.16667,0,0,4.16667,0,0)">
            <path d="M609.584,189.767C609.584,189.767 551.33,209.807 548.177,278.791C548.177,278.791 557.183,283.679 556.881,273.349C556.881,273.349 559.502,221.258 607.293,195.762C607.293,195.762 613.417,191.796 609.584,189.767Z" style="fill:rgb(239,62,103);fill-rule:nonzero;"/>
        </g>
        <g transform="matrix(4.16667,0,0,4.16667,0,0)">
            <path d="M531.554,281.96C534.62,275.944 547.199,274.138 547.199,274.138C547.199,274.138 550.279,275.602 551.522,275.785C552.499,274.487 560.206,273.163 561.293,272.476C562.652,271.615 564.436,270.974 566.011,270.663C568.6,270.146 574.113,271.353 573.578,275.847C573.011,280.611 568.272,278.418 565.96,277.618C563.996,276.937 562.11,277.183 560.443,278.036C559.427,279.493 558.672,280.539 558.721,283.036C558.736,283.845 558.881,284.804 559.144,285.712C564.926,290.369 565.374,295.07 564.491,297.606C563.974,299.101 559.929,302.35 557.156,294.071C554.377,285.79 551.005,286.037 551.005,286.037C553.18,290.993 555.709,300.534 548.023,300.9C541.879,301.194 546.787,286.49 546.787,286.49C542.623,294.549 538.376,299.965 535.259,295.959C530.682,290.066 541.641,285.666 541.641,283.608C541.641,281.549 528.488,287.977 531.554,281.96Z" style="fill:rgb(239,62,103);fill-rule:nonzero;"/>
        </g>
        <g transform="matrix(4.16667,0,0,4.16667,0,0)">
            <path d="M777.17,145.783C777.17,145.783 781.513,162.054 773.904,162.486C766.297,162.915 762.522,152.148 762.522,152.148C762.522,152.148 768.884,160.363 773.103,159.648C778.141,158.788 777.17,145.783 777.17,145.783Z" style="fill:rgb(113,139,165);fill-rule:nonzero;"/>
        </g>
        <g transform="matrix(4.16667,0,0,4.16667,0,0)">
            <path d="M540.936,164.952C535.159,164.952 535.235,156.937 538.601,151.323L538.66,151.312C539.471,152.078 540.406,152.761 541.415,153.283L541.649,153.419C542.391,155.914 546.004,158.565 550.827,161.082C548.78,161.428 547.949,162.737 544.807,164.043C543.301,164.672 542.016,164.952 540.936,164.952ZM663.556,170.002C744.433,170.002 751.511,137.742 750.557,121.91C750.663,121.93 750.763,121.962 750.869,121.974L750.932,121.98C752.137,129.95 751.513,136.891 749.37,142.913C749.621,142.695 749.865,142.565 750.102,142.546C750.284,142.532 750.464,142.525 750.644,142.525C753.825,142.525 756.779,144.708 757.779,146.891C758.78,149.073 757.827,151.256 753.189,151.256C751.793,151.256 750.059,151.058 747.946,150.601C746.301,153.285 741.54,157.844 740.796,160.632C743.017,165.863 747.216,174.44 744.018,177.601C743.137,178.415 742.027,178.764 740.772,178.764C735.924,178.764 728.95,173.55 724.971,169.867C722.249,170.781 719.871,171.521 717.137,172.84C712.513,175.081 712.418,173.646 711.882,178.648C711.252,184.518 708.543,188.696 705.524,188.696C703.077,188.696 700.425,185.947 698.516,179.119C698.254,178.183 697.501,177.735 697.042,177.302C706.042,175.577 714.785,172.96 722.934,169.118C730.673,165.47 738.863,160.562 743.878,153.405C744.169,152.989 744.506,152.324 744.876,151.522C731.099,170.876 697.734,177.715 661.774,177.715C634.891,177.715 606.561,173.895 583.865,168.627C538.891,158.186 532.318,146.558 531.801,138.082L531.801,137.306C532.967,147.681 545.973,162.837 638.974,169.123C647.84,169.722 656.023,170.002 663.556,170.002ZM647.789,74.422C638.512,74.422 634.854,77.794 634.854,77.794L634.793,79.357C618.02,77.823 603.708,77.171 591.504,77.17C521.796,77.169 520.718,98.459 520.718,98.459C520.718,98.459 510.952,126.152 508.151,144.41C508.151,144.41 506.236,162.361 513.057,175.87C514.372,178.474 516.01,180.911 518.049,183.025C520.163,185.214 522.706,187.055 525.763,188.368C536.045,192.782 568.045,197.978 605.869,201.213C606.855,201.297 607.857,201.381 608.851,201.463C629.545,203.163 651.838,204.263 673.171,204.326C673.808,204.328 674.435,204.329 675.071,204.329C675.457,204.329 675.848,204.328 676.234,204.328C707.311,204.272 736.071,201.948 754.554,195.978C754.687,195.936 754.823,195.891 754.955,195.848C756.374,195.382 757.733,194.893 759.025,194.382C764.927,192.049 769.456,189.246 772.261,185.911C773.783,184.103 775.086,182.155 776.196,180.105C787.248,159.682 779.127,128.846 776.283,119.607C776.023,118.762 775.807,118.099 775.655,117.64C775.494,117.156 775.402,116.9 775.402,116.9C775.402,116.9 768.077,105.419 754.061,92.729C752.107,90.96 750.022,89.166 747.809,87.377C738.994,80.252 723.383,78.292 708.882,78.292C691.169,78.292 675.111,81.215 675.111,81.215C662.998,75.981 654.095,74.422 647.789,74.422Z" style="fill:url(#_Radial2);"/>
        </g>
        <g transform="matrix(4.16667,0,0,4.16667,0,0)">
            <path d="M659.151,106.311C659.151,106.311 675.733,131.133 708.934,118.546C708.934,118.546 676.676,126.934 665.164,106.369L659.151,106.311Z" style="fill:rgb(178,96,39);fill-rule:nonzero;"/>
        </g>
        <g transform="matrix(4.16667,0,0,4.16667,0,0)">
            <path d="M663.989,111.297C663.989,111.297 685.988,131.48 715.256,111.377C715.256,111.377 685.912,127.178 669.844,109.932L663.989,111.297Z" style="fill:rgb(178,96,39);fill-rule:nonzero;"/>
        </g>
        <g transform="matrix(4.16667,0,0,4.16667,0,0)">
            <path d="M659.058,71.127C659.058,71.127 649.997,81.486 654.267,96.986C657.977,110.452 673.16,123.87 692.688,118.516C712.216,113.161 709.146,91.194 702.894,81.434C696.644,71.675 674.539,56.608 659.058,71.127Z" style="fill:rgb(178,96,39);fill-rule:nonzero;"/>
        </g>
        <g transform="matrix(4.16667,0,0,4.16667,0,0)">
            <path d="M660.031,70.044C660.031,70.044 651.319,79.681 655.368,94.047C658.885,106.53 673.386,118.936 692.099,113.918C710.812,108.896 707.93,88.523 701.972,79.487C696.013,70.449 674.89,56.531 660.031,70.044Z" style="fill:rgb(196,105,40);fill-rule:nonzero;"/>
        </g>
        <g transform="matrix(4.16667,0,0,4.16667,0,0)">
            <path d="M661.988,70.883C661.988,70.883 652.991,78.438 655.411,91.208C657.51,102.3 669.829,114.296 687.697,111.613C705.565,108.925 704.794,91.079 700.098,82.748C695.41,74.412 677.069,60.525 661.988,70.883Z" style="fill:rgb(254,202,10);fill-rule:nonzero;"/>
        </g>
        <g transform="matrix(4.16667,0,0,4.16667,0,0)">
            <path d="M662.462,73.725C662.462,73.725 655.368,80.646 658.252,91.171C660.757,100.315 671.943,109.532 686.848,106.098C701.752,102.664 699.919,87.78 695.41,81.118C690.896,74.46 674.507,64.053 662.462,73.725Z" style="fill:rgb(253,221,95);fill-rule:nonzero;"/>
        </g>
        <g transform="matrix(4.16667,0,0,4.16667,0,0)">
            <path d="M631.316,109.23C631.316,109.23 614.616,133.977 581.473,121.23C581.473,121.23 613.691,129.771 625.304,109.264L631.316,109.23Z" style="fill:rgb(178,96,39);fill-rule:nonzero;"/>
        </g>
        <g transform="matrix(4.16667,0,0,4.16667,0,0)">
            <path d="M626.454,114.196C626.454,114.196 604.36,134.273 575.186,114.028C575.186,114.028 604.46,129.97 620.607,112.802L626.454,114.196Z" style="fill:rgb(178,96,39);fill-rule:nonzero;"/>
        </g>
        <g transform="matrix(4.16667,0,0,4.16667,0,0)">
            <path d="M630.969,72.141C630.969,72.141 640.132,83.121 635.993,99.201C632.402,113.176 617.325,126.869 597.736,120.906C578.143,114.944 581.027,92.094 587.193,82.038C593.365,71.982 615.352,56.697 630.969,72.141Z" style="fill:rgb(178,96,39);fill-rule:nonzero;"/>
        </g>
        <g transform="matrix(4.16667,0,0,4.16667,0,0)">
            <path d="M629.91,70.56C629.91,70.56 638.575,80.239 634.456,94.587C630.878,107.055 616.319,119.389 597.629,114.282C578.94,109.168 581.921,88.811 587.919,79.802C593.922,70.793 615.116,56.975 629.91,70.56Z" style="fill:rgb(196,105,40);fill-rule:nonzero;"/>
        </g>
        <g transform="matrix(4.16667,0,0,4.16667,0,0)">
            <path d="M627.946,71.392C627.946,71.392 636.909,78.991 634.429,91.748C632.279,102.831 619.899,114.765 602.043,111.995C584.185,109.225 585.044,91.378 589.778,83.07C594.511,74.761 612.915,60.96 627.946,71.392Z" style="fill:rgb(254,202,10);fill-rule:nonzero;"/>
        </g>
        <g transform="matrix(4.16667,0,0,4.16667,0,0)">
            <path d="M627.459,74.232C627.459,74.232 634.52,81.185 631.585,91.694C629.036,100.83 617.806,109.991 602.918,106.487C588.032,102.981 589.934,88.107 594.478,81.466C599.019,74.826 615.462,64.502 627.459,74.232Z" style="fill:rgb(253,221,95);fill-rule:nonzero;"/>
        </g>
        <g transform="matrix(4.16667,0,0,4.16667,0,0)">
            <path d="M562.216,92.627C563.774,94.369 564.104,96.725 562.949,97.888C561.801,99.053 559.602,98.584 558.049,96.846C556.492,95.104 556.167,92.744 557.317,91.582C558.469,90.418 560.663,90.883 562.216,92.627Z" style="fill:rgb(249,161,90);fill-rule:nonzero;"/>
        </g>
        <g transform="matrix(4.16667,0,0,4.16667,0,0)">
            <path d="M560.036,106.834C561.332,108.289 561.68,110.169 560.819,111.045C559.957,111.918 558.205,111.451 556.907,110C555.609,108.549 555.261,106.662 556.123,105.79C556.984,104.915 558.737,105.384 560.036,106.834Z" style="fill:rgb(249,161,90);fill-rule:nonzero;"/>
        </g>
        <g transform="matrix(4.16667,0,0,4.16667,0,0)">
            <path d="M548.598,110.647C549.896,112.1 550.244,113.985 549.384,114.858C548.519,115.732 546.766,115.264 545.469,113.812C544.171,112.362 543.823,110.472 544.685,109.6C545.546,108.728 547.298,109.198 548.598,110.647Z" style="fill:rgb(249,161,90);fill-rule:nonzero;"/>
        </g>
        <g transform="matrix(4.16667,0,0,4.16667,0,0)">
            <path d="M577.086,102.604C578.903,104.638 579.322,107.343 578.022,108.654C576.733,109.965 574.208,109.377 572.395,107.345C570.58,105.315 570.158,102.604 571.454,101.297C572.75,99.986 575.271,100.571 577.086,102.604Z" style="fill:rgb(249,161,90);fill-rule:nonzero;"/>
        </g>
        <g transform="matrix(4.16667,0,0,4.16667,0,0)">
            <path d="M560.977,117.892C561.499,118.466 561.22,119.647 560.355,120.518C559.494,121.389 558.37,121.628 557.847,121.048C557.335,120.466 557.614,119.288 558.477,118.415C559.342,117.539 560.461,117.302 560.977,117.892Z" style="fill:rgb(249,161,90);fill-rule:nonzero;"/>
        </g>
        <g transform="matrix(4.16667,0,0,4.16667,0,0)">
            <path d="M558.348,100.792C558.909,101.421 558.857,102.437 558.235,103.066C557.614,103.698 556.654,103.698 556.087,103.074C555.529,102.445 555.581,101.424 556.201,100.795C556.824,100.164 557.784,100.161 558.348,100.792Z" style="fill:rgb(249,161,90);fill-rule:nonzero;"/>
        </g>
        <g transform="matrix(4.16667,0,0,4.16667,0,0)">
            <path d="M712.692,101.468C714.167,103.011 716.452,103.216 717.808,101.926C719.16,100.632 719.068,98.34 717.604,96.798C716.133,95.255 713.845,95.049 712.493,96.341C711.141,97.634 711.229,99.928 712.692,101.468Z" style="fill:rgb(249,161,90);fill-rule:nonzero;"/>
        </g>
        <g transform="matrix(4.16667,0,0,4.16667,0,0)">
            <path d="M727.21,98.294C728.434,99.579 730.249,99.832 731.265,98.864C732.285,97.903 732.12,96.073 730.889,94.785C729.67,93.502 727.853,93.249 726.835,94.213C725.822,95.18 725.985,97.004 727.21,98.294Z" style="fill:rgb(249,161,90);fill-rule:nonzero;"/>
        </g>
        <g transform="matrix(4.16667,0,0,4.16667,0,0)">
            <path d="M720.087,116.607C721.796,118.401 724.424,118.683 725.948,117.236C727.474,115.779 727.319,113.145 725.607,111.349C723.894,109.547 721.269,109.268 719.747,110.721C718.224,112.171 718.375,114.809 720.087,116.607Z" style="fill:rgb(249,161,90);fill-rule:nonzero;"/>
        </g>
        <g transform="matrix(4.16667,0,0,4.16667,0,0)">
            <path d="M738.046,98.621C738.535,99.133 739.759,98.762 740.772,97.796C741.789,96.829 742.214,95.625 741.73,95.114C741.241,94.6 740.02,94.968 739.002,95.937C737.982,96.901 737.56,98.105 738.046,98.621Z" style="fill:rgb(249,161,90);fill-rule:nonzero;"/>
        </g>
        <g transform="matrix(4.16667,0,0,4.16667,0,0)">
            <path d="M721.895,92.708C722.386,93.223 723.333,93.122 724.006,92.473C724.684,91.828 724.84,90.89 724.351,90.374C723.859,89.858 722.913,89.966 722.241,90.61C721.556,91.254 721.41,92.195 721.895,92.708Z" style="fill:rgb(249,161,90);fill-rule:nonzero;"/>
        </g>
        <g transform="matrix(4.16667,0,0,4.16667,0,0)">
            <path d="M745.564,118.194C746.053,118.708 746.998,118.607 747.673,117.957C748.35,117.314 748.505,116.377 748.015,115.859C747.528,115.341 746.579,115.453 745.907,116.095C745.224,116.743 745.076,117.681 745.564,118.194Z" style="fill:rgb(249,161,90);fill-rule:nonzero;"/>
        </g>
        <g transform="matrix(4.16667,0,0,4.16667,0,0)">
            <path d="M734.917,109.94C735.532,110.586 736.726,110.46 737.578,109.641C738.43,108.829 738.627,107.648 738.009,106.998C737.395,106.346 736.197,106.486 735.351,107.297C734.492,108.11 734.299,109.293 734.917,109.94Z" style="fill:rgb(249,161,90);fill-rule:nonzero;"/>
        </g>
        <g transform="matrix(4.16667,0,0,4.16667,0,0)">
            <path d="M541.649,153.419L541.415,153.283C540.406,152.761 539.471,152.078 538.66,151.312L538.601,151.323C534.606,157.987 535.245,168.033 544.807,164.043C547.949,162.737 548.78,161.428 550.827,161.082C546.004,158.565 542.391,155.914 541.649,153.419Z" style="fill:rgb(252,231,152);fill-rule:nonzero;"/>
        </g>
        <g transform="matrix(4.16667,0,0,4.16667,0,0)">
            <path d="M672.988,192.223C677.366,191.97 680.58,185.709 681.567,179.461C682.444,179.482 683.27,179.367 684.073,179.182C676.77,179.927 669.401,180.21 662.116,180.158C663.442,184.212 668.697,192.475 672.988,192.223Z" style="fill:rgb(252,231,152);fill-rule:nonzero;"/>
        </g>
        <g transform="matrix(4.16667,0,0,4.16667,0,0)">
            <path d="M575.318,170.416C572.623,169.533 566.002,167.521 563.041,166.406C560.012,181.661 568.961,183.01 575.318,170.416Z" style="fill:rgb(252,231,152);fill-rule:nonzero;"/>
        </g>
        <g transform="matrix(4.16667,0,0,4.16667,0,0)">
            <path d="M610.165,177.571C613.812,180.676 615.121,186.955 620.925,185.94C624.523,185.314 626.521,180.392 629.673,178.637C622.832,178.19 616.08,177.652 609.35,176.914C609.615,177.119 609.885,177.332 610.165,177.571Z" style="fill:rgb(252,231,152);fill-rule:nonzero;"/>
        </g>
        <g transform="matrix(4.16667,0,0,4.16667,0,0)">
            <path d="M750.102,142.546C748.039,142.711 745.359,151.288 743.878,153.405C738.863,160.562 730.673,165.47 722.934,169.118C714.785,172.96 706.042,175.577 697.042,177.302C697.501,177.735 698.254,178.183 698.516,179.119C702.779,194.364 710.74,189.279 711.882,178.648C712.418,173.646 712.513,175.081 717.137,172.84C719.871,171.521 722.249,170.781 724.971,169.867C729.979,174.503 739.732,181.562 744.018,177.601C747.216,174.44 743.017,165.863 740.796,160.632C741.54,157.844 746.301,153.285 747.946,150.601C757.074,152.572 759.082,149.731 757.779,146.891C756.722,144.585 753.484,142.278 750.102,142.546Z" style="fill:rgb(252,231,152);fill-rule:nonzero;"/>
        </g>
        <g transform="matrix(4.16667,0,0,4.16667,0,0)">
            <path d="M638.377,179.168C639.482,185.4 641.094,198.941 648.473,198.543C654.231,198.237 657.467,185.505 658.61,179.449C654.262,179.41 653.109,179.973 648.853,179.744C645.327,179.554 641.837,179.367 638.377,179.168Z" style="fill:rgb(252,231,152);fill-rule:nonzero;"/>
        </g>
        <g transform="matrix(4.16667,0,0,4.16667,0,0)">
            <path d="M584.189,172.343C583.355,179.583 583.975,196.971 593.004,190.763C597.516,187.664 600.156,180.647 602.287,176.057C596.964,175.348 589.547,173.417 584.189,172.343Z" style="fill:rgb(252,231,152);fill-rule:nonzero;"/>
        </g>
        <g transform="matrix(4.16667,0,0,4.16667,0,0)">
            <path d="M750.557,121.91C751.511,137.742 744.433,170.002 663.556,170.002C656.023,170.002 647.84,169.722 638.974,169.123C545.973,162.837 532.967,147.681 531.801,137.306L531.801,138.082C532.318,146.558 538.891,158.186 583.865,168.627C606.561,173.895 634.891,177.715 661.774,177.715C697.734,177.715 731.099,170.876 744.876,151.522C746.171,148.711 747.868,144.222 749.37,142.913C751.513,136.891 752.137,129.95 750.932,121.98L750.869,121.974C750.763,121.962 750.663,121.93 750.557,121.91Z" style="fill:url(#_Radial3);"/>
        </g>
        <g transform="matrix(4.16667,0,0,4.16667,0,0)">
            <path d="M749.37,142.913C747.868,144.222 746.171,148.711 744.876,151.522C746.75,148.89 748.263,146.023 749.37,142.913Z" style="fill:rgb(229,208,137);fill-rule:nonzero;"/>
        </g>
        <g transform="matrix(4.16667,0,0,4.16667,0,0)">
            <path d="M531.143,137.798L531.276,137.73C532.442,148.104 545.973,167.489 638.974,173.775C743.033,180.81 751.6,143.868 750.557,126.561C750.663,126.582 750.763,126.615 750.869,126.626L750.932,126.631C760.752,191.595 649.045,188.409 583.865,173.279C538.891,162.837 531.659,146.275 531.143,137.798Z" style="fill:rgb(178,96,39);fill-rule:nonzero;"/>
        </g>
        <g transform="matrix(4.16667,0,0,4.16667,0,0)">
            <path d="M607.436,96.293C611.056,102.651 617.32,106.885 624.304,103.558C630.763,100.48 638.333,95.247 634.275,84.583C631.419,77.084 619.881,73.963 613.663,77.503C607.442,81.043 603.817,89.933 607.436,96.293Z" style="fill:rgb(88,125,180);fill-rule:nonzero;"/>
        </g>
        <g transform="matrix(4.16667,0,0,4.16667,0,0)">
            <path d="M614.751,93.117C616.599,96.363 620.815,97.444 624.165,95.539C627.518,93.629 628.736,89.453 626.89,86.207C625.042,82.962 620.829,81.879 617.476,83.788C614.127,85.696 612.906,89.873 614.751,93.117Z" style="fill:rgb(31,73,134);fill-rule:nonzero;"/>
        </g>
        <g transform="matrix(4.16667,0,0,4.16667,0,0)">
            <path d="M607.981,87.352C609.499,90.017 612.96,90.911 615.713,89.34C618.466,87.777 619.467,84.342 617.952,81.679C616.434,79.013 612.972,78.122 610.217,79.687C607.464,81.257 606.466,84.688 607.981,87.352Z" style="fill:white;fill-rule:nonzero;"/>
        </g>
        <g transform="matrix(4.16667,0,0,4.16667,0,0)">
            <path d="M656.071,94.771C659.69,101.131 665.954,105.364 672.939,102.038C679.398,98.96 686.968,93.726 682.909,83.062C680.053,75.564 668.516,72.444 662.295,75.982C656.077,79.525 652.451,88.414 656.071,94.771Z" style="fill:rgb(88,125,180);fill-rule:nonzero;"/>
        </g>
        <g transform="matrix(4.16667,0,0,4.16667,0,0)">
            <path d="M663.384,91.597C665.234,94.841 669.448,95.921 672.799,94.018C676.15,92.11 677.372,87.933 675.525,84.687C673.674,81.441 669.462,80.359 666.11,82.269C662.759,84.176 661.54,88.353 663.384,91.597Z" style="fill:rgb(31,73,134);fill-rule:nonzero;"/>
        </g>
        <g transform="matrix(4.16667,0,0,4.16667,0,0)">
            <path d="M657.104,86.138C658.495,88.674 661.746,89.48 664.363,87.935C666.983,86.394 667.976,83.083 666.585,80.547C665.192,78.012 661.941,77.205 659.323,78.748C656.707,80.294 655.712,83.602 657.104,86.138Z" style="fill:white;fill-rule:nonzero;"/>
        </g>
        <g transform="matrix(4.16667,0,0,4.16667,0,0)">
            <path d="M629.48,72.208C642.767,68.286 638.971,63.072 638.971,63.072C643.354,60.231 640.491,58.311 640.491,58.311C640.491,58.311 645.13,50.425 640.978,50.311C599.612,49.192 583.966,66.502 583.966,66.502C570.977,78.934 617.048,75.877 629.48,72.208ZM636.122,58.115C636.122,58.115 636.947,58.429 637.302,59.052L637.301,59.059C636.946,58.432 636.122,58.115 636.122,58.115ZM614.572,54.628C615.356,54.407 616.142,54.197 616.93,53.999C616.142,54.197 615.356,54.407 614.572,54.628ZM634.996,52.649C635.49,52.731 635.973,52.832 636.456,52.935C635.973,52.832 635.49,52.731 634.996,52.649ZM632.738,52.377C633.22,52.418 633.697,52.469 634.17,52.533C633.697,52.469 633.22,52.418 632.738,52.377ZM630.302,52.258C630.841,52.263 631.377,52.28 631.907,52.312C631.377,52.28 630.841,52.263 630.302,52.258ZM627.335,52.319C628.103,52.271 628.867,52.248 629.624,52.245C628.867,52.248 628.103,52.271 627.335,52.319ZM624.978,52.524C625.572,52.46 626.163,52.409 626.753,52.367C626.163,52.409 625.571,52.46 624.978,52.524ZM622.581,52.849C623.09,52.77 623.593,52.7 624.102,52.635C623.595,52.7 623.09,52.767 622.581,52.849ZM620.116,53.292C620.633,53.188 621.151,53.09 621.668,53.001C621.151,53.09 620.633,53.188 620.116,53.292ZM617.359,53.9C617.999,53.744 618.638,53.597 619.284,53.458C618.638,53.597 617.999,53.744 617.359,53.9ZM612.212,55.335C612.806,55.15 613.407,54.969 614.006,54.793C613.407,54.969 612.806,55.15 612.212,55.335ZM609.837,56.116C610.396,55.924 610.96,55.737 611.529,55.555C610.96,55.737 610.396,55.924 609.837,56.116ZM607.316,57.014C607.948,56.779 608.591,56.548 609.238,56.32C608.591,56.548 607.947,56.78 607.316,57.014ZM639.222,53.697C638.545,53.461 637.853,53.262 637.153,53.087C637.853,53.262 638.545,53.461 639.222,53.697ZM587.197,67.627C586.792,68.447 586.778,69.148 587.07,69.754C586.717,69.171 586.737,68.466 587.197,67.627Z" style="fill:rgb(239,62,103);fill-rule:nonzero;"/>
        </g>
        <g transform="matrix(4.16667,0,0,4.16667,0,0)">
            <path d="M651.19,62.136C651.19,62.136 649.283,66.827 659.99,72.419C672.159,78.779 721.493,84.984 709.791,70.849C709.791,70.849 678.124,44.086 650.652,51.338C646.21,52.513 651.097,57.198 651.097,57.198C651.097,57.198 646.982,58.719 651.19,62.136ZM707.81,71.693C708.154,71.074 708.169,70.364 707.765,69.546C708.226,70.384 708.218,71.095 707.81,71.693ZM695.489,64.959C695.124,63.989 694.427,62.978 693.568,61.96C693.678,62.003 693.8,62.048 693.908,62.091C694.65,63.073 695.24,64.04 695.489,64.959ZM690.251,60.695C690.734,60.871 691.179,61.049 691.649,61.226C691.181,61.05 690.734,60.871 690.251,60.695ZM654.653,61.181C654.452,61.266 653.73,61.594 653.376,62.144L653.376,62.14C653.731,61.59 654.452,61.266 654.653,61.181Z" style="fill:rgb(239,62,103);fill-rule:nonzero;"/>
        </g>
        <g transform="matrix(4.16667,0,0,4.16667,0,0)">
            <path d="M673.814,202.934C673.814,202.934 641.139,220.412 606.562,201.036C606.562,201.036 647.976,209.014 673.814,202.934Z" style="fill:rgb(215,115,40);fill-rule:nonzero;"/>
        </g>
        <g transform="matrix(4.16667,0,0,4.16667,0,0)">
            <path d="M664.867,237.16C664.72,237.16 664.574,237.17 664.425,237.192C662.026,237.534 660.296,240.614 660.582,244.062C660.84,247.296 662.771,249.717 664.991,249.717C665.136,249.717 665.284,249.707 665.432,249.685C667.835,249.345 669.557,246.267 669.277,242.812C669.02,239.576 667.087,237.16 664.867,237.16Z" style="fill:url(#_Radial4);"/>
        </g>
        <g transform="matrix(4.16667,0,0,4.16667,0,0)">
            <path d="M650.595,252.883C650.495,252.883 650.394,252.891 650.293,252.906C648.493,253.16 647.217,255.701 647.448,258.581C647.67,261.294 649.153,263.338 650.836,263.338C650.935,263.338 651.035,263.331 651.134,263.317C652.934,263.057 654.207,260.52 653.978,257.644C653.756,254.929 652.276,252.883 650.595,252.883Z" style="fill:url(#_Radial5);"/>
        </g>
        <g transform="matrix(4.16667,0,0,4.16667,0,0)">
            <path d="M633.67,247.144C633.571,247.144 633.471,247.151 633.371,247.166C631.571,247.419 630.291,249.966 630.526,252.842C630.748,255.557 632.231,257.6 633.914,257.6C634.012,257.6 634.112,257.593 634.211,257.579C636.012,257.32 637.286,254.783 637.055,251.903C636.833,249.189 635.35,247.144 633.67,247.144Z" style="fill:url(#_Radial6);"/>
        </g>
        <g transform="matrix(4.16667,0,0,4.16667,0,0)">
            <path d="M672.899,261.289C672.741,261.289 672.582,261.3 672.421,261.323C669.72,261.709 667.795,265.288 668.12,269.314C668.419,273.096 670.611,275.932 673.114,275.932C673.274,275.932 673.435,275.92 673.597,275.897C676.301,275.51 678.232,271.938 677.905,267.914C677.602,264.124 675.411,261.289 672.899,261.289Z" style="fill:url(#_Radial7);"/>
        </g>
        <g transform="matrix(4.16667,0,0,4.16667,0,0)">
            <path d="M642.28,268.744C641.287,268.744 640.287,269.847 639.929,271.418C639.523,273.189 640.093,274.891 641.194,275.223C641.318,275.259 641.442,275.276 641.568,275.276C642.568,275.276 643.576,274.172 643.937,272.599C644.345,270.824 643.776,269.121 642.669,268.802C642.541,268.763 642.411,268.744 642.28,268.744Z" style="fill:url(#_Radial8);"/>
        </g>
        <g transform="matrix(4.16667,0,0,4.16667,0,0)">
            <path d="M655.211,247.048C655.096,247.048 654.978,247.057 654.859,247.074C653.562,247.262 652.587,248.421 652.685,249.665C652.785,250.793 653.729,251.606 654.873,251.606C654.989,251.606 655.107,251.598 655.226,251.581C656.527,251.393 657.496,250.239 657.396,248.993C657.305,247.858 656.359,247.048 655.211,247.048Z" style="fill:url(#_Radial9);"/>
        </g>
    </g>
</svg>
