<?xml version="1.0" encoding="UTF-8" standalone="no"?>
<svg width="100%" height="100%" viewBox="0 0 1621 1778" version="1.1" xmlns="http://www.w3.org/2000/svg" xmlns:xlink="http://www.w3.org/1999/xlink" xml:space="preserve" style="fill-rule:evenodd;clip-rule:evenodd;stroke-linejoin:round;stroke-miterlimit:2;">
    <defs>
        <radialGradient id="_Radial1" cx="0" cy="0" r="1" gradientUnits="userSpaceOnUse" gradientTransform="matrix(-113.101,0.730077,-0.599436,-137.75,201.494,637.191)"><stop offset="0" style="stop-color:rgb(252,225,71);stop-opacity:1"/><stop offset="0.01" style="stop-color:rgb(252,225,71);stop-opacity:1"/><stop offset="0.5" style="stop-color:rgb(247,143,30);stop-opacity:1"/><stop offset="1" style="stop-color:rgb(247,144,30);stop-opacity:1"/></radialGradient>
            <radialGradient id="_Radial2" cx="0" cy="0" r="1" gradientUnits="userSpaceOnUse" gradientTransform="matrix(-113.101,0.730077,-0.599436,-137.75,201.494,637.191)"><stop offset="0" style="stop-color:rgb(220,192,60);stop-opacity:1"/><stop offset="0.01" style="stop-color:rgb(220,192,60);stop-opacity:1"/><stop offset="0.5" style="stop-color:rgb(220,125,39);stop-opacity:1"/><stop offset="1" style="stop-color:rgb(221,126,39);stop-opacity:1"/></radialGradient>
            <radialGradient id="_Radial3" cx="0" cy="0" r="1" gradientUnits="userSpaceOnUse" gradientTransform="matrix(-6.15948,-8.30877,9.23026,-5.79003,210.492,571.745)"><stop offset="0" style="stop-color:rgb(187,214,55);stop-opacity:1"/><stop offset="0.01" style="stop-color:rgb(187,214,55);stop-opacity:1"/><stop offset="0.35" style="stop-color:rgb(151,201,60);stop-opacity:1"/><stop offset="0.5" style="stop-color:rgb(85,163,69);stop-opacity:1"/><stop offset="1" style="stop-color:rgb(85,163,69);stop-opacity:1"/></radialGradient>
            <radialGradient id="_Radial4" cx="0" cy="0" r="1" gradientUnits="userSpaceOnUse" gradientTransform="matrix(-6.1594,-8.30867,9.23015,-5.78996,210.492,571.745)"><stop offset="0" style="stop-color:rgb(189,215,69);stop-opacity:1"/><stop offset="0.01" style="stop-color:rgb(189,215,69);stop-opacity:1"/><stop offset="0.4" style="stop-color:rgb(152,201,60);stop-opacity:1"/><stop offset="0.5" style="stop-color:rgb(117,180,66);stop-opacity:1"/><stop offset="1" style="stop-color:rgb(119,181,67);stop-opacity:1"/></radialGradient>
            <radialGradient id="_Radial5" cx="0" cy="0" r="1" gradientUnits="userSpaceOnUse" gradientTransform="matrix(-113.101,0.730077,-0.599436,-137.75,201.494,637.191)"><stop offset="0" style="stop-color:rgb(220,192,60);stop-opacity:1"/><stop offset="0.01" style="stop-color:rgb(220,192,60);stop-opacity:1"/><stop offset="0.5" style="stop-color:rgb(220,125,39);stop-opacity:1"/><stop offset="1" style="stop-color:rgb(221,126,39);stop-opacity:1"/></radialGradient>
            <radialGradient id="_Radial6" cx="0" cy="0" r="1" gradientUnits="userSpaceOnUse" gradientTransform="matrix(-8.40964,-6.24346,7.01042,-7.80095,174.961,574.773)"><stop offset="0" style="stop-color:rgb(187,214,55);stop-opacity:1"/><stop offset="0.01" style="stop-color:rgb(187,214,55);stop-opacity:1"/><stop offset="0.35" style="stop-color:rgb(151,201,60);stop-opacity:1"/><stop offset="0.5" style="stop-color:rgb(85,163,69);stop-opacity:1"/><stop offset="1" style="stop-color:rgb(85,163,69);stop-opacity:1"/></radialGradient>
            <radialGradient id="_Radial7" cx="0" cy="0" r="1" gradientUnits="userSpaceOnUse" gradientTransform="matrix(-8.40954,-6.24338,7.01034,-7.80086,174.961,574.773)"><stop offset="0" style="stop-color:rgb(189,215,69);stop-opacity:1"/><stop offset="0.01" style="stop-color:rgb(189,215,69);stop-opacity:1"/><stop offset="0.4" style="stop-color:rgb(152,201,60);stop-opacity:1"/><stop offset="0.5" style="stop-color:rgb(117,180,66);stop-opacity:1"/><stop offset="1" style="stop-color:rgb(119,181,67);stop-opacity:1"/></radialGradient>
            <radialGradient id="_Radial8" cx="0" cy="0" r="1" gradientUnits="userSpaceOnUse" gradientTransform="matrix(-113.101,0.730077,-0.599436,-137.75,201.494,637.191)"><stop offset="0" style="stop-color:rgb(252,230,102);stop-opacity:1"/><stop offset="0.01" style="stop-color:rgb(252,230,102);stop-opacity:1"/><stop offset="0.5" style="stop-color:rgb(249,161,58);stop-opacity:1"/><stop offset="1" style="stop-color:rgb(249,162,59);stop-opacity:1"/></radialGradient>
    </defs>
    <g transform="matrix(1,0,0,1,-15.3453,-1879.01)">
        <g transform="matrix(4.16667,0,0,4.16667,0,0)">
            <path d="M73.113,828.896C73.695,825.143 102.873,821.694 100.539,836.695C99.079,846.069 85.122,843.729 85.487,836.8C85.632,833.998 72.529,832.646 73.113,828.896Z" style="fill:rgb(215,85,39);fill-rule:nonzero;"/>
        </g>
        <g transform="matrix(4.16667,0,0,4.16667,0,0)">
            <path d="M56.864,847.907C56.864,847.907 71.04,857.74 67.407,866.582C63.776,875.425 60.891,879.237 55.922,876.798C50.952,874.362 51.21,841.712 56.864,847.907Z" style="fill:rgb(215,85,39);fill-rule:nonzero;"/>
        </g>
        <g transform="matrix(4.16667,0,0,4.16667,0,0)">
            <path d="M41.8,850.793C41.8,850.793 37.421,864.041 36.648,871.584C35.878,879.129 25.25,870.501 26.038,861.698C26.819,852.897 44.703,843.843 41.8,850.793Z" style="fill:rgb(215,85,39);fill-rule:nonzero;"/>
        </g>
        <g transform="matrix(4.16667,0,0,4.16667,0,0)">
            <path d="M27.492,840.922C27.492,840.923 8.407,837.972 9.635,852.069C10.856,866.166 28.804,842.51 27.492,840.922Z" style="fill:rgb(215,85,39);fill-rule:nonzero;"/>
        </g>
        <g transform="matrix(4.16667,0,0,4.16667,0,0)">
            <path d="M101.026,633.423C101.026,633.423 96.439,637.159 89.219,644.084C86.381,646.807 83.152,650.001 79.61,653.684C77.106,656.291 74.445,659.152 71.689,662.211C68.772,665.453 65.741,668.938 62.639,672.663C57.739,678.543 52.67,685.01 47.618,692.02C44.269,696.662 40.939,701.541 37.667,706.639C32.573,714.577 27.634,723.031 23.071,731.985C21.055,735.941 19.111,739.987 17.256,744.124C16.342,746.168 15.475,748.194 14.659,750.206C8.489,765.368 5.081,779.537 4.034,792.285C3.592,797.683 3.571,802.827 3.95,807.683C5.09,822.252 9.799,834.221 17.293,842.71C26.252,852.862 39.184,858.04 54.767,856.708C66.543,855.705 73.195,848.667 76.658,838.237C78.71,832.067 79.644,824.71 79.86,816.706C80.075,808.848 79.596,800.368 78.804,791.788C77.497,777.607 75.338,763.15 74.034,750.749C73.131,742.146 72.669,735.421 73.079,729.447C73.084,729.335 73.091,729.212 73.098,729.1C73.311,726.261 73.622,723.456 74.002,720.682C74.676,715.755 75.583,710.941 76.686,706.28C78.981,696.536 82.072,687.436 85.412,679.278C86.9,675.648 88.434,672.205 89.967,668.975C91.579,665.585 93.191,662.429 94.746,659.537C96.638,656.021 98.447,652.893 100.077,650.212C104.299,643.261 107.295,639.304 107.295,639.304C107.295,639.304 112.688,630.042 101.026,633.423Z" style="fill:rgb(19,173,225);fill-rule:nonzero;"/>
        </g>
        <g transform="matrix(4.16667,0,0,4.16667,0,0)">
            <path d="M17.304,791.646C17.304,791.646 18.976,807.881 25.569,807.205C32.168,806.529 31.822,795.656 31.822,795.656C31.822,795.656 29.131,804.452 25.315,804.367C20.764,804.267 17.304,791.646 17.304,791.646Z" style="fill:rgb(16,137,196);fill-rule:nonzero;"/>
        </g>
        <g transform="matrix(4.16667,0,0,4.16667,0,0)">
            <path d="M47.145,715.916C47.145,715.916 48.259,729.064 54.98,728.356C61.704,727.645 61.744,718.823 61.744,718.823C61.744,718.823 58.693,726.031 54.824,726.055C50.205,726.085 47.145,715.916 47.145,715.916Z" style="fill:rgb(16,137,196);fill-rule:nonzero;"/>
        </g>
        <g transform="matrix(4.16667,0,0,4.16667,0,0)">
            <path d="M16.212,820.55C16.212,820.55 23.031,832.51 30.071,830.297C37.11,828.081 34.386,819.591 34.386,819.591C34.386,819.591 35.256,827.355 28.435,827.965C23.151,828.438 16.212,820.55 16.212,820.55Z" style="fill:rgb(16,137,196);fill-rule:nonzero;"/>
        </g>
        <g transform="matrix(4.16667,0,0,4.16667,0,0)">
            <path d="M49.948,763.827C49.948,763.827 46.653,771.531 40.562,769.787C38.364,769.159 36.815,766.675 35.78,764.204C35.409,764.442 35.861,764.13 35.458,764.29C36.168,767.959 36.958,772.414 40.734,772.567C47.837,772.855 49.948,763.827 49.948,763.827Z" style="fill:rgb(16,137,196);fill-rule:nonzero;"/>
        </g>
        <g transform="matrix(4.16667,0,0,4.16667,0,0)">
            <path d="M36.654,722.935C36.654,722.935 37.222,730.719 43.908,730.491C46.321,730.411 48.745,728.487 50.651,726.46C50.937,726.761 51.266,727.023 51.615,727.26C49.61,730.458 46.575,733.703 42.754,732.995C35.569,731.66 36.654,722.935 36.654,722.935Z" style="fill:rgb(16,137,196);fill-rule:nonzero;"/>
        </g>
        <g transform="matrix(4.16667,0,0,4.16667,0,0)">
            <path d="M329.529,827.588C328.581,823.743 300.655,822.514 304.462,837.886C306.843,847.491 319.773,843.942 318.691,836.784C318.252,833.889 330.481,831.429 329.529,827.588Z" style="fill:rgb(215,85,39);fill-rule:nonzero;"/>
        </g>
        <g transform="matrix(4.16667,0,0,4.16667,0,0)">
            <path d="M346.908,845.997C346.908,845.997 334.57,857.337 338.95,866.215C343.322,875.096 346.455,878.817 350.886,875.888C355.32,872.959 351.584,839.117 346.908,845.997Z" style="fill:rgb(215,85,39);fill-rule:nonzero;"/>
        </g>
        <g transform="matrix(4.16667,0,0,4.16667,0,0)">
            <path d="M361.442,847.776C361.442,847.776 366.995,861.167 368.533,868.926C370.066,876.691 379.181,866.883 377.498,857.817C375.816,848.751 357.959,840.804 361.442,847.776Z" style="fill:rgb(215,85,39);fill-rule:nonzero;"/>
        </g>
        <g transform="matrix(4.16667,0,0,4.16667,0,0)">
            <path d="M373.899,836.389C373.899,836.389 391.608,831.79 391.956,846.508C392.313,861.229 372.83,838.137 373.899,836.389Z" style="fill:rgb(215,85,39);fill-rule:nonzero;"/>
        </g>
        <g transform="matrix(4.16667,0,0,4.16667,0,0)">
            <path d="M318.926,724.437C318.794,724.826 318.67,725.216 318.555,725.615C318.097,722.499 317.458,718.97 317.116,715.42C317.77,718.267 318.364,721.152 318.873,724.083C318.891,724.199 318.906,724.323 318.926,724.437Z" style="fill:rgb(96,113,130);fill-rule:nonzero;"/>
        </g>
        <g transform="matrix(4.16667,0,0,4.16667,0,0)">
            <path d="M390.85,784.052C388.503,770.913 383.765,756.491 376.318,741.263C375.331,739.244 374.298,737.211 373.216,735.165C371.02,731.022 368.754,726.983 366.425,723.043C361.159,714.125 355.59,705.752 349.933,697.929C346.296,692.906 342.627,688.114 338.969,683.57C333.448,676.706 327.969,670.406 322.715,664.701C319.384,661.087 316.148,657.716 313.048,654.593C310.117,651.64 307.3,648.89 304.656,646.387C300.916,642.851 297.526,639.798 294.553,637.203C286.994,630.606 282.262,627.098 282.262,627.098C270.892,624.53 276.974,633.703 276.974,633.703C276.974,633.703 280.224,637.562 284.956,644.433C286.779,647.082 288.821,650.181 290.988,653.675C292.764,656.55 294.625,659.691 296.508,663.082C298.306,666.306 300.121,669.753 301.913,673.4C305.94,681.592 309.832,690.779 313.041,700.7C314.581,705.447 315.953,710.367 317.116,715.42C317.77,718.267 318.364,721.152 318.873,724.083C318.891,724.199 318.906,724.323 318.926,724.437C319.911,730.361 320.239,737.994 320.302,746.61C320.398,759.578 319.905,774.749 320.185,789.561C320.358,798.523 320.811,807.355 321.853,815.49C322.914,823.773 324.582,831.328 327.181,837.563C331.567,848.102 338.601,854.864 349.832,854.959C364.688,855.083 376.348,848.669 383.726,837.417C389.894,828.01 393.061,815.217 392.579,800.015C392.418,794.949 391.847,789.614 390.85,784.052Z" style="fill:rgb(19,173,225);fill-rule:nonzero;"/>
        </g>
        <g transform="matrix(4.16667,0,0,4.16667,0,0)">
            <path d="M295.465,634.993C296.24,628.615 298.41,620.563 303.234,620.287C307.088,620.282 299.734,631.528 297.534,634.715C301.415,629.71 316.604,619.445 318.214,622.65C318.019,626.934 302.045,637.208 294.12,637.983C297.022,636.887 311.983,634.62 315.016,635.898C319.373,637.74 314.602,642.885 309.255,644.142C300.754,646.132 293.003,642.194 292.696,636.105C293.134,635.721 291.874,637.035 292.373,636.72L295.465,634.993Z" style="fill:rgb(247,143,30);fill-rule:nonzero;"/>
        </g>
        <g transform="matrix(4.16667,0,0,4.16667,0,0)">
            <path d="M348.854,735.248C348.854,735.248 350.127,752.181 343.981,752.315C337.833,752.453 336.269,741.21 336.269,741.21C336.269,741.21 340.249,749.929 343.724,749.363C347.869,748.684 348.854,735.248 348.854,735.248Z" style="fill:rgb(16,137,196);fill-rule:nonzero;"/>
        </g>
        <g transform="matrix(4.16667,0,0,4.16667,0,0)">
            <path d="M325.682,744.575C325.682,744.575 326.225,752.683 332.568,752.448C334.856,752.365 337.153,750.365 338.962,748.254C339.233,748.567 339.546,748.841 339.876,749.086C337.976,752.415 335.1,755.793 331.474,755.054C324.657,753.664 325.682,744.575 325.682,744.575Z" style="fill:rgb(16,137,196);fill-rule:nonzero;"/>
        </g>
        <g transform="matrix(4.16667,0,0,4.16667,0,0)">
            <path d="M334.243,832.811C334.243,832.811 339.098,838.572 343.628,835.524C345.265,834.421 345.852,831.898 346.019,829.514C346.392,829.625 346.006,829.365 346.385,829.4C346.816,832.727 347.326,836.853 344.257,837.948C338.486,840.009 334.243,832.811 334.243,832.811Z" style="fill:rgb(16,137,196);fill-rule:nonzero;"/>
        </g>
        <g transform="matrix(4.16667,0,0,4.16667,0,0)">
            <path d="M244.04,768.261C253.031,780.856 246.789,794.091 233.569,815.682C220.352,837.274 233.839,848.481 233.839,848.481C300.976,859.696 288.54,843.777 288.54,843.777C267.8,800.444 294.562,745.746 294.562,745.746C294.562,745.746 286.137,732.252 263.956,743.678C244.986,753.449 244.04,768.261 244.04,768.261Z" style="fill:rgb(19,173,225);fill-rule:nonzero;"/>
        </g>
        <g transform="matrix(4.16667,0,0,4.16667,0,0)">
            <path d="M293.441,848.697C293.441,848.697 292.624,844.593 289.074,845.276C285.519,845.957 286.367,852.616 288.034,852.816C294.537,851.366 293.441,848.697 293.441,848.697Z" style="fill:rgb(215,85,39);fill-rule:nonzero;"/>
        </g>
        <g transform="matrix(4.16667,0,0,4.16667,0,0)">
            <path d="M284.135,853.85C284.135,853.85 283.903,846.994 277.205,846.252C270.508,845.509 271.714,853.557 271.714,853.557C271.714,853.557 277.411,854.805 284.135,853.85Z" style="fill:rgb(215,85,39);fill-rule:nonzero;"/>
        </g>
        <g transform="matrix(4.16667,0,0,4.16667,0,0)">
            <path d="M267.903,853.607C267.903,853.607 267.606,848.481 260.818,847.945C254.031,847.411 254.668,852.479 254.668,852.479C254.668,852.479 263.428,854.105 267.903,853.607Z" style="fill:rgb(215,85,39);fill-rule:nonzero;"/>
        </g>
        <g transform="matrix(4.16667,0,0,4.16667,0,0)">
            <path d="M279.209,816.66C278.28,812.275 268.077,811.057 269.05,816.349C269.381,818.142 272.059,820.267 274.199,818.765C275.168,818.083 275.522,815.767 273.677,815.778C273.419,815.778 273.168,816.029 273.406,816.225C273.578,816.552 273.571,816.862 273.386,817.152C273.292,817.302 273.195,817.451 273.098,817.6C271.349,817.798 270.548,817.176 270.701,815.735C270.726,813.734 273.464,813.93 275.015,814.448C277.301,815.204 278.012,817.512 276.994,819.09C276.428,819.963 275.404,820.493 274.318,820.841C271.788,821.661 268.614,820.528 267.165,818.636C265.005,815.81 266.98,812.155 269.91,810.627C270.163,810.5 269.963,810.138 269.685,810.261C267.221,811.374 265.143,813.018 264.797,815.498C264.427,818.186 265.79,820.589 268.766,821.942C273.53,824.107 280.226,821.417 279.209,816.66Z" style="fill:rgb(16,137,196);fill-rule:nonzero;"/>
        </g>
        <g transform="matrix(4.16667,0,0,4.16667,0,0)">
            <path d="M151.689,772.218C142.294,784.512 148.102,797.945 160.615,819.953C173.13,841.96 159.282,852.725 159.282,852.725C91.817,861.757 104.766,846.251 104.766,846.251C126.899,803.611 101.923,748.074 101.923,748.074C101.923,748.074 110.778,734.863 132.58,747C151.223,757.38 151.689,772.218 151.689,772.218Z" style="fill:rgb(19,173,225);fill-rule:nonzero;"/>
        </g>
        <g transform="matrix(4.16667,0,0,4.16667,0,0)">
            <path d="M104.592,850.127C104.592,850.128 105.546,846.051 109.073,846.849C112.603,847.647 111.54,854.273 109.866,854.42C103.414,852.757 104.592,850.127 104.592,850.127Z" style="fill:rgb(215,85,39);fill-rule:nonzero;"/>
        </g>
        <g transform="matrix(4.16667,0,0,4.16667,0,0)">
            <path d="M113.728,855.581C113.728,855.581 114.186,848.736 120.902,848.211C127.621,847.685 126.155,855.689 126.155,855.689C126.155,855.689 120.419,856.752 113.728,855.581Z" style="fill:rgb(215,85,39);fill-rule:nonzero;"/>
        </g>
        <g transform="matrix(4.16667,0,0,4.16667,0,0)">
            <path d="M129.96,855.864C129.96,855.864 130.423,850.75 137.224,850.435C144.027,850.121 143.226,855.163 143.226,855.163C143.226,855.163 134.418,856.505 129.96,855.864Z" style="fill:rgb(215,85,39);fill-rule:nonzero;"/>
        </g>
        <g transform="matrix(4.16667,0,0,4.16667,0,0)">
            <path d="M115.353,818.903C116.812,814.521 129.915,813.422 128.344,818.71C127.809,820.502 124.259,822.599 121.62,821.07C120.423,820.377 120.114,818.053 122.471,818.084C122.799,818.086 123.108,818.339 122.79,818.532C122.552,818.862 122.54,819.171 122.757,819.461C122.869,819.615 122.984,819.764 123.098,819.917C125.319,820.137 126.38,819.524 126.275,818.076C126.366,816.074 122.861,816.237 120.845,816.734C117.881,817.465 116.83,819.771 118.035,821.362C118.697,822.244 119.975,822.786 121.339,823.146C124.518,824.001 128.641,822.901 130.61,821.026C133.546,818.221 131.25,814.537 127.605,812.971C127.29,812.837 127.565,812.478 127.91,812.606C130.987,813.752 133.543,815.419 133.826,817.908C134.135,820.609 132.242,822.998 128.362,824.318C122.144,826.429 113.762,823.655 115.353,818.903Z" style="fill:rgb(16,137,196);fill-rule:nonzero;"/>
        </g>
        <g transform="matrix(4.16667,0,0,4.16667,0,0)">
            <path d="M260.732,568.343C250.014,557.194 242.136,542.454 240.069,527.026C239.618,523.636 239.565,520.341 239.704,517.082C235.732,518.649 226.325,518.902 226.325,518.902C222.35,565.673 270.593,580.847 270.593,580.847C272.286,580.103 273.897,579.337 275.463,578.555C269.726,575.879 264.701,572.469 260.732,568.343Z" style="fill:rgb(254,192,37);fill-rule:nonzero;"/>
        </g>
        <g transform="matrix(4.16667,0,0,4.16667,0,0)">
            <path d="M268.513,531.921C262.881,525.165 259.364,517.77 255.957,510.248C253.301,511.46 250.474,512.679 247.737,513.821C247.775,514.707 247.849,515.606 248.007,516.558C250.584,531.988 261.504,544.896 272.316,555.445C277.879,560.874 283.918,565.449 290.373,569.441C299.036,562.935 304.798,556.01 308.612,549.668C293.408,548.64 278.639,544.084 268.513,531.921Z" style="fill:rgb(254,192,37);fill-rule:nonzero;"/>
        </g>
        <g transform="matrix(4.16667,0,0,4.16667,0,0)">
            <path d="M272.316,555.445C261.504,544.896 250.584,531.988 248.007,516.558C247.849,515.606 247.775,514.707 247.737,513.821C244.844,515.027 242.063,516.15 239.704,517.082C239.565,520.341 239.618,523.636 240.069,527.026C242.136,542.454 250.014,557.194 260.732,568.343C264.701,572.469 269.726,575.879 275.463,578.555C281.209,575.7 286.137,572.623 290.373,569.441C283.918,565.449 277.879,560.874 272.316,555.445Z" style="fill:rgb(40,153,186);fill-rule:nonzero;"/>
        </g>
        <g transform="matrix(4.16667,0,0,4.16667,0,0)">
            <path d="M287.473,508.574C282.506,510.528 273.737,510.351 267.429,507.55C284.168,535.404 306.08,532.166 316.07,528.516C316.168,527.502 316.169,526.936 316.169,526.936C306.601,520.758 298.462,511.458 294.205,502.558C292.647,505.152 290.656,507.32 287.473,508.574Z" style="fill:rgb(254,192,37);fill-rule:nonzero;"/>
        </g>
        <g transform="matrix(4.16667,0,0,4.16667,0,0)">
            <path d="M260.894,495.335C259.766,495.007 258.56,494.537 257.327,493.958L266.816,504.44C266.566,504.632 266.278,504.829 265.974,505.034C266.454,505.902 266.939,506.734 267.429,507.55C273.737,510.351 282.506,510.528 287.473,508.574C290.656,507.32 292.647,505.152 294.205,502.558C292.154,498.274 291.017,494.088 291.044,490.379C282.82,496.711 270.924,498.248 260.894,495.335Z" style="fill:rgb(40,153,186);fill-rule:nonzero;"/>
        </g>
        <g transform="matrix(4.16667,0,0,4.16667,0,0)">
            <path d="M328.648,483.168C334.093,480.16 336.453,482.139 337.588,485.623C337.903,479.285 336.88,472.317 332.816,466.239C324.467,464.49 318.013,471.161 316.584,479.742C319.868,481.604 322.571,484.304 324.762,487.266C325.708,485.525 327.003,484.076 328.648,483.168Z" style="fill:rgb(254,192,37);fill-rule:nonzero;"/>
        </g>
        <g transform="matrix(4.16667,0,0,4.16667,0,0)">
            <path d="M332.816,466.239C329.834,461.776 325.209,457.799 318.268,454.905C308.835,456.716 302.537,468.285 306.745,477.2C310.495,477.158 313.753,478.141 316.584,479.742C318.013,471.161 324.467,464.49 332.816,466.239Z" style="fill:rgb(40,153,186);fill-rule:nonzero;"/>
        </g>
        <g transform="matrix(4.16667,0,0,4.16667,0,0)">
            <path d="M337.588,485.623C336.453,482.139 334.093,480.16 328.648,483.168C327.003,484.076 325.708,485.525 324.762,487.266C330.643,495.219 332.853,504.985 332.853,504.985C332.853,504.985 337.068,496.182 337.588,485.623Z" style="fill:rgb(40,153,186);fill-rule:nonzero;"/>
        </g>
        <g transform="matrix(4.16667,0,0,4.16667,0,0)">
            <path d="M318.268,454.905C316.948,454.349 315.551,453.831 314.059,453.365C309.396,451.899 304.805,451.18 300.336,451.033C295.245,456.283 294.252,471.82 299.94,478.343C300.796,478.059 301.692,477.803 302.692,477.616C304.102,477.343 305.448,477.212 306.745,477.2C302.537,468.285 308.835,456.716 318.268,454.905Z" style="fill:rgb(254,192,37);fill-rule:nonzero;"/>
        </g>
        <g transform="matrix(4.16667,0,0,4.16667,0,0)">
            <path d="M265.064,465.949C264.607,464.649 264.204,463.132 263.969,461.556C252.988,468.113 245.456,475.644 243.538,477.652C249.445,483.287 258.155,485.057 266.427,485.626C275.445,486.243 284.082,486.638 292.36,484.459C292.744,483.69 293.208,482.97 293.765,482.302C282.407,481.736 268.938,477.042 265.064,465.949Z" style="fill:rgb(40,153,186);fill-rule:nonzero;"/>
        </g>
        <g transform="matrix(4.16667,0,0,4.16667,0,0)">
            <path d="M266.427,485.626C258.155,485.057 249.445,483.287 243.538,477.652C243.221,477.981 243.044,478.181 243.044,478.181L257.327,493.958C258.56,494.537 259.766,495.007 260.894,495.335C270.924,498.248 282.82,496.711 291.044,490.379C291.061,488.212 291.482,486.215 292.36,484.459C284.082,486.638 275.445,486.243 266.427,485.626Z" style="fill:rgb(254,192,37);fill-rule:nonzero;"/>
        </g>
        <g transform="matrix(4.16667,0,0,4.16667,0,0)">
            <path d="M300.336,451.033C294.688,450.847 289.237,451.582 284.092,452.918C283.27,458.63 285.486,465.742 287.66,469.836C290.339,474.891 293.418,477.671 297.569,479.33C298.291,478.957 299.087,478.63 299.94,478.343C294.252,471.82 295.245,456.283 300.336,451.033Z" style="fill:rgb(40,153,186);fill-rule:nonzero;"/>
        </g>
        <g transform="matrix(4.16667,0,0,4.16667,0,0)">
            <path d="M287.66,469.836C285.486,465.742 283.27,458.63 284.092,452.918C276.628,454.865 269.814,458.069 263.969,461.556C264.204,463.132 264.607,464.649 265.064,465.949C268.938,477.042 282.407,481.736 293.765,482.302C294.747,481.136 296.005,480.134 297.569,479.33C293.418,477.671 290.339,474.891 287.66,469.836Z" style="fill:rgb(254,192,37);fill-rule:nonzero;"/>
        </g>
        <g transform="matrix(4.16667,0,0,4.16667,0,0)">
            <path d="M265.974,505.034C263.719,506.538 260.05,508.38 255.957,510.248C259.364,517.77 262.881,525.165 268.513,531.921C278.639,544.084 293.408,548.64 308.612,549.668C314.39,540.072 315.757,531.839 316.07,528.516C305.786,532.271 282.875,535.603 265.974,505.034Z" style="fill:rgb(40,153,186);fill-rule:nonzero;"/>
        </g>
        <g transform="matrix(4.16667,0,0,4.16667,0,0)">
            <path d="M316.676,479.227C316.67,479.256 316.665,479.287 316.659,479.317C316.665,479.287 316.67,479.256 316.676,479.227ZM314.353,478.652C326.962,484.796 332.853,504.985 332.853,504.985C332.853,504.985 330.643,495.219 324.762,487.266C322.571,484.304 319.868,481.604 316.584,479.742C316.595,479.67 316.608,479.599 316.621,479.528C316.608,479.599 316.595,479.67 316.584,479.742C315.868,479.337 315.125,478.971 314.353,478.652Z" style="fill:rgb(230,221,221);fill-rule:nonzero;"/>
        </g>
        <g transform="matrix(4.16667,0,0,4.16667,0,0)">
            <path d="M318.367,474.126C317.598,475.691 317.024,477.412 316.676,479.227C316.67,479.256 316.665,479.287 316.659,479.317C316.646,479.387 316.633,479.458 316.621,479.528C316.608,479.599 316.595,479.67 316.584,479.742C319.868,481.604 322.571,484.304 324.762,487.266C325.27,486.332 325.878,485.48 326.588,484.752C324.194,480.054 321.406,476.593 318.367,474.126Z" style="fill:rgb(229,169,38);fill-rule:nonzero;"/>
        </g>
        <g transform="matrix(4.16667,0,0,4.16667,0,0)">
            <path d="M305.564,469.012C305.465,469.722 305.414,470.438 305.414,471.154C305.414,473.105 305.791,475.057 306.609,476.904C306.71,476.902 306.812,476.901 306.913,476.901C309.613,476.901 312.091,477.55 314.353,478.652C315.125,478.971 315.868,479.337 316.584,479.742C316.595,479.67 316.608,479.599 316.621,479.528C316.633,479.458 316.646,479.387 316.659,479.317C316.665,479.287 316.67,479.256 316.676,479.227C317.024,477.412 317.598,475.691 318.367,474.126C314.418,470.919 310.047,469.392 305.564,469.012Z" style="fill:rgb(49,136,164);fill-rule:nonzero;"/>
        </g>
        <g transform="matrix(4.16667,0,0,4.16667,0,0)">
            <path d="M326.588,484.752C325.878,485.48 325.27,486.332 324.762,487.266C330.643,495.219 332.853,504.985 332.853,504.985C331.364,496.543 329.213,489.904 326.588,484.752Z" style="fill:rgb(49,136,164);fill-rule:nonzero;"/>
        </g>
        <g transform="matrix(4.16667,0,0,4.16667,0,0)">
            <path d="M303.229,468.914C300.954,468.914 298.666,469.183 296.402,469.652C296.914,473.04 298.048,476.144 299.896,478.292C302.269,477.373 304.504,476.941 306.609,476.904C305.791,475.057 305.414,473.105 305.414,471.154C305.414,470.438 305.465,469.722 305.564,469.012C304.788,468.946 304.01,468.914 303.229,468.914Z" style="fill:rgb(229,169,38);fill-rule:nonzero;"/>
        </g>
        <g transform="matrix(4.16667,0,0,4.16667,0,0)">
            <path d="M316.169,526.936C316.169,526.936 316.168,527.502 316.07,528.516C315.757,531.839 314.39,540.072 308.612,549.668C297.255,548.9 286.142,546.164 277.024,539.759C286.142,546.164 297.255,548.9 308.612,549.668C304.798,556.01 299.036,562.935 290.373,569.441C287.213,571.814 283.668,574.129 279.685,576.338C279.703,576.377 279.725,576.424 279.744,576.463C317.173,556.332 316.169,526.936 316.169,526.936ZM285.535,526.334C285.534,526.335 285.533,526.337 285.532,526.339C291.561,529.743 297.522,530.894 302.805,530.894C305.339,530.894 307.719,530.628 309.873,530.22C307.721,530.628 305.347,530.892 302.815,530.892C297.53,530.892 291.566,529.74 285.535,526.334ZM293.507,501.022C293.726,501.532 293.959,502.044 294.205,502.558C292.647,505.152 290.656,507.32 287.473,508.574C287.403,508.601 287.333,508.628 287.262,508.655C287.333,508.628 287.403,508.601 287.473,508.574C290.656,507.32 292.647,505.152 294.205,502.558C298.077,510.653 305.16,519.079 313.609,525.185C308.301,521.006 298.481,510.959 293.507,501.022ZM277.772,486.112L277.759,486.112L277.772,486.112ZM266.427,485.626C270.27,485.888 274.043,486.111 277.749,486.112C274.043,486.111 270.27,485.888 266.427,485.626Z" style="fill:rgb(230,221,221);fill-rule:nonzero;"/>
        </g>
        <g transform="matrix(4.16667,0,0,4.16667,0,0)">
            <path d="M277.024,539.759C273.73,543.423 269.998,546.574 266.255,549.236C268.242,551.39 270.281,553.46 272.316,555.445C277.879,560.874 283.918,565.449 290.373,569.441C299.036,562.935 304.798,556.01 308.612,549.668C297.255,548.9 286.142,546.164 277.024,539.759Z" style="fill:rgb(229,169,38);fill-rule:nonzero;"/>
        </g>
        <g transform="matrix(4.16667,0,0,4.16667,0,0)">
            <path d="M266.255,549.236C265.614,549.692 264.974,550.132 264.334,550.56C269.665,557.638 274.883,566.136 279.685,576.338C283.668,574.129 287.213,571.814 290.373,569.441C283.918,565.449 277.879,560.874 272.316,555.445C270.281,553.46 268.242,551.39 266.255,549.236Z" style="fill:rgb(49,136,164);fill-rule:nonzero;"/>
        </g>
        <g transform="matrix(4.16667,0,0,4.16667,0,0)">
            <path d="M294.205,502.558C292.647,505.152 290.656,507.32 287.473,508.574C287.403,508.601 287.333,508.628 287.262,508.655C286.881,508.796 286.48,508.927 286.06,509.044C287.908,514.297 287.803,517.888 287.803,517.888C287.363,520.874 286.584,523.686 285.535,526.334C291.566,529.74 297.53,530.892 302.815,530.892C305.347,530.892 307.721,530.628 309.873,530.22C312.238,529.772 314.335,529.15 316.07,528.516C316.168,527.502 316.169,526.936 316.169,526.936C315.544,526.617 314.666,526.017 313.609,525.185C305.16,519.079 298.077,510.653 294.205,502.558Z" style="fill:rgb(229,169,38);fill-rule:nonzero;"/>
        </g>
        <g transform="matrix(4.16667,0,0,4.16667,0,0)">
            <path d="M290.463,490.814C286.935,493.383 282.78,495.105 278.411,496.006C282.443,500.732 284.746,505.308 286.06,509.044C286.48,508.927 286.881,508.796 287.262,508.655C287.333,508.628 287.403,508.601 287.473,508.574C290.656,507.32 292.647,505.152 294.205,502.558C293.959,502.044 293.726,501.532 293.507,501.022C291.753,497.518 290.603,494.029 290.463,490.814Z" style="fill:rgb(49,136,164);fill-rule:nonzero;"/>
        </g>
        <g transform="matrix(4.16667,0,0,4.16667,0,0)">
            <path d="M276.707,478.123C270.522,481.997 266.427,485.626 266.427,485.626C270.27,485.888 274.043,486.111 277.749,486.112L277.772,486.112C282.55,486.111 287.216,485.74 291.773,484.609C292.215,483.791 292.776,483.014 293.467,482.287C287.905,481.975 281.864,480.675 276.707,478.123Z" style="fill:rgb(49,136,164);fill-rule:nonzero;"/>
        </g>
        <g transform="matrix(4.16667,0,0,4.16667,0,0)">
            <path d="M291.773,484.609C287.216,485.74 282.55,486.111 277.772,486.112L277.749,486.112C274.043,486.111 270.27,485.888 266.427,485.626C271.551,488.982 275.448,492.535 278.411,496.006C282.78,495.105 286.935,493.383 290.463,490.814C290.367,488.584 290.757,486.487 291.773,484.609Z" style="fill:rgb(229,169,38);fill-rule:nonzero;"/>
        </g>
        <g transform="matrix(4.16667,0,0,4.16667,0,0)">
            <path d="M298.038,479.098C297.878,479.173 297.722,479.251 297.569,479.33C297.726,479.251 297.882,479.173 298.038,479.098Z" style="fill:rgb(230,221,221);fill-rule:nonzero;"/>
        </g>
        <g transform="matrix(4.16667,0,0,4.16667,0,0)">
            <path d="M296.402,469.652C293.838,470.182 291.306,470.97 288.866,471.917C291.265,475.682 294.026,477.915 297.569,479.33C297.722,479.251 297.878,479.173 298.038,479.098C298.667,478.796 299.285,478.528 299.896,478.292C298.048,476.144 296.914,473.04 296.402,469.652Z" style="fill:rgb(49,136,164);fill-rule:nonzero;"/>
        </g>
        <g transform="matrix(4.16667,0,0,4.16667,0,0)">
            <path d="M288.866,471.917C284.383,473.656 280.21,475.928 276.707,478.123C281.864,480.675 287.905,481.975 293.467,482.287C294.52,481.179 295.874,480.184 297.569,479.33C294.026,477.915 291.265,475.682 288.866,471.917Z" style="fill:rgb(229,169,38);fill-rule:nonzero;"/>
        </g>
        <g transform="matrix(4.16667,0,0,4.16667,0,0)">
            <path d="M285.532,526.339C283.52,531.416 280.517,535.877 277.024,539.759C286.142,546.164 297.255,548.9 308.612,549.668C314.39,540.072 315.757,531.839 316.07,528.516C314.335,529.15 312.238,529.772 309.873,530.22C307.719,530.628 305.339,530.894 302.805,530.894C297.522,530.894 291.561,529.743 285.532,526.339Z" style="fill:rgb(49,136,164);fill-rule:nonzero;"/>
        </g>
        <g transform="matrix(4.16667,0,0,4.16667,0,0)">
            <path d="M255.044,475.806C255.044,475.806 279.481,453.112 311.382,458.436C311.382,458.436 281.823,445.668 255.044,475.806Z" style="fill:white;fill-rule:nonzero;"/>
        </g>
        <g transform="matrix(4.16667,0,0,4.16667,0,0)">
            <path d="M133.253,471.558L133.61,470.917C133.61,470.917 122.678,459.891 107.582,454.225C105.25,454.712 103.057,455.412 101.253,456.214C90.862,460.85 85.978,468.939 84.003,478.973C90.874,479.422 94.265,483.817 95.061,490.076C101.575,468.794 123.593,468.131 133.253,471.558Z" style="fill:rgb(251,169,45);fill-rule:nonzero;"/>
        </g>
        <g transform="matrix(4.16667,0,0,4.16667,0,0)">
            <path d="M78.592,452.943C76.244,453.742 73.893,454.765 71.553,456.123C65.671,459.532 61.738,463.712 59.19,468.219C58.152,475.683 58.751,485.913 69.868,485.921L69.811,486.263C71.647,483.71 73.91,481.588 76.684,480.297C71.8,472.664 73.886,460.345 78.592,452.943Z" style="fill:rgb(251,169,45);fill-rule:nonzero;"/>
        </g>
        <g transform="matrix(4.16667,0,0,4.16667,0,0)">
            <path d="M103.998,555.32C106.297,547.701 110.44,539.82 115.341,533.57C122.209,524.812 133.243,519.293 144.161,516.551C138.491,515.936 132.267,514.261 126.606,510.544C120.053,512.286 113.782,515.522 108.244,519.071C98.314,525.425 88.997,536.348 84.845,548.396C88.349,554.643 93.717,561.624 101.898,567.755C102.017,563.638 102.844,559.138 103.998,555.32Z" style="fill:rgb(251,169,45);fill-rule:nonzero;"/>
        </g>
        <g transform="matrix(4.16667,0,0,4.16667,0,0)">
            <path d="M103.652,508.371C107.439,506.578 113.461,504.816 119.288,504.006C118.461,503.024 117.661,501.992 116.901,500.865L117.261,500.221C109.155,499.474 100.811,501.213 93.309,504.932C90.576,513.974 85.185,523.616 78.444,530.706C78.444,530.706 78.519,531.329 78.738,532.412C84.166,521.873 95.829,512.072 103.652,508.371Z" style="fill:rgb(251,169,45);fill-rule:nonzero;"/>
        </g>
        <g transform="matrix(4.16667,0,0,4.16667,0,0)">
            <path d="M133.253,471.558C123.593,468.131 101.575,468.794 95.061,490.076C95.607,494.371 94.936,499.54 93.309,504.932C100.811,501.213 109.155,499.474 117.261,500.221L133.253,471.558Z" style="fill:rgb(40,153,186);fill-rule:nonzero;"/>
        </g>
        <g transform="matrix(4.16667,0,0,4.16667,0,0)">
            <path d="M59.19,468.219C48.705,486.763 61.972,510.954 61.972,510.954C61.972,510.954 63.009,495.711 69.811,486.263L69.868,485.921C58.751,485.913 58.152,475.683 59.19,468.219Z" style="fill:rgb(40,153,186);fill-rule:nonzero;"/>
        </g>
        <g transform="matrix(4.16667,0,0,4.16667,0,0)">
            <path d="M101.253,456.214C103.057,455.412 105.25,454.712 107.582,454.225C98.873,450.957 88.781,449.495 78.592,452.943C73.886,460.345 71.8,472.664 76.684,480.297C78.776,479.321 81.151,478.804 83.875,478.963L84.003,478.973C85.978,468.939 90.862,460.85 101.253,456.214Z" style="fill:rgb(40,153,186);fill-rule:nonzero;"/>
        </g>
        <g transform="matrix(4.16667,0,0,4.16667,0,0)">
            <path d="M172.958,519.609C172.958,519.609 154.311,517.655 144.161,516.551C133.243,519.293 122.209,524.812 115.341,533.57C110.44,539.82 106.297,547.701 103.998,555.32C102.844,559.138 102.017,563.638 101.898,567.755C104.678,569.839 107.787,571.817 111.258,573.638L161.772,532.29C163.203,526.917 173.961,525.489 172.958,519.609Z" style="fill:rgb(40,153,186);fill-rule:nonzero;"/>
        </g>
        <g transform="matrix(4.16667,0,0,4.16667,0,0)">
            <path d="M126.606,510.544C124.008,508.833 121.536,506.676 119.288,504.006C113.461,504.816 107.439,506.578 103.652,508.371C95.829,512.072 84.166,521.873 78.738,532.412C79.309,535.25 80.894,541.34 84.845,548.396C88.997,536.348 98.314,525.425 108.244,519.071C113.782,515.522 120.053,512.286 126.606,510.544Z" style="fill:rgb(40,153,186);fill-rule:nonzero;"/>
        </g>
        <g transform="matrix(4.16667,0,0,4.16667,0,0)">
            <path d="M93.584,504.796C93.526,504.825 93.467,504.854 93.41,504.882C93.467,504.854 93.526,504.825 93.584,504.796ZM93.832,504.677C93.789,504.697 93.747,504.717 93.705,504.738C93.747,504.717 93.789,504.697 93.832,504.677ZM94.01,504.591C93.951,504.62 93.891,504.648 93.832,504.676C93.891,504.648 93.951,504.62 94.01,504.591ZM94.456,499.762C93.224,510.66 78.444,530.706 78.444,530.706C85.185,523.616 90.576,513.974 93.309,504.932C93.733,503.525 94.093,502.132 94.383,500.767C94.409,500.353 94.434,500.015 94.456,499.762ZM94.506,499.214C94.506,499.214 94.485,499.404 94.456,499.762C94.476,499.577 94.493,499.394 94.506,499.214Z" style="fill:rgb(230,221,221);fill-rule:nonzero;"/>
        </g>
        <g transform="matrix(4.16667,0,0,4.16667,0,0)">
            <path d="M94.256,504.475C94.174,504.513 94.092,504.552 94.01,504.591C93.951,504.62 93.891,504.648 93.832,504.676L93.832,504.677C93.789,504.697 93.747,504.717 93.705,504.738C93.664,504.757 93.625,504.777 93.584,504.796C93.526,504.825 93.467,504.854 93.41,504.882C93.376,504.899 93.342,504.916 93.309,504.932C90.576,513.974 85.185,523.616 78.444,530.706C78.561,531.235 78.682,531.756 78.809,532.275C82.404,525.368 88.661,518.788 94.74,514.048C94.33,510.328 94.234,507.017 94.256,504.475Z" style="fill:rgb(231,151,40);fill-rule:nonzero;"/>
        </g>
        <g transform="matrix(4.16667,0,0,4.16667,0,0)">
            <path d="M94.383,500.767C94.093,502.132 93.733,503.525 93.309,504.932C93.342,504.916 93.376,504.899 93.41,504.882C93.467,504.854 93.526,504.825 93.584,504.796C93.625,504.777 93.664,504.757 93.705,504.738C93.747,504.717 93.789,504.697 93.832,504.677L93.832,504.676C93.891,504.648 93.951,504.62 94.01,504.591C94.092,504.552 94.174,504.513 94.256,504.475C94.27,502.929 94.327,501.668 94.383,500.767Z" style="fill:rgb(49,136,164);fill-rule:nonzero;"/>
        </g>
        <g transform="matrix(4.16667,0,0,4.16667,0,0)">
            <path d="M96.018,562.778C100.836,567.633 105.713,571.123 109.527,573.458C109.619,573.257 109.713,573.054 109.806,572.856C106.914,571.255 104.284,569.544 101.898,567.755C99.75,566.145 97.795,564.476 96.018,562.778Z" style="fill:rgb(230,221,221);fill-rule:nonzero;"/>
        </g>
        <g transform="matrix(4.16667,0,0,4.16667,0,0)">
            <path d="M97.66,527.873C92.181,533.617 87.587,540.622 84.958,548.071C88.201,553.957 92.09,558.821 96.018,562.778C97.795,564.476 99.75,566.145 101.898,567.755C102.017,563.638 102.844,559.138 103.998,555.32C104.993,552.024 106.332,548.679 107.929,545.439C102.913,540.31 99.7,534.078 97.66,527.873Z" style="fill:rgb(231,151,40);fill-rule:nonzero;"/>
        </g>
        <g transform="matrix(4.16667,0,0,4.16667,0,0)">
            <path d="M107.929,545.439C106.332,548.679 104.993,552.024 103.998,555.32C102.844,559.138 102.017,563.638 101.898,567.755C104.284,569.544 106.914,571.255 109.806,572.856C113.045,565.909 116.498,559.474 120.093,553.696C115.17,551.608 111.172,548.754 107.929,545.439Z" style="fill:rgb(49,136,164);fill-rule:nonzero;"/>
        </g>
        <g transform="matrix(4.16667,0,0,4.16667,0,0)">
            <path d="M94.74,514.048C88.661,518.788 82.404,525.368 78.809,532.275C80.265,538.204 82.413,543.454 84.958,548.071C87.587,540.622 92.181,533.617 97.66,527.873C96.084,523.074 95.207,518.293 94.74,514.048Z" style="fill:rgb(49,136,164);fill-rule:nonzero;"/>
        </g>
        <g transform="matrix(4.16667,0,0,4.16667,0,0)">
            <path d="M121.758,471.244C121.758,471.244 111.072,455.59 80.053,457.324C80.053,457.324 106.772,459.54 121.758,471.244Z" style="fill:white;fill-rule:nonzero;"/>
        </g>
        <g transform="matrix(4.16667,0,0,4.16667,0,0)">
            <path d="M95.975,639.981C94.902,634.872 92.222,628.477 86.848,628.466C82.562,628.633 91.115,637.376 93.668,639.846C89.183,635.985 71.952,628.38 70.267,631.037C70.627,634.483 88.731,642.058 97.569,642.331C94.306,641.576 77.592,640.413 74.262,641.578C69.48,643.256 74.954,647.193 80.943,647.971C90.463,649.198 98.951,645.676 99.095,640.752C98.591,640.466 100.038,641.466 99.473,641.235L95.975,639.981Z" style="fill:rgb(247,143,30);fill-rule:nonzero;"/>
        </g>
        <g transform="matrix(4.16667,0,0,4.16667,0,0)">
            <path d="M223.446,505.836C220.217,504.938 216.837,505.349 213.896,506.275C212.716,506.657 211.604,507.108 210.568,507.595C210.765,507.272 210.957,506.942 211.163,506.619C213.652,502.682 216.876,499.104 220.419,496.84C223.937,494.585 227.793,493.585 230.849,494.036C230.038,493.411 229.16,492.884 228.226,492.458C227.299,491.961 226.312,491.594 225.286,491.328C223.233,490.762 221.006,490.631 218.764,491.013C214.26,491.704 209.781,494.476 206.138,498C202.594,501.362 199.874,505.5 197.982,508.963C197.409,506.742 196.659,504.347 195.726,501.958C194.326,498.404 192.51,494.902 190.483,492.15C189.472,490.78 188.405,489.605 187.353,488.717C186.312,487.792 185.239,487.286 184.399,486.784C185.71,489.574 186.692,492.874 187.4,496.379C188.121,499.87 188.549,503.521 188.824,506.791C188.866,507.228 188.884,507.639 188.917,508.063C187.72,506.423 185.378,503.798 182.135,501.955C177.905,499.49 172.411,498.22 166.655,498.369C160.897,498.477 154.851,499.687 149.26,501.624C147.858,502.086 146.491,502.62 145.162,503.169C143.83,503.707 142.536,504.259 141.298,504.844C138.814,505.989 136.537,507.231 134.54,508.324C139.476,507.581 145.089,507.325 150.702,507.692C156.308,508.021 161.922,508.834 166.753,510.423C171.585,511.992 175.588,514.222 178.079,516.517C180.62,518.716 181.712,520.664 182.11,521.112C182.502,521.589 182.945,521.909 183.467,522.128C183.729,522.246 183.998,522.335 184.282,522.417C184.61,522.443 184.971,522.447 185.277,522.494C186.428,522.716 188.093,522.498 188.879,521.956C189.251,521.697 189.732,521.101 190.153,520.291C190.39,520.478 190.662,520.663 190.939,520.84C191.864,521.409 193.043,521.951 194.224,522.118C194.386,522.142 194.553,522.139 194.719,522.137C194.957,522.896 195.366,523.643 195.749,524.213C196.176,524.84 196.672,525.341 197.238,525.698C197.801,526.059 198.391,526.248 198.971,526.32C199.535,526.372 200.219,526.382 200.74,526.205C201.009,526.124 201.273,526.018 201.523,525.885C201.784,525.763 202.049,525.625 202.256,525.436C202.689,525.065 203.051,524.59 203.312,523.994C203.43,523.736 203.641,523.114 203.943,522.242L204.027,522.417C205.001,524.3 206.101,525.717 207.065,526.554C208.027,527.387 208.853,527.636 209.376,527.054C209.638,526.768 210.453,525.438 211.729,523.596C213.009,521.765 214.76,519.425 216.856,517.279C218.948,515.129 221.383,513.177 223.935,512.168C226.462,511.117 229.23,511.056 231.304,512.242C229.602,509.188 226.682,506.69 223.446,505.836Z" style="fill:rgb(247,143,30);fill-rule:nonzero;"/>
        </g>
        <g transform="matrix(4.16667,0,0,4.16667,0,0)">
            <path d="M198.175,787.515C169.555,787.515 142.983,780.911 142.983,780.911C143.475,768.691 154.688,737.266 197.363,737.266C199.143,737.266 200.98,737.321 202.871,737.434C250.099,740.258 244.798,778.518 244.798,778.518C231.659,785.346 214.582,787.515 198.175,787.515ZM153.827,614.767C137.211,614.767 126.996,597.134 125.506,585.165C123.655,570.277 133.463,536.146 161.419,536.078C161.419,536.078 179.354,537.815 188.049,556.384C195.603,572.516 191.447,598.88 167.079,611.29C162.304,613.72 157.876,614.767 153.827,614.767ZM239.047,613.977C236.398,613.977 233.543,613.581 230.476,612.715C202.52,604.827 192.168,577.54 195.348,560.09C199.289,538.446 218.877,533.222 218.877,533.222C220.712,532.859 222.533,532.687 224.331,532.687C246.507,532.687 265.281,558.813 267.026,574.43C268.528,587.871 260.551,613.977 239.047,613.977ZM192.12,512.133C183.735,512.133 173.186,513.58 161.244,518.376C155.529,520.67 149.494,523.733 143.227,527.769C135.352,532.842 127.429,541.902 120.093,553.696C116.498,559.474 113.045,565.909 109.806,572.856C109.713,573.054 109.619,573.257 109.527,573.458C85.739,624.881 73.753,703.821 103.33,751.499C113.058,767.18 127.276,779.472 147.057,786.298C157.924,790.049 170.47,792.149 184.865,792.25C185.726,792.255 186.578,792.258 187.427,792.258C212.047,792.258 231.925,789.732 247.888,785.228C265.583,780.236 278.473,772.811 287.692,763.706C322.682,729.149 304.807,670.353 296.233,628.153C291.999,607.312 286.254,590.321 279.744,576.463C279.725,576.424 279.703,576.377 279.685,576.338C274.883,566.136 269.665,557.638 264.334,550.56C256.152,539.698 247.705,532.186 240.065,526.991C235.012,523.555 230.312,521.133 226.282,519.432C218.062,515.96 212.624,515.484 212.624,515.484C212.624,515.484 204.88,512.133 192.12,512.133Z" style="fill:url(#_Radial1);"/>
        </g>
        <g transform="matrix(4.16667,0,0,4.16667,0,0)">
            <path d="M235.732,609.812C233.425,609.812 230.953,609.506 228.312,608.845C203.388,602.601 194.575,578.882 198.543,562.148C203.107,542.883 219.417,537.322 219.417,537.322C221.772,536.769 224.039,536.512 226.219,536.512C248.044,536.512 260.964,562.287 261.945,575.3C262.912,588.099 255.193,609.812 235.732,609.812ZM224.331,532.687C222.533,532.687 220.712,532.859 218.877,533.222C218.877,533.222 199.289,538.446 195.348,560.09C192.168,577.54 202.52,604.827 230.476,612.715C233.543,613.581 236.398,613.977 239.047,613.977C260.551,613.977 268.528,587.871 267.026,574.43C265.281,558.813 246.507,532.687 224.331,532.687Z" style="fill:url(#_Radial2);"/>
        </g>
        <g transform="matrix(4.16667,0,0,4.16667,0,0)">
            <path d="M219.417,537.322C219.417,537.322 203.107,542.883 198.543,562.148C194.575,578.882 203.388,602.601 228.312,608.845C253.239,615.085 263.026,589.616 261.945,575.3C260.866,560.987 245.348,531.239 219.417,537.322Z" style="fill:rgb(200,131,47);fill-rule:nonzero;"/>
        </g>
        <g transform="matrix(4.16667,0,0,4.16667,0,0)">
            <path d="M221.148,539.564C221.148,539.564 205.845,542.517 200.42,558.876C195.701,573.091 202.253,594.933 224.699,603.337C247.141,611.743 257.744,590.553 257.672,577.87C257.605,565.186 245.3,537.274 221.148,539.564Z" style="fill:rgb(253,212,4);fill-rule:nonzero;"/>
        </g>
        <g transform="matrix(4.16667,0,0,4.16667,0,0)">
            <path d="M223.966,542.81C222.636,542.81 221.267,542.924 219.859,543.165C219.859,543.165 207.18,546.613 203.742,560.671C203.663,560.996 203.59,561.324 203.525,561.656C204.872,560.843 206.401,560.214 208.018,559.778C208.806,559.565 209.603,559.464 210.397,559.464C215.605,559.464 220.673,563.778 222.043,568.834C223.615,574.66 218.628,583.422 211.903,584.167C211.271,584.237 210.671,584.27 210.098,584.27C209.788,584.27 209.486,584.26 209.192,584.241C213.162,589.561 219.125,594.049 227.263,596.398C229.752,597.117 232.046,597.443 234.15,597.443C248.526,597.443 254.103,582.232 253.286,572.961C252.413,563.077 241.712,542.81 223.966,542.81Z" style="fill:rgb(252,225,78);fill-rule:nonzero;"/>
        </g>
        <g transform="matrix(4.16667,0,0,4.16667,0,0)">
            <path d="M208.018,559.778C202.058,561.388 197.278,565.607 198.516,572.011C199.665,577.938 202.338,585.226 211.903,584.167C218.628,583.422 223.615,574.66 222.043,568.834C220.465,563.007 213.974,558.168 208.018,559.778Z" style="fill:rgb(88,118,53);fill-rule:nonzero;"/>
        </g>
        <g transform="matrix(4.16667,0,0,4.16667,0,0)">
            <path d="M208.894,580.163C208.521,580.163 208.16,580.119 207.848,579.949C206.728,579.334 205.944,577.318 204.716,576.396C202.654,574.847 203.241,574.85 202.595,572.466C202.021,570.332 201.007,570.09 202.053,567.98C202.679,566.717 203.789,564.806 204.824,564.117C205.816,563.467 209.013,562.47 210.059,562.266C210.274,562.224 210.483,562.205 210.687,562.205C212.167,562.205 213.386,563.216 214.551,564.007C215.977,564.977 216.915,565.955 217.681,567.474C218.389,568.874 218.668,570.198 218.464,571.794C218.376,572.516 218.026,572.99 217.955,573.844C217.866,574.876 218.564,575.159 218.023,576.175C217.704,576.779 216.667,576.765 216.339,577.153C215.906,577.659 216.043,578.544 215.539,579.005C215.385,579.145 215.194,579.306 214.98,579.472L215.205,579.394C215.07,579.464 214.941,579.531 214.818,579.594C214.147,580.095 213.299,580.602 212.654,580.664C212.4,580.767 212.242,580.81 212.128,580.81C211.734,580.81 211.87,580.308 210.47,580.13C210.354,580.116 210.232,580.11 210.106,580.11C209.915,580.11 209.713,580.123 209.509,580.136C209.305,580.149 209.098,580.163 208.894,580.163ZM209.254,560.809C207.645,560.809 206.085,561.227 204.751,562.157C200.434,565.164 197.851,570.076 200.789,575.204C202.897,578.891 206.001,583.029 210.753,583.029C212.112,583.029 213.605,582.691 215.25,581.907C220.451,579.426 221.828,570.579 218.795,566.04C216.7,562.903 212.855,560.809 209.254,560.809Z" style="fill:url(#_Radial3);"/>
        </g>
        <g transform="matrix(4.16667,0,0,4.16667,0,0)">
            <path d="M210.687,562.205C210.483,562.205 210.274,562.224 210.059,562.266C209.013,562.47 205.816,563.467 204.824,564.117C203.789,564.806 202.679,566.717 202.053,567.98C201.007,570.09 202.021,570.332 202.595,572.466C203.241,574.85 202.654,574.847 204.716,576.396C205.944,577.318 206.728,579.334 207.848,579.949C208.16,580.119 208.521,580.163 208.894,580.163C209.098,580.163 209.305,580.149 209.509,580.136C209.713,580.123 209.915,580.11 210.106,580.11C210.232,580.11 210.354,580.116 210.47,580.13C211.87,580.308 211.734,580.81 212.128,580.81C212.242,580.81 212.4,580.767 212.654,580.664C213.299,580.602 214.147,580.095 214.818,579.594C214.941,579.531 215.07,579.464 215.205,579.394L214.98,579.472C215.194,579.306 215.385,579.145 215.539,579.005C216.043,578.544 215.906,577.659 216.339,577.153C216.667,576.765 217.704,576.779 218.023,576.175C218.564,575.159 217.866,574.876 217.955,573.844C218.026,572.99 218.376,572.516 218.464,571.794C218.668,570.198 218.389,568.874 217.681,567.474C216.915,565.955 215.977,564.977 214.551,564.007C213.386,563.216 212.167,562.205 210.687,562.205Z" style="fill:url(#_Radial4);"/>
        </g>
        <g transform="matrix(4.16667,0,0,4.16667,0,0)">
            <path d="M209.062,566.421C206.024,567.242 204.244,570.455 205.097,573.595C205.942,576.736 209.095,578.616 212.141,577.795C215.178,576.973 216.954,573.759 216.103,570.621C215.254,567.478 212.102,565.599 209.062,566.421Z" style="fill:rgb(70,93,42);fill-rule:nonzero;"/>
        </g>
        <g transform="matrix(4.16667,0,0,4.16667,0,0)">
            <path d="M216.089,561.342C213.189,562.13 211.492,565.195 212.303,568.198C213.112,571.196 216.125,572.991 219.025,572.21C221.933,571.42 223.63,568.351 222.818,565.352C222.008,562.355 218.997,560.559 216.089,561.342Z" style="fill:white;fill-rule:nonzero;"/>
        </g>
        <g transform="matrix(4.16667,0,0,4.16667,0,0)">
            <path d="M156.253,606.382C143.267,606.382 134.252,593.559 132.252,584.19C129.618,571.826 135.644,542.028 159.65,539.104C159.65,539.104 159.689,539.103 159.762,539.103C161.17,539.103 175.604,539.451 183.942,553.491C191.563,566.318 189.844,588.979 169.79,601.941C164.94,605.077 160.394,606.382 156.253,606.382ZM161.419,536.078C133.463,536.146 123.655,570.277 125.506,585.165C126.996,597.134 137.211,614.767 153.827,614.767C157.876,614.767 162.304,613.72 167.079,611.29C191.447,598.88 195.603,572.516 188.049,556.384C179.354,537.815 161.419,536.078 161.419,536.078Z" style="fill:url(#_Radial5);"/>
        </g>
        <g transform="matrix(4.16667,0,0,4.16667,0,0)">
            <path d="M159.65,539.104C159.65,539.104 175.17,538.719 183.942,553.491C191.563,566.318 189.844,588.979 169.79,601.941C149.731,614.913 134.891,596.546 132.252,584.19C129.618,571.826 135.644,542.028 159.65,539.104Z" style="fill:rgb(200,131,47);fill-rule:nonzero;"/>
        </g>
        <g transform="matrix(4.16667,0,0,4.16667,0,0)">
            <path d="M162.316,541.045C162.316,541.045 176.757,541.763 183.755,556.057C189.842,568.478 186.5,589.355 166.886,599.986C147.272,610.616 134.908,592.569 133.413,580.927C131.922,569.287 139.811,542.091 162.316,541.045Z" style="fill:rgb(253,212,4);fill-rule:nonzero;"/>
        </g>
        <g transform="matrix(4.16667,0,0,4.16667,0,0)">
            <path d="M165.706,549.538C148.648,550.331 142.669,570.943 143.8,579.765C144.692,586.71 150.682,596.658 160.44,596.658C163.082,596.658 166.002,595.928 169.17,594.211C173.004,592.133 176.018,589.539 178.3,586.67C177.025,587.068 175.847,587.247 174.755,587.247C169.165,587.247 165.868,582.542 163.708,578.374C160.742,572.658 164.088,567.331 169.275,564.141C170.802,563.202 172.528,562.779 174.285,562.779C177.794,562.779 181.424,564.469 183.808,567.107C183.493,564.867 182.862,562.767 181.955,560.916C176.651,550.083 165.706,549.538 165.706,549.538Z" style="fill:rgb(252,225,78);fill-rule:nonzero;"/>
        </g>
        <g transform="matrix(4.16667,0,0,4.16667,0,0)">
            <path d="M169.275,564.141C164.088,567.331 160.742,572.658 163.708,578.374C166.447,583.659 171.013,589.808 179.769,586.131C185.924,583.546 188.194,573.86 185.073,568.789C181.954,563.714 174.459,560.951 169.275,564.141Z" style="fill:rgb(88,118,53);fill-rule:nonzero;"/>
        </g>
        <g transform="matrix(4.16667,0,0,4.16667,0,0)">
            <path d="M175.076,583.304C174.968,583.304 174.861,583.294 174.755,583.271C173.52,583.003 172.214,581.318 170.793,580.788C168.413,579.898 168.967,579.736 167.695,577.664C166.548,575.799 165.526,575.86 165.924,573.569C166.161,572.199 166.68,570.076 167.467,569.14C168.222,568.248 170.968,566.407 171.901,565.921C172.414,565.655 172.935,565.553 173.457,565.553C174.538,565.553 175.62,565.992 176.638,566.317C178.256,566.834 179.418,567.497 180.57,568.72C181.631,569.849 182.263,571.022 182.519,572.589C182.637,573.295 182.436,573.84 182.607,574.674C182.811,575.673 183.552,575.744 183.323,576.857C183.188,577.518 182.209,577.796 182.003,578.255C181.737,578.851 182.111,579.656 181.765,580.229C181.658,580.405 181.522,580.611 181.365,580.829L181.559,580.691C181.45,580.796 181.345,580.896 181.246,580.992C180.75,581.653 180.091,582.367 179.498,582.605C179.216,582.833 179.064,582.906 178.94,582.906C178.826,582.906 178.736,582.842 178.59,582.779C178.445,582.715 178.243,582.652 177.905,582.652C177.736,582.652 177.533,582.668 177.286,582.708C176.601,582.819 175.821,583.304 175.076,583.304ZM173.648,564.365C170.996,564.365 168.46,565.291 166.848,567.305C163.606,571.358 162.535,576.726 166.746,580.759C169.271,583.174 172.539,585.695 176.162,585.695C178.125,585.695 180.192,584.955 182.303,583.056C186.53,579.256 185.359,570.502 181.223,567.05C179.141,565.316 176.335,564.365 173.648,564.365Z" style="fill:url(#_Radial6);"/>
        </g>
        <g transform="matrix(4.16667,0,0,4.16667,0,0)">
            <path d="M173.457,565.553C172.935,565.553 172.414,565.655 171.901,565.921C170.968,566.407 168.222,568.248 167.467,569.14C166.68,570.076 166.161,572.199 165.924,573.569C165.526,575.86 166.548,575.799 167.695,577.664C168.967,579.736 168.413,579.898 170.793,580.788C172.214,581.318 173.52,583.003 174.755,583.271C174.861,583.294 174.968,583.304 175.076,583.304C175.821,583.304 176.601,582.819 177.286,582.708C177.533,582.668 177.736,582.652 177.905,582.652C178.243,582.652 178.445,582.715 178.59,582.779C178.736,582.842 178.826,582.906 178.94,582.906C179.064,582.906 179.216,582.833 179.498,582.605C180.091,582.367 180.75,581.653 181.246,580.992C181.345,580.896 181.45,580.796 181.559,580.691L181.365,580.829C181.522,580.611 181.658,580.405 181.765,580.229C182.111,579.656 181.737,578.851 182.003,578.255C182.209,577.796 183.188,577.518 183.323,576.857C183.552,575.744 182.811,575.673 182.607,574.674C182.436,573.84 182.637,573.295 182.519,572.589C182.263,571.022 181.631,569.849 180.57,568.72C179.418,567.497 178.256,566.834 176.638,566.317C175.62,565.992 174.538,565.553 173.457,565.553Z" style="fill:url(#_Radial7);"/>
        </g>
        <g transform="matrix(4.16667,0,0,4.16667,0,0)">
            <path d="M172.122,570.133C169.471,571.762 168.692,575.298 170.372,578.032C172.055,580.765 175.562,581.662 178.21,580.032C180.856,578.405 181.639,574.872 179.954,572.138C178.274,569.406 174.765,568.506 172.122,570.133Z" style="fill:rgb(70,93,42);fill-rule:nonzero;"/>
        </g>
        <g transform="matrix(4.16667,0,0,4.16667,0,0)">
            <path d="M177.353,563.368C174.823,564.918 174.074,568.296 175.684,570.906C177.287,573.521 180.639,574.375 183.166,572.821C185.693,571.268 186.437,567.887 184.837,565.278C183.23,562.668 179.879,561.81 177.353,563.368Z" style="fill:white;fill-rule:nonzero;"/>
        </g>
        <g transform="matrix(4.16667,0,0,4.16667,0,0)">
            <path d="M257.628,613.442C255.76,613.331 253.968,613.345 252.239,613.438L253.389,613.445C255.793,637.707 240.533,636.879 240.533,636.879C231.095,656.127 217.59,646.091 217.59,646.091C203.935,661.158 192.131,650.288 192.131,650.288C174.276,659.502 165.016,647.796 165.016,647.796C154.824,651.148 150.665,637.763 150.665,637.763L143.867,640.277C137.956,637.029 139.28,622.198 140.167,615.728C123.758,613.799 113.403,624.987 112.507,638.62C111.578,652.844 127.813,672.035 163.581,684.215C201.168,697.016 256.339,687.9 271.803,653.593C287.268,619.281 257.628,613.442 257.628,613.442Z" style="fill:rgb(223,128,38);fill-rule:nonzero;"/>
        </g>
        <g transform="matrix(4.16667,0,0,4.16667,0,0)">
            <path d="M258.421,609.167C256.543,609.045 254.74,609.055 253.002,609.144L254.159,609.155C256.655,633.887 241.307,632.995 241.307,632.995C232.558,647.984 218.265,642.307 218.265,642.307C204.582,657.618 192.677,646.502 192.677,646.502C174.751,655.835 165.399,643.875 165.399,643.875C155.161,647.257 150.936,633.605 150.936,633.605L144.107,636.142C138.153,632.814 139.437,617.705 140.308,611.115C123.799,609.096 113.423,620.462 112.566,634.353C111.678,648.846 123.546,665.687 159.342,678.812C187.448,689.118 257.367,685.04 272.807,650.128C288.247,615.212 258.421,609.167 258.421,609.167Z" style="fill:rgb(112,45,89);fill-rule:nonzero;"/>
        </g>
        <g transform="matrix(4.16667,0,0,4.16667,0,0)">
            <path d="M143.879,640.255L150.936,633.605C150.936,633.605 155.161,647.257 165.399,643.875C165.399,643.875 174.751,655.835 192.677,646.502C192.677,646.502 204.582,657.618 218.265,642.307C218.265,642.307 233.075,649.006 241.307,632.995C241.307,632.995 255.673,659.134 259.511,609.928L253.002,609.144C228.679,610.373 215.402,630.272 197.856,631.265C159.512,633.427 165.474,615.741 142.47,611.418C141.731,611.277 136.19,610.91 135.476,610.822C130.336,619.337 136.706,640.294 143.879,640.255Z" style="fill:white;fill-rule:nonzero;"/>
        </g>
        <g transform="matrix(4.16667,0,0,4.16667,0,0)">
            <path d="M199.139,631.897C199.139,631.897 193.689,638.147 192.159,646.186C192.105,646.468 192.054,646.754 192.011,647.043C192.011,647.043 192.596,634.973 186.15,631.886C186.15,631.886 196.675,632.61 199.139,631.897Z" style="fill:rgb(227,227,227);fill-rule:nonzero;"/>
        </g>
        <g transform="matrix(4.16667,0,0,4.16667,0,0)">
            <path d="M242.633,611.144C242.633,611.144 240.111,618.377 241.451,632.978C241.451,632.978 240.203,619.184 231.535,616.063C231.535,616.063 237.703,611.696 242.633,611.144Z" style="fill:rgb(227,227,227);fill-rule:nonzero;"/>
        </g>
        <g transform="matrix(4.16667,0,0,4.16667,0,0)">
            <path d="M223.966,620.314C223.966,620.314 217.956,628.614 217.907,640.613C217.907,640.613 214.73,629.517 209.314,628.215C209.314,628.215 221.56,621.127 223.966,620.314Z" style="fill:rgb(227,227,227);fill-rule:nonzero;"/>
        </g>
        <g transform="matrix(4.16667,0,0,4.16667,0,0)">
            <path d="M149.845,634.571C149.845,634.571 150.106,622.002 161.182,621.861C161.182,621.861 153.684,614.242 147.112,612.523C147.112,612.523 151.028,617.812 149.845,634.571Z" style="fill:rgb(227,227,227);fill-rule:nonzero;"/>
        </g>
        <g transform="matrix(4.16667,0,0,4.16667,0,0)">
            <path d="M164.217,644.007C164.217,644.007 167.897,629.832 177.877,629.812C177.877,629.812 169.877,627.705 163.889,623.738C163.889,623.738 168.068,631.177 164.217,644.007Z" style="fill:rgb(227,227,227);fill-rule:nonzero;"/>
        </g>
        <g transform="matrix(4.16667,0,0,4.16667,0,0)">
            <path d="M152.106,674.975C152.106,674.975 153.378,658.291 178.508,657.19C189.724,656.699 198.512,658.9 206.875,663.95C213.045,655.028 241.798,643.786 266.376,659.739C266.376,659.739 253.362,675.303 220.05,683.878C198.945,689.315 160.464,682.26 152.106,674.975Z" style="fill:rgb(227,77,112);fill-rule:nonzero;"/>
        </g>
        <g transform="matrix(4.16667,0,0,4.16667,0,0)">
            <path d="M206.875,663.95C202.085,658.186 187.726,657.743 187.726,657.743C187.726,657.743 208.37,666.889 210.168,675.684L206.875,663.95Z" style="fill:rgb(197,68,97);fill-rule:nonzero;"/>
        </g>
        <g transform="matrix(4.16667,0,0,4.16667,0,0)">
            <path d="M161.515,666.09C161.881,667.847 166.453,668.381 171.726,667.279C176.997,666.18 180.975,663.862 180.609,662.105C180.243,660.347 175.669,659.819 170.397,660.915C165.124,662.015 161.149,664.333 161.515,666.09Z" style="fill:rgb(252,221,221);fill-rule:nonzero;"/>
        </g>
        <g transform="matrix(4.16667,0,0,4.16667,0,0)">
            <path d="M264.088,697.983C264.088,697.983 259.398,719.246 253.038,717.453C246.675,715.66 249.055,701.316 249.055,701.316C249.055,701.316 250.052,713.324 253.822,713.732C258.317,714.218 264.088,697.983 264.088,697.983Z" style="fill:rgb(223,128,38);fill-rule:nonzero;"/>
        </g>
        <g transform="matrix(4.16667,0,0,4.16667,0,0)">
            <path d="M113.116,684.96C113.116,684.96 111.92,702.196 118.22,702.001C124.524,701.805 126.053,690.222 126.053,690.222C126.053,690.222 122.044,699.123 118.477,698.742C114.224,698.291 113.116,684.96 113.116,684.96Z" style="fill:rgb(223,128,38);fill-rule:nonzero;"/>
        </g>
        <g transform="matrix(4.16667,0,0,4.16667,0,0)">
            <path d="M274.873,684.446C274.873,684.446 272.997,701.335 267.331,700.506C261.666,699.678 262.255,688.352 262.255,688.352C262.255,688.352 264.335,697.569 267.627,697.553C271.554,697.534 274.873,684.446 274.873,684.446Z" style="fill:rgb(223,128,38);fill-rule:nonzero;"/>
        </g>
        <g transform="matrix(4.16667,0,0,4.16667,0,0)">
            <path d="M141.659,680.244C141.659,680.244 138.361,687.947 132.273,686.203C130.075,685.574 128.524,683.09 127.49,680.619C127.118,680.857 127.571,680.546 127.169,680.707C127.877,684.376 128.667,688.83 132.446,688.984C139.548,689.272 141.659,680.244 141.659,680.244Z" style="fill:rgb(223,128,38);fill-rule:nonzero;"/>
        </g>
        <g transform="matrix(4.16667,0,0,4.16667,0,0)">
            <path d="M226.24,695.566C226.24,695.566 196.44,701.431 164.635,689.845C164.635,689.845 190.347,706.502 226.24,695.566Z" style="fill:rgb(223,128,38);fill-rule:nonzero;"/>
        </g>
        <g transform="matrix(4.16667,0,0,4.16667,0,0)">
            <path d="M197.363,737.266C154.688,737.266 143.475,768.691 142.983,780.911C142.983,780.911 169.555,787.515 198.175,787.515C214.582,787.515 231.659,785.346 244.798,778.518C244.798,778.518 250.099,740.258 202.871,737.434C200.98,737.321 199.143,737.266 197.363,737.266Z" style="fill:url(#_Radial8);"/>
        </g>
    </g>
</svg>
