<?xml version="1.0" encoding="UTF-8" standalone="no"?>
<svg width="100%" height="100%" viewBox="0 0 715 653" version="1.1" xmlns="http://www.w3.org/2000/svg" xmlns:xlink="http://www.w3.org/1999/xlink" xml:space="preserve" style="fill-rule:evenodd;clip-rule:evenodd;stroke-linejoin:round;stroke-miterlimit:2;">
    <g transform="matrix(4.16667,0,0,4.16667,-878,-3921.21)">
        <path d="M381.181,1043.41C381.146,1043.88 381.138,1044.34 381.161,1044.78L381.161,1044.79C380.044,1051.1 378.069,1057.5 375.589,1063.36C376.265,1053.17 366.638,1035.92 356.547,1033.17C346.455,1030.42 338.191,1036.84 341.043,1044.79C343.906,1052.75 351.652,1052.13 357.504,1062.02C361.396,1068.62 360.097,1077.69 358.802,1083.01C341.643,1094.56 317.32,1095.26 289.615,1091.61C276.652,1089.89 266.943,1085.16 259.773,1079.67C259.512,1075.28 260.743,1068.85 267.52,1062.02C279.764,1049.69 288.639,1050.12 295.977,1048.53C303.316,1046.94 314.637,1033.47 295.977,1027.67C277.326,1021.85 247.043,1039.2 240.764,1050.1C240.289,1044.94 240.594,1039.75 241.586,1034.76L241.586,1034.75C241.971,1033.8 252.129,1009.45 275.613,1002.82C299.572,996.052 331.145,1015.5 331.145,1015.5C331.145,1015.5 353.693,1009.3 365.815,1011.27C377.937,1013.25 382.185,1029.6 381.181,1043.41Z" style="fill:rgb(247,241,204);fill-rule:nonzero;"/>
    </g>
    <g transform="matrix(4.16667,0,0,4.16667,-878,-3921.21)">
        <path d="M327.525,1051.24C327.525,1051.24 312.168,1049.67 306.842,1057.32C301.459,1065.04 309.703,1070.94 320.225,1072.46C330.354,1073.92 339.084,1070.74 340.715,1066.93C343,1061.59 343.445,1052.25 327.525,1051.24Z" style="fill:rgb(80,78,80);fill-rule:nonzero;"/>
    </g>
    <g transform="matrix(4.16667,0,0,4.16667,-878,-3921.21)">
        <path d="M328.338,1052.75C328.338,1052.75 316.346,1051.31 311.195,1056.16C306.041,1061.02 319.799,1063.16 325.34,1063.37C330.887,1063.58 352.604,1057.01 328.338,1052.75Z" style="fill:rgb(103,103,103);fill-rule:nonzero;"/>
    </g>
    <g transform="matrix(4.16667,0,0,4.16667,-878,-3921.21)">
        <path d="M324.785,1077.32C324.785,1077.32 296.688,1077.53 295.057,1071.21C293.424,1064.89 290.566,1071.41 293.016,1075.29C295.463,1079.16 311.168,1081.4 326.055,1081.4C340.943,1081.4 344.41,1077.34 345.635,1074.98C346.857,1072.64 344,1072.85 341.045,1074.98C338.09,1077.12 333.273,1077.32 324.785,1077.32Z" style="fill:rgb(142,138,119);fill-rule:nonzero;"/>
    </g>
    <g transform="matrix(4.16667,0,0,4.16667,-878,-3921.21)">
        <path d="M295.977,1048.53C288.639,1050.12 279.764,1049.69 267.52,1062.02C260.743,1068.85 259.512,1075.28 259.773,1079.67C246.311,1069.37 241.801,1056.43 241.598,1055.82C241.586,1055.81 241.586,1055.8 241.586,1055.8C241.203,1053.92 240.932,1052.01 240.764,1050.1C247.043,1039.2 277.326,1021.85 295.977,1027.67C314.637,1033.47 303.316,1046.94 295.977,1048.53Z" style="fill:rgb(77,75,66);fill-rule:nonzero;"/>
    </g>
    <g transform="matrix(4.16667,0,0,4.16667,-878,-3921.21)">
        <path d="M375.589,1063.36L375.589,1063.37C375.263,1064.15 374.925,1064.91 374.575,1065.66C370.403,1073.12 365.081,1078.8 358.802,1083.01C360.097,1077.69 361.396,1068.62 357.504,1062.02C351.652,1052.13 343.906,1052.75 341.043,1044.79C338.191,1036.84 346.455,1030.42 356.547,1033.17C366.638,1035.92 376.265,1053.17 375.589,1063.36Z" style="fill:rgb(77,75,66);fill-rule:nonzero;"/>
    </g>
    <g transform="matrix(4.16667,0,0,4.16667,-878,-3921.21)">
        <path d="M381.959,1029.13C381.959,1029.13 381.244,1028.48 380.822,1025.16C380.822,1025.16 380.203,1022.67 380.093,1022.5C379.931,1022.15 379.218,1019.92 379.196,1019.89C370.985,1006.12 352.924,1007.32 342.529,1009.25C331.734,1011.26 332.095,1013.1 332.095,1013.1C339.212,1018.65 324.258,1009.24 326.184,1010.38C330.436,1012.88 317.904,1005.05 317.455,1004.94C292.967,998.904 263.445,996.167 248.684,1019.64C233.922,1043.13 239.734,1062.86 257.315,1083.16C257.315,1083.16 207.108,1066.83 210.928,1039.08C217.281,992.921 226.881,992.635 225.554,1001.21C223.887,1011.98 210.251,1039.48 210.928,1039.08C212.801,1029.88 209.736,1013.34 224.285,989.904C245.559,955.63 294.182,956.221 294.182,956.221C296.203,956.14 298.186,956.091 300.139,956.091C303.963,954.925 311.67,951.19 303.811,941.09C303.811,941.09 316.811,943.976 317.535,953.375C317.535,953.375 318.984,947.107 326.207,945.183C326.207,945.183 321.367,957.179 330.586,958.908C331.219,959.03 331.582,959.18 331.693,959.36C344.792,962.474 355.148,969.402 363.12,978.176C376.629,993.045 380.409,1013.22 381.959,1029.13Z" style="fill:rgb(193,163,129);fill-rule:nonzero;"/>
    </g>
    <g transform="matrix(4.16667,0,0,4.16667,-878,-3921.21)">
        <path d="M284.504,1037.75C284.504,1043.09 288.836,1047.43 294.182,1047.43C299.527,1047.43 303.859,1043.09 303.859,1037.75C303.859,1032.4 299.527,1028.07 294.182,1028.07C288.836,1028.07 284.504,1032.4 284.504,1037.75Z" style="fill:rgb(3,4,5);fill-rule:nonzero;"/>
    </g>
    <g transform="matrix(4.16667,0,0,4.16667,-878,-3921.21)">
        <path d="M340.949,1042.36C340.949,1047.25 344.918,1051.21 349.809,1051.21C354.701,1051.21 358.667,1047.25 358.667,1042.36C358.667,1037.46 354.701,1033.5 349.809,1033.5C344.918,1033.5 340.949,1037.46 340.949,1042.36Z" style="fill:rgb(3,4,5);fill-rule:nonzero;"/>
    </g>
    <g transform="matrix(4.16667,0,0,4.16667,-878,-3921.21)">
        <path d="M300.104,1034.79C300.104,1033.15 298.777,1031.83 297.141,1031.83C295.508,1031.83 294.182,1033.15 294.182,1034.79C294.182,1036.42 295.508,1037.75 297.141,1037.75C298.777,1037.75 300.104,1036.42 300.104,1034.79Z" style="fill:white;fill-rule:nonzero;"/>
    </g>
    <g transform="matrix(4.16667,0,0,4.16667,-878,-3921.21)">
        <path d="M356.391,1040.06C356.391,1038.42 355.064,1037.1 353.43,1037.1C351.795,1037.1 350.469,1038.42 350.469,1040.06C350.469,1041.69 351.795,1043.02 353.43,1043.02C355.064,1043.02 356.391,1041.69 356.391,1040.06Z" style="fill:white;fill-rule:nonzero;"/>
    </g>
    <g transform="matrix(4.16667,0,0,4.16667,-878,-3921.21)">
        <path d="M381.181,1043.41C382.185,1029.6 377.937,1013.25 365.815,1011.27C353.693,1009.3 331.145,1015.5 331.145,1015.5C331.145,1015.5 299.572,996.052 275.613,1002.82C252.129,1009.45 241.971,1033.8 241.586,1034.75C245.193,1016.53 258.014,1000.76 276.695,997.992C309.742,993.098 331.762,1012.67 331.762,1012.67C376.345,995.588 385.603,1019.49 381.161,1044.78C381.138,1044.34 381.146,1043.88 381.181,1043.41Z" style="fill:rgb(119,101,80);fill-rule:nonzero;"/>
    </g>
    <g transform="matrix(4.16667,0,0,4.16667,-878,-3921.21)">
        <path d="M358.802,1083.01C358.157,1085.67 357.504,1087.38 357.504,1087.38C336.07,1100.35 287.295,1102.45 261.146,1085.4L261.146,1085.39C261.036,1085.17 259.965,1083.02 259.773,1079.67C266.943,1085.16 276.652,1089.89 289.615,1091.61C317.32,1095.26 341.643,1094.56 358.802,1083.01Z" style="fill:rgb(210,200,159);fill-rule:nonzero;"/>
    </g>
    <g transform="matrix(4.16667,0,0,4.16667,-878,-3921.21)">
        <path d="M374.575,1065.66C370.753,1074.01 365.925,1081.04 361.134,1084.87C360.03,1085.76 358.823,1086.58 357.504,1087.38C357.504,1087.38 358.157,1085.67 358.802,1083.01C365.081,1078.8 370.403,1073.12 374.575,1065.66Z" style="fill:rgb(59,58,51);fill-rule:nonzero;"/>
    </g>
    <g transform="matrix(4.16667,0,0,4.16667,-878,-3921.21)">
        <path d="M261.146,1085.39C257.191,1082.81 253.764,1079.79 251,1076.31C246.127,1070.14 243.064,1063.09 241.598,1055.82C241.801,1056.43 246.311,1069.37 259.773,1079.67C259.965,1083.02 261.036,1085.17 261.146,1085.39Z" style="fill:rgb(59,58,51);fill-rule:nonzero;"/>
    </g>
</svg>
