<?xml version="1.0" encoding="UTF-8" standalone="no"?>
<svg width="100%" height="100%" viewBox="0 0 1608 1480" version="1.1" xmlns="http://www.w3.org/2000/svg" xmlns:xlink="http://www.w3.org/1999/xlink" xml:space="preserve" style="fill-rule:evenodd;clip-rule:evenodd;stroke-linejoin:round;stroke-miterlimit:2;">
    <g transform="matrix(4.16667,0,0,4.16667,-1608.98,-2539.21)">
        <path d="M549.882,941.275C549.882,941.275 548.543,954.8 550.254,958.623C551.966,962.443 547.708,958.666 546.428,956.113C545.146,953.558 544.588,936.046 547.37,935.857C550.151,935.667 548.966,935.146 549.882,941.275Z" style="fill:rgb(35,31,32);fill-rule:nonzero;"/>
    </g>
    <g transform="matrix(4.16667,0,0,4.16667,-1608.98,-2539.21)">
        <path d="M543.823,945.59C543.823,945.59 542.486,959.115 544.197,962.937C545.908,966.757 541.651,962.981 540.369,960.429C539.089,957.875 538.53,940.363 541.313,940.171C544.094,939.982 542.908,939.46 543.823,945.59Z" style="fill:rgb(35,31,32);fill-rule:nonzero;"/>
    </g>
    <g transform="matrix(4.16667,0,0,4.16667,-1608.98,-2539.21)">
        <path d="M536.161,942.132C536.161,942.132 534.825,955.658 536.535,959.48C538.247,963.3 533.99,959.525 532.708,956.97C531.426,954.417 530.869,936.906 533.651,936.714C536.434,936.525 535.248,936.003 536.161,942.132Z" style="fill:rgb(35,31,32);fill-rule:nonzero;"/>
    </g>
    <g transform="matrix(4.16667,0,0,4.16667,-1608.98,-2539.21)">
        <path d="M573.037,874.378C573.028,876.074 567.271,941.995 547.179,950.335C527.085,958.676 505.038,933.325 501.833,906.899C498.629,880.472 499.734,832.296 510.996,833.351C522.255,834.408 573.279,823.283 573.037,874.378Z" style="fill:rgb(119,101,80);fill-rule:nonzero;"/>
    </g>
    <g transform="matrix(4.16667,0,0,4.16667,-1608.98,-2539.21)">
        <path d="M611.856,940.229C611.856,940.229 612.267,953.709 610.29,957.625C608.314,961.539 612.839,957.541 614.296,954.917C615.755,952.294 617.518,934.724 614.744,934.673C611.97,934.623 613.192,934.042 611.856,940.229Z" style="fill:rgb(35,31,32);fill-rule:nonzero;"/>
    </g>
    <g transform="matrix(4.16667,0,0,4.16667,-1608.98,-2539.21)">
        <path d="M617.628,944.246C617.628,944.246 618.039,957.728 616.063,961.642C614.085,965.554 618.61,961.557 620.068,958.934C621.527,956.312 623.289,938.743 620.515,938.692C617.741,938.641 618.964,938.06 617.628,944.246Z" style="fill:rgb(35,31,32);fill-rule:nonzero;"/>
    </g>
    <g transform="matrix(4.16667,0,0,4.16667,-1608.98,-2539.21)">
        <path d="M625.54,940.396C625.54,940.396 625.95,953.877 623.974,957.792C621.998,961.707 626.521,957.708 627.98,955.085C629.438,952.464 631.201,934.894 628.426,934.841C625.653,934.791 626.876,934.209 625.54,940.396Z" style="fill:rgb(35,31,32);fill-rule:nonzero;"/>
    </g>
    <g transform="matrix(4.16667,0,0,4.16667,-1608.98,-2539.21)">
        <path d="M589.283,875.078C589.291,876.775 595.047,942.697 615.14,951.035C635.234,959.378 657.281,934.027 660.485,907.599C663.689,881.173 662.584,833 651.324,834.053C640.064,835.109 589.04,823.984 589.283,875.078Z" style="fill:rgb(119,101,80);fill-rule:nonzero;"/>
    </g>
    <g transform="matrix(4.16667,0,0,4.16667,-1608.98,-2539.21)">
        <path d="M670.567,811.723C670.47,832.285 668.942,850.794 663.46,865.802C657.985,880.808 648.556,892.305 632.659,898.834C632.659,898.834 632.616,898.853 632.538,898.876C631.712,899.216 630.87,899.544 630.01,899.859C621.95,903.013 602.142,903.716 596.394,909.75C589.452,917.026 572.34,923.896 567.872,913.285C565.167,906.862 544.837,906.299 532.765,898.629C506.625,886.521 499.016,853.016 496.906,829.264C494.348,800.511 500.569,772.161 506.669,752.501C509.682,740.855 511.695,724.315 512.956,710.689C513.281,707.142 513.562,703.794 513.793,700.782C513.859,700.933 513.926,701.078 513.992,701.224C522.481,719.414 550.767,725.619 584.716,725.121C618.665,724.624 639.752,719.009 644.293,704.541C644.961,702.42 645.785,698.888 646.434,694.416C649.939,724.866 656.784,752.814 658.039,757.777C663.672,774.142 670.639,796.438 670.567,811.723Z" style="fill:rgb(119,101,80);fill-rule:nonzero;"/>
    </g>
    <g transform="matrix(4.16667,0,0,4.16667,-1608.98,-2539.21)">
        <path d="M583.617,749.897C583.617,749.897 529.253,747.201 514.862,762.027C500.473,776.857 497.019,849.649 523.28,869.867C549.542,890.088 581.528,906.263 606.309,896.828C631.091,887.39 651.824,874.585 658.044,820.666C664.263,766.747 631.515,752.593 583.617,749.897Z" style="fill:rgb(160,134,101);fill-rule:nonzero;"/>
    </g>
    <g transform="matrix(4.16667,0,0,4.16667,-1608.98,-2539.21)">
        <path d="M582.857,756.046C582.857,756.046 540.835,747.171 529.314,786.475C517.794,825.779 544.391,849.866 580.813,849.866C617.233,849.866 636.504,818.58 635.963,802.529C635.423,786.475 618.783,750.15 582.857,756.046Z" style="fill:rgb(193,163,129);fill-rule:nonzero;"/>
    </g>
    <g transform="matrix(4.16667,0,0,4.16667,-1608.98,-2539.21)">
        <path d="M646.434,694.416C645.785,698.888 644.961,702.42 644.293,704.541C639.752,719.009 618.665,724.624 584.716,725.121C550.767,725.619 522.481,719.414 513.992,701.224C513.926,701.078 513.859,700.933 513.793,700.782C514.307,694.052 514.586,688.989 514.677,687.133C514.684,687.126 514.684,687.122 514.677,687.115C516.654,673.806 522.474,646.188 537.477,638.007C557.485,627.095 568.072,639.221 578.239,639.221C588.408,639.221 597.321,628.306 611.509,632.248C624.812,635.941 641.929,656.306 645.264,682.566C645.271,682.599 645.271,682.623 645.271,682.646C645.416,684.398 645.573,686.152 645.742,687.898L645.742,687.921C645.853,689.05 645.967,690.177 646.089,691.298C646.199,692.341 646.313,693.38 646.434,694.416Z" style="fill:rgb(160,134,101);fill-rule:nonzero;"/>
    </g>
    <g transform="matrix(4.16667,0,0,4.16667,-1608.98,-2539.21)">
        <path d="M629.148,686.619C628.33,678.166 622.518,666.978 611.835,664.044C601.146,661.115 588.933,663.746 590.262,670.616C591.584,677.486 597.522,675.466 606.487,682.914C615.459,690.363 616.764,707.76 616.764,707.76L616.764,707.765C601.729,720.383 575.977,721.232 551.833,713.447C546.588,711.756 542.198,709.058 538.613,705.705L538.619,705.698C538.619,705.698 542.937,684.763 554.386,680.318C565.838,675.873 567.366,670.009 562.213,665.766C557.061,661.521 531.846,664.572 526.567,681.228C524.987,669.13 528.429,657.174 536.122,651.68C552.434,640.041 571.035,652.795 571.035,652.795C575.21,655.1 578.686,660.32 578.686,660.32C578.686,660.32 585.028,644.144 606.774,644.833C624.825,645.41 633.597,667.021 629.148,686.619Z" style="fill:rgb(252,249,231);fill-rule:nonzero;"/>
    </g>
    <g transform="matrix(4.16667,0,0,4.16667,-1608.98,-2539.21)">
        <path d="M586.438,682.242C586.438,682.242 576,679.171 568.987,683.713C561.974,688.253 571.13,695.469 576.645,696.269C582.161,697.069 586.539,694.061 589.87,689.787C592.367,686.583 591.389,683.55 586.438,682.242Z" style="fill:rgb(80,78,80);fill-rule:nonzero;"/>
    </g>
    <g transform="matrix(4.16667,0,0,4.16667,-1608.98,-2539.21)">
        <path d="M581.106,683.046C581.106,683.046 574.093,682.289 570.801,684.41C567.509,686.532 575.095,687.896 579.961,687.896C584.828,687.896 595.277,684.713 581.106,683.046Z" style="fill:rgb(103,103,103);fill-rule:nonzero;"/>
    </g>
    <g transform="matrix(4.16667,0,0,4.16667,-1608.98,-2539.21)">
        <path d="M585.02,700.933C585.02,700.933 566.316,701.945 561.735,698.306C557.156,694.667 558.301,699.168 560.4,701.062C562.499,702.955 574.333,705.986 586.737,703.964C599.141,701.945 602.004,698.376 600.858,696.927C599.715,695.476 593.974,700.933 585.02,700.933Z" style="fill:rgb(142,138,119);fill-rule:nonzero;"/>
    </g>
    <g transform="matrix(4.16667,0,0,4.16667,-1608.98,-2539.21)">
        <path d="M554.386,680.318C542.937,684.763 538.619,705.698 538.619,705.698L538.613,705.705C531.646,699.18 527.735,690.169 526.567,681.233L526.567,681.228C531.846,664.572 557.061,661.521 562.213,665.766C567.366,670.009 565.838,675.873 554.386,680.318Z" style="fill:rgb(90,75,66);fill-rule:nonzero;"/>
    </g>
    <g transform="matrix(4.16667,0,0,4.16667,-1608.98,-2539.21)">
        <path d="M629.148,686.619L629.148,686.623C628.238,690.625 626.772,694.547 624.728,698.185C622.626,701.92 619.93,705.105 616.764,707.765L616.764,707.76C616.764,707.76 615.459,690.363 606.487,682.914C597.522,675.466 591.584,677.486 590.262,670.616C588.933,663.746 601.146,661.115 611.835,664.044C622.518,666.978 628.33,678.166 629.148,686.619Z" style="fill:rgb(90,75,66);fill-rule:nonzero;"/>
    </g>
    <g transform="matrix(4.16667,0,0,4.16667,-1608.98,-2539.21)">
        <path d="M549.882,671.38C549.882,675.432 553.167,678.716 557.218,678.716C561.269,678.716 564.553,675.432 564.553,671.38C564.553,667.328 561.269,664.044 557.218,664.044C553.167,664.044 549.882,667.328 549.882,671.38Z" style="fill:rgb(3,4,5);fill-rule:nonzero;"/>
    </g>
    <g transform="matrix(4.16667,0,0,4.16667,-1608.98,-2539.21)">
        <path d="M561.931,668.365C561.931,667.064 560.876,666.008 559.574,666.008C558.273,666.008 557.218,667.064 557.218,668.365C557.218,669.667 558.273,670.721 559.574,670.721C560.876,670.721 561.931,669.667 561.931,668.365Z" style="fill:white;fill-rule:nonzero;"/>
    </g>
    <g transform="matrix(4.16667,0,0,4.16667,-1608.98,-2539.21)">
        <path d="M590.746,670.721C590.746,674.773 594.029,678.058 598.081,678.058C602.133,678.058 605.417,674.773 605.417,670.721C605.417,666.671 602.133,663.386 598.081,663.386C594.029,663.386 590.746,666.671 590.746,670.721Z" style="fill:rgb(3,4,5);fill-rule:nonzero;"/>
    </g>
    <g transform="matrix(4.16667,0,0,4.16667,-1608.98,-2539.21)">
        <path d="M602.795,667.708C602.795,666.406 601.74,665.351 600.438,665.351C599.137,665.351 598.081,666.406 598.081,667.708C598.081,669.009 599.137,670.065 600.438,670.065C601.74,670.065 602.795,669.009 602.795,667.708Z" style="fill:white;fill-rule:nonzero;"/>
    </g>
    <g transform="matrix(4.16667,0,0,4.16667,-1608.98,-2539.21)">
        <path d="M635.413,850.191C635.413,850.191 619.052,854.564 614.303,872.899C609.551,891.236 616.489,916.712 631.952,920.66C647.413,924.608 658.021,904.871 659.026,890.009C660.029,875.148 653.514,846.507 635.413,850.191Z" style="fill:rgb(160,134,101);fill-rule:nonzero;"/>
    </g>
    <g transform="matrix(4.16667,0,0,4.16667,-1608.98,-2539.21)">
        <path d="M533.398,850.662C533.398,850.662 550.123,855.577 555.46,874.082C560.798,892.584 554.474,917.848 538.894,921.287C523.313,924.724 511.994,904.626 510.557,889.724C509.12,874.821 514.924,846.378 533.398,850.662Z" style="fill:rgb(160,134,101);fill-rule:nonzero;"/>
    </g>
    <g transform="matrix(4.16667,0,0,4.16667,-1608.98,-2539.21)">
        <path d="M644.548,670.89C644.421,654.166 636.666,635.123 612.2,623.929C612.2,623.929 602.266,618.966 588.256,617.044L588.255,617.044C582.14,613.768 586.286,609.41 586.286,609.41C578.606,610.42 575.17,613.463 575.17,613.463C573.351,610.626 566.448,609.41 566.448,609.41C570.054,613.857 564.553,617.52 564.553,617.52C555.723,619.232 546.581,622.939 537.997,629.847C521.263,643.321 511.785,666.119 514.719,686.357C514.719,686.357 514.708,686.619 514.677,687.115C516.654,673.806 522.474,646.188 537.477,638.007C557.485,627.095 568.072,639.221 578.239,639.221C588.408,639.221 597.321,628.306 611.509,632.248C624.812,635.941 641.929,656.306 645.264,682.566C644.948,678.664 644.7,674.751 644.548,670.89Z" style="fill:rgb(193,163,129);fill-rule:nonzero;"/>
    </g>
    <g transform="matrix(4.16667,0,0,4.16667,-1608.98,-2539.21)">
        <path d="M644.509,719.275C658.941,704.225 686.742,716.371 686.742,716.371L686.749,716.371C675.646,694.697 654.989,703.265 654.989,703.265C650.803,704.342 647.239,710.431 644.509,719.275Z" style="fill:rgb(193,163,129);fill-rule:nonzero;"/>
    </g>
    <g transform="matrix(4.16667,0,0,4.16667,-1608.98,-2539.21)">
        <path d="M643.319,803.972C653.572,832.917 673.633,824.021 683.63,816.233C693.627,808.448 698.415,741.727 687.542,718.005C687.281,717.441 687.017,716.896 686.749,716.371L686.742,716.371C686.742,716.371 658.941,704.225 644.509,719.275L644.503,719.281C637.469,742.061 635.936,783.13 643.319,803.972Z" style="fill:rgb(119,101,80);fill-rule:nonzero;"/>
    </g>
    <g transform="matrix(4.16667,0,0,4.16667,-1608.98,-2539.21)">
        <path d="M518.133,717.836C503.306,702.457 475.811,713.971 475.811,713.971L475.806,713.971C486.348,692.544 507.233,701.585 507.233,701.585C511.45,702.757 515.172,708.927 518.133,717.836Z" style="fill:rgb(193,163,129);fill-rule:nonzero;"/>
    </g>
    <g transform="matrix(4.16667,0,0,4.16667,-1608.98,-2539.21)">
        <path d="M521.521,802.585C512.017,831.306 491.72,821.953 481.518,813.933C471.315,805.919 464.793,739.07 475.055,715.589C475.3,715.031 475.551,714.49 475.806,713.971L475.811,713.971C475.811,713.971 503.306,702.457 518.133,717.836L518.138,717.843C525.766,740.791 528.367,781.905 521.521,802.585Z" style="fill:rgb(119,101,80);fill-rule:nonzero;"/>
    </g>
    <g transform="matrix(4.16667,0,0,4.16667,-1608.98,-2539.21)">
        <path d="M474.207,716.74L471.871,729.899L386.208,729.899C386.48,724.544 387.771,717.929 387.771,717.929C387.771,717.929 434.884,716.685 474.207,716.74Z" style="fill:rgb(115,103,89);fill-rule:nonzero;"/>
    </g>
    <g transform="matrix(4.16667,0,0,4.16667,-1608.98,-2539.21)">
        <path d="M650.49,716.583L646.434,727.272L514.192,727.272L513.241,717.528C517.437,717.772 520.82,718.076 523.117,718.457C544.449,721.985 586.77,717.601 608.66,717.668C615.063,717.694 631.021,717.236 650.49,716.583Z" style="fill:rgb(115,103,89);fill-rule:nonzero;"/>
    </g>
    <g transform="matrix(4.16667,0,0,4.16667,-1608.98,-2539.21)">
        <path d="M771.4,721.58L682.778,723.829L678.994,715.589C720.946,714.073 765.755,712.285 768.187,712.285C770.005,712.285 770.933,716.62 771.4,721.58Z" style="fill:rgb(115,103,89);fill-rule:nonzero;"/>
    </g>
    <g transform="matrix(4.16667,0,0,4.16667,-1608.98,-2539.21)">
        <path d="M771.825,735.931C771.825,735.931 671.173,738.49 648.132,741.388C625.091,744.287 537.366,739.048 523.518,738.963C509.663,738.878 391.409,736.617 387.771,736.617C386.297,736.617 386.02,733.548 386.208,729.899L471.871,729.899L474.207,716.74C489.454,716.765 503.532,716.977 513.241,717.528L514.192,727.272L646.434,727.272L650.49,716.583C659.447,716.286 669.142,715.947 678.994,715.589L682.778,723.829L771.4,721.58C772.025,728.201 771.825,735.931 771.825,735.931Z" style="fill:rgb(90,75,66);fill-rule:nonzero;"/>
    </g>
    <g transform="matrix(4.16667,0,0,4.16667,-1608.98,-2539.21)">
        <path d="M502.618,714.732C502.618,714.732 504.347,712.15 507.65,712.755C510.954,713.361 511.646,716.013 509.648,719.484C507.653,722.955 504.048,731.757 503.719,735.38C503.388,739.003 500.063,736.569 499.21,731.621C498.354,726.67 498.736,720.464 502.618,714.732Z" style="fill:rgb(35,31,32);fill-rule:nonzero;"/>
    </g>
    <g transform="matrix(4.16667,0,0,4.16667,-1608.98,-2539.21)">
        <path d="M483.009,710.861C483.009,710.861 484.736,708.281 488.041,708.885C491.344,709.492 492.036,712.142 490.039,715.615C488.042,719.085 484.44,727.888 484.109,731.512C483.777,735.133 480.455,732.7 479.599,727.75C478.746,722.802 479.125,716.597 483.009,710.861Z" style="fill:rgb(35,31,32);fill-rule:nonzero;"/>
    </g>
    <g transform="matrix(4.16667,0,0,4.16667,-1608.98,-2539.21)">
        <path d="M493.961,711.494C493.961,711.494 495.738,708.312 499.02,708.984C502.304,709.655 502.938,712.871 500.876,717.142C498.813,721.412 495.041,732.213 494.636,736.636C494.233,741.058 490.968,738.158 490.216,732.146C489.465,726.132 489.971,718.562 493.961,711.494Z" style="fill:rgb(35,31,32);fill-rule:nonzero;"/>
    </g>
    <g transform="matrix(4.16667,0,0,4.16667,-1608.98,-2539.21)">
        <path d="M507.891,716.939C507.891,716.939 503.854,723.369 503.331,725.755C502.808,728.145 500.866,731.621 500.099,728.911C499.332,726.203 501.711,716.82 503.466,715.388C505.22,713.955 509.237,713.305 507.891,716.939Z" style="fill:rgb(110,110,114);fill-rule:nonzero;"/>
    </g>
    <g transform="matrix(4.16667,0,0,4.16667,-1608.98,-2539.21)">
        <path d="M488.043,712.715C488.043,712.715 484.006,719.146 483.483,721.535C482.961,723.919 481.019,727.396 480.251,724.688C479.485,721.98 481.863,712.597 483.618,711.165C485.373,709.733 489.389,709.083 488.043,712.715Z" style="fill:rgb(110,110,114);fill-rule:nonzero;"/>
    </g>
    <g transform="matrix(4.16667,0,0,4.16667,-1608.98,-2539.21)">
        <path d="M498.871,713.879C498.871,713.879 494.683,721.959 494.107,724.939C493.531,727.917 491.507,732.278 490.799,728.929C490.09,725.582 492.682,713.869 494.472,712.05C496.261,710.233 500.3,709.337 498.871,713.879Z" style="fill:rgb(110,110,114);fill-rule:nonzero;"/>
    </g>
    <g transform="matrix(4.16667,0,0,4.16667,-1608.98,-2539.21)">
        <path d="M502.306,748.468C502.306,748.468 478.06,746.951 476.42,763.052C474.781,779.153 481.307,809.097 496.516,811.854C511.727,814.611 518.18,797.284 519.313,784.886C520.445,772.488 517.656,746.257 502.306,748.468Z" style="fill:rgb(160,134,101);fill-rule:nonzero;"/>
    </g>
    <g transform="matrix(4.16667,0,0,4.16667,-1608.98,-2539.21)">
        <path d="M659.382,714.732C659.382,714.732 657.653,712.15 654.349,712.755C651.046,713.361 650.354,716.013 652.352,719.484C654.349,722.955 657.951,731.757 658.282,735.38C658.613,739.003 661.938,736.569 662.79,731.621C663.646,726.67 663.265,720.464 659.382,714.732Z" style="fill:rgb(35,31,32);fill-rule:nonzero;"/>
    </g>
    <g transform="matrix(4.16667,0,0,4.16667,-1608.98,-2539.21)">
        <path d="M678.992,710.861C678.992,710.861 677.264,708.281 673.959,708.885C670.656,709.492 669.965,712.142 671.961,715.615C673.958,719.085 677.562,727.888 677.892,731.512C678.223,735.133 681.546,732.7 682.4,727.75C683.255,722.802 682.874,716.597 678.992,710.861Z" style="fill:rgb(35,31,32);fill-rule:nonzero;"/>
    </g>
    <g transform="matrix(4.16667,0,0,4.16667,-1608.98,-2539.21)">
        <path d="M668.04,711.494C668.04,711.494 666.264,708.312 662.98,708.984C659.698,709.655 659.063,712.871 661.124,717.142C663.187,721.412 666.959,732.213 667.364,736.636C667.768,741.058 671.033,738.158 671.784,732.146C672.536,726.132 672.029,718.562 668.04,711.494Z" style="fill:rgb(35,31,32);fill-rule:nonzero;"/>
    </g>
    <g transform="matrix(4.16667,0,0,4.16667,-1608.98,-2539.21)">
        <path d="M654.11,716.939C654.11,716.939 658.147,723.369 658.669,725.755C659.192,728.145 661.135,731.621 661.901,728.911C662.668,726.203 660.29,716.82 658.534,715.388C656.78,713.955 652.764,713.305 654.11,716.939Z" style="fill:rgb(110,110,114);fill-rule:nonzero;"/>
    </g>
    <g transform="matrix(4.16667,0,0,4.16667,-1608.98,-2539.21)">
        <path d="M673.957,712.715C673.957,712.715 677.994,719.146 678.518,721.535C679.04,723.919 680.982,727.396 681.749,724.688C682.517,721.98 680.136,712.597 678.382,711.165C676.627,709.733 672.611,709.083 673.957,712.715Z" style="fill:rgb(110,110,114);fill-rule:nonzero;"/>
    </g>
    <g transform="matrix(4.16667,0,0,4.16667,-1608.98,-2539.21)">
        <path d="M663.129,713.879C663.129,713.879 667.317,721.959 667.894,724.939C668.47,727.917 670.494,732.278 671.202,728.929C671.909,725.582 669.318,713.869 667.529,712.05C665.738,710.233 661.7,709.337 663.129,713.879Z" style="fill:rgb(110,110,114);fill-rule:nonzero;"/>
    </g>
    <g transform="matrix(4.16667,0,0,4.16667,-1608.98,-2539.21)">
        <path d="M661.135,750.275C661.135,750.275 685.35,749.309 687.408,765.451C689.465,781.593 683.715,811.4 668.574,813.811C653.43,816.224 646.523,798.744 645.069,786.318C643.614,773.889 645.723,747.714 661.135,750.275Z" style="fill:rgb(160,134,101);fill-rule:nonzero;"/>
    </g>
    <g transform="matrix(4.16667,0,0,4.16667,-1608.98,-2539.21)">
        <path d="M456.531,724.89C456.53,724.884 456.471,724.88 456.356,724.882C456.244,724.884 456.075,724.89 455.853,724.893C455.409,724.912 454.757,724.941 453.916,724.974C453.076,725.017 452.049,725.066 450.856,725.124C449.665,725.189 448.301,725.169 446.798,725.201C445.294,725.223 443.647,725.248 441.878,725.274C440.111,725.299 438.219,725.277 436.231,725.285C434.242,725.285 432.154,725.285 429.99,725.287C427.825,725.269 425.583,725.25 423.288,725.234C414.106,725.169 405.793,725.041 399.776,724.967C396.767,724.93 394.332,724.902 392.65,724.88C391.809,724.876 391.155,724.873 390.711,724.869C390.491,724.873 390.321,724.876 390.208,724.876C390.094,724.879 390.035,724.884 390.035,724.89C390.035,724.896 390.094,724.903 390.207,724.912C390.32,724.917 390.49,724.927 390.71,724.941C391.153,724.956 391.806,724.982 392.647,725.015C394.329,725.06 396.764,725.128 399.772,725.21C405.788,725.345 414.102,725.513 423.286,725.576C425.582,725.593 427.823,725.608 429.988,725.623C432.154,725.615 434.242,725.608 436.232,725.599C438.221,725.584 440.113,725.597 441.883,725.558C443.651,725.518 445.298,725.479 446.804,725.443C448.308,725.396 449.67,725.402 450.865,725.316C452.058,725.236 453.086,725.166 453.926,725.108C454.766,725.045 455.417,724.996 455.859,724.962C456.08,724.944 456.248,724.927 456.361,724.917C456.473,724.905 456.532,724.896 456.531,724.89Z" style="fill:rgb(90,75,66);fill-rule:nonzero;"/>
    </g>
    <g transform="matrix(4.16667,0,0,4.16667,-1608.98,-2539.21)">
        <path d="M470.273,721.021C470.273,721.009 470.072,721 469.689,720.998C469.304,720.996 468.738,720.996 468.009,720.996C466.551,721.009 464.441,721.029 461.835,721.052C456.623,721.136 449.423,721.248 441.469,721.375C433.517,721.539 426.317,721.689 421.105,721.796C418.5,721.869 416.392,721.925 414.934,721.964C414.206,721.992 413.64,722.013 413.257,722.027C412.873,722.046 412.671,722.061 412.672,722.073C412.673,722.083 412.874,722.091 413.259,722.097C413.643,722.097 414.208,722.099 414.938,722.099C416.396,722.083 418.504,722.064 421.11,722.041C426.322,721.958 433.522,721.844 441.477,721.718C449.429,721.552 456.629,721.406 461.841,721.296C464.447,721.226 466.554,721.167 468.013,721.128C468.741,721.1 469.306,721.08 469.69,721.066C470.074,721.048 470.273,721.033 470.273,721.021Z" style="fill:rgb(90,75,66);fill-rule:nonzero;"/>
    </g>
    <g transform="matrix(4.16667,0,0,4.16667,-1608.98,-2539.21)">
        <path d="M581.286,722.073C581.285,722.066 581.224,722.066 581.104,722.072C580.982,722.078 580.803,722.088 580.568,722.103C580.1,722.132 579.408,722.176 578.519,722.234C576.737,722.341 574.158,722.476 570.969,722.597C564.591,722.844 555.774,723.037 546.033,723.173C536.292,723.292 527.473,723.398 521.09,723.476C517.896,723.52 515.314,723.568 513.529,723.625C511.746,723.681 510.752,723.753 510.765,723.829C510.767,723.832 510.831,723.814 510.944,723.81C511.065,723.804 511.244,723.796 511.478,723.79C511.948,723.783 512.64,723.771 513.531,723.759C515.317,723.75 517.9,723.736 521.091,723.718C527.476,723.691 536.296,723.656 546.038,723.517C555.781,723.381 564.6,723.149 570.979,722.839C574.168,722.688 576.748,722.517 578.528,722.367C579.418,722.292 580.107,722.226 580.575,722.171C580.808,722.142 580.987,722.123 581.106,722.107C581.226,722.089 581.287,722.078 581.286,722.073Z" style="fill:rgb(90,75,66);fill-rule:nonzero;"/>
    </g>
    <g transform="matrix(4.16667,0,0,4.16667,-1608.98,-2539.21)">
        <path d="M650.49,724.89C650.49,724.884 650.435,724.877 650.325,724.873C650.215,724.869 650.052,724.865 649.838,724.857C649.41,724.851 648.78,724.841 647.968,724.829C646.342,724.816 643.992,724.798 641.088,724.776C635.278,724.75 627.252,724.71 618.387,724.664C609.522,724.634 601.497,724.626 595.687,724.661C592.781,724.675 590.431,724.707 588.806,724.742C587.993,724.762 587.354,724.792 586.929,724.81C586.717,724.833 586.556,724.849 586.447,724.861C586.339,724.876 586.286,724.884 586.286,724.89C586.286,724.896 586.345,724.898 586.455,724.893C586.565,724.89 586.729,724.884 586.945,724.877L588.808,724.877C590.431,724.884 592.783,724.893 595.687,724.905C601.497,724.93 609.522,724.967 618.386,725.008C627.251,725.039 635.277,725.045 641.088,725.018C643.992,724.995 646.343,724.976 647.968,724.962C648.78,724.945 649.41,724.933 649.839,724.927C650.053,724.918 650.215,724.912 650.325,724.906C650.435,724.902 650.49,724.896 650.49,724.89Z" style="fill:rgb(90,75,66);fill-rule:nonzero;"/>
    </g>
    <g transform="matrix(4.16667,0,0,4.16667,-1608.98,-2539.21)">
        <path d="M650.49,721.927C650.491,721.904 650.085,721.881 649.352,721.861C648.617,721.847 647.554,721.83 646.243,721.807C643.615,721.775 639.987,721.754 635.977,721.754C631.969,721.754 628.339,721.775 625.709,721.807C624.396,721.83 623.333,721.847 622.596,721.861C621.861,721.881 621.454,721.904 621.453,721.927C621.452,721.951 621.857,721.974 622.592,721.996C623.326,722.007 624.389,722.025 625.701,722.049C628.328,722.08 631.957,722.1 635.966,722.1C639.975,722.1 643.605,722.08 646.234,722.049C647.548,722.025 648.611,722.007 649.346,721.996C650.083,721.974 650.489,721.951 650.49,721.927Z" style="fill:rgb(90,75,66);fill-rule:nonzero;"/>
    </g>
    <g transform="matrix(4.16667,0,0,4.16667,-1608.98,-2539.21)">
        <path d="M764.75,718.457C764.75,718.45 764.684,718.44 764.553,718.426C764.419,718.414 764.226,718.398 763.967,718.375C763.454,718.341 762.693,718.255 761.713,718.245C759.754,718.175 756.917,718.145 753.416,718.158C746.407,718.183 736.73,718.373 726.043,718.664C715.356,718.952 705.682,719.281 698.682,719.544C695.181,719.687 692.35,719.802 690.393,719.882C689.413,719.929 688.655,719.968 688.139,719.994C687.882,720.011 687.686,720.023 687.553,720.031C687.421,720.042 687.354,720.051 687.354,720.056C687.354,720.062 687.422,720.065 687.555,720.066C687.687,720.065 687.884,720.065 688.142,720.062C688.656,720.051 689.418,720.037 690.397,720.015C692.355,719.961 695.189,719.883 698.689,719.787C705.693,719.587 715.366,719.309 726.052,719.005C736.738,718.716 746.414,718.489 753.417,718.401C756.918,718.357 759.752,718.35 761.71,718.376C762.691,718.369 763.446,718.433 763.962,718.443C764.221,718.452 764.417,718.457 764.549,718.46C764.682,718.463 764.749,718.46 764.75,718.457Z" style="fill:rgb(90,75,66);fill-rule:nonzero;"/>
    </g>
    <g transform="matrix(4.16667,0,0,4.16667,-1608.98,-2539.21)">
        <path d="M766.367,714.25C766.361,714.239 766.237,714.269 766.009,714.337C765.77,714.386 765.422,714.456 764.964,714.517C764.054,714.644 762.725,714.769 761.079,714.886C757.79,715.125 753.234,715.337 748.199,715.548C743.167,715.759 738.607,715.933 735.31,716.105C732.018,716.265 729.959,716.454 729.987,716.583C729.992,716.597 730.12,716.555 730.357,716.544C730.593,716.527 730.955,716.507 731.413,716.488C732.335,716.454 733.671,716.406 735.32,716.347C738.619,716.24 743.178,716.101 748.214,715.891C753.25,715.681 757.807,715.428 761.1,715.128C762.745,714.98 764.075,714.818 764.987,714.649C765.442,714.568 765.793,714.474 766.027,714.405C766.257,714.312 766.373,714.259 766.367,714.25Z" style="fill:rgb(90,75,66);fill-rule:nonzero;"/>
    </g>
</svg>
